<?xml version="1.0" encoding="UTF-8"?>
<!DOCTYPE svg PUBLIC "-//W3C//DTD SVG 1.1//EN" "http://www.w3.org/Graphics/SVG/1.1/DTD/svg11.dtd">
<!-- Creator: CorelDRAW X8 -->
<svg xmlns="http://www.w3.org/2000/svg" xml:space="preserve" width="22mm" height="139mm" version="1.1" style="shape-rendering:geometricPrecision; text-rendering:geometricPrecision; image-rendering:optimizeQuality; fill-rule:evenodd; clip-rule:evenodd"
viewBox="0 0 2200 13900"
 xmlns:xlink="http://www.w3.org/1999/xlink">
 <defs>
  <style type="text/css">
   <![CDATA[
    .str0 {stroke:#A88E24;stroke-width:10;stroke-linejoin:bevel}
    .fil0 {fill:none}
   ]]>
  </style>
 </defs>
 <g id="Слой_x0020_1">
  <metadata id="CorelCorpID_0Corel-Layer"/>
  <line class="fil0 str0" x1="2199" y1="69" x2="440" y2= "69" />
  <line class="fil0 str0" x1="319" y1="106" x2="319" y2= "127" />
  <line class="fil0 str0" x1="319" y1="127" x2="2199" y2= "127" />
  <path class="fil0 str0" d="M319 106c76,-15 107,-25 121,-37"/>
  <path class="fil0 str0" d="M319 127c-44,7 -88,15 -130,27 -36,11 -71,25 -102,43 -26,15 -49,33 -66,60 -14,23 -24,52 -19,72 11,44 96,42 161,44 46,2 82,6 117,10"/>
  <line class="fil0 str0" x1="280" y1="383" x2="2199" y2= "383" />
  <line class="fil0 str0" x1="280" y1="383" x2="280" y2= "434" />
  <line class="fil0 str0" x1="280" y1="434" x2="2199" y2= "434" />
  <path class="fil0 str0" d="M280 434c31,4 61,8 93,17 24,8 48,18 60,37 6,9 10,19 14,30"/>
  <line class="fil0 str0" x1="447" y1="518" x2="2199" y2= "518" />
  <line class="fil0 str0" x1="319" y1="106" x2="2199" y2= "106" />
  <line class="fil0 str0" x1="1957" y1="106" x2="1957" y2= "127" />
  <path class="fil0 str0" d="M1957 106c76,-15 107,-25 121,-37"/>
  <path class="fil0 str0" d="M1957 127c-44,7 -87,15 -130,27 -36,11 -71,25 -102,43 -26,15 -49,33 -66,60 -14,23 -24,52 -19,72 12,44 97,42 162,44 45,2 81,6 116,10"/>
  <line class="fil0 str0" x1="1918" y1="383" x2="1918" y2= "434" />
  <path class="fil0 str0" d="M1918 434c31,4 62,8 93,17 24,8 48,18 61,37 6,9 9,19 13,30"/>
  <line class="fil0 str0" x1="2069" y1="489" x2="2069" y2= "2753" />
  <line class="fil0 str0" x1="2069" y1="3166" x2="2069" y2= "3543" />
  <line class="fil0 str0" x1="2069" y1="11488" x2="2069" y2= "11609" />
  <line class="fil0 str0" x1="2199" y1="13555" x2="2199" y2= "518" />
  <line class="fil0 str0" x1="2107" y1="2753" x2="1253" y2= "2753" />
  <line class="fil0 str0" x1="2119" y1="2876" x2="2119" y2= "2793" />
  <line class="fil0 str0" x1="2119" y1="2793" x2="1301" y2= "2793" />
  <line class="fil0 str0" x1="2119" y1="2876" x2="1452" y2= "2876" />
  <line class="fil0 str0" x1="1613" y1="3107" x2="2108" y2= "3107" />
  <line class="fil0 str0" x1="1591" y1="3166" x2="2119" y2= "3166" />
  <line class="fil0 str0" x1="2119" y1="3166" x2="2119" y2= "3106" />
  <line class="fil0 str0" x1="2119" y1="3106" x2="2108" y2= "3107" />
  <path class="fil0 str0" d="M2119 2876c8,4 16,8 22,15 8,10 9,27 9,43 0,49 0,89 0,138 0,6 0,12 -2,17 -4,9 -16,13 -29,17"/>
  <path class="fil0 str0" d="M1955 3803c-8,-27 -16,-55 -35,-70 -32,-24 -96,-13 -130,18 -18,15 -27,36 -35,56 -39,99 -36,203 -19,321 9,69 23,142 74,170 25,14 58,17 89,11 38,-6 72,-26 96,-54 34,-40 46,-96 54,-151 23,-146 25,-283 -14,-429 -21,-79 -55,-160 -121,-197 -44,-24 -101,-30 -150,-16 -91,25 -151,118 -188,211 -73,186 -54,373 -35,562 13,121 26,243 90,347 33,54 80,104 138,124 61,21 134,11 193,-22 28,-16 53,-38 72,-63 45,-62 52,-146 58,-229 17,-233 28,-450 6,-669 -10,-104 -28,-209 -72,-312 -32,-73 -77,-145 -143,-181 -15,-8 -32,-14 -48,-18"/>
  <line class="fil0 str0" x1="2199" y1="11836" x2="582" y2= "11836" />
  <line class="fil0 str0" x1="582" y1="11836" x2="582" y2= "13555" />
  <path class="fil0 str0" d="M772 3235c-50,23 -93,57 -126,100 -36,48 -59,105 -77,164 -55,177 -72,361 -75,544 -7,424 59,846 138,1263 63,328 134,652 194,978 73,393 130,788 170,1187 48,470 73,945 21,1411 -40,360 -125,714 -228,1066 -19,65 -39,131 -59,197"/>
  <line class="fil0 str0" x1="1274" y1="3212" x2="1835" y2= "3212" />
  <line class="fil0 str0" x1="2155" y1="11836" x2="2155" y2= "11641" />
  <line class="fil0 str0" x1="2155" y1="11641" x2="643" y2= "11641" />
  <line class="fil0 str0" x1="643" y1="11641" x2="643" y2= "11797" />
  <line class="fil0 str0" x1="2069" y1="11609" x2="680" y2= "11609" />
  <line class="fil0 str0" x1="680" y1="11609" x2="643" y2= "11641" />
  <line class="fil0 str0" x1="582" y1="11836" x2="643" y2= "11797" />
  <line class="fil0 str0" x1="2107" y1="2753" x2="2119" y2= "2793" />
  <path class="fil0 str0" d="M1725 10621c27,-90 53,-180 81,-269 50,-156 105,-311 149,-469 52,-189 89,-382 115,-576 30,-226 46,-455 56,-683 21,-479 18,-959 -15,-1438 -12,-179 -29,-357 -58,-533 -54,-318 -151,-627 -219,-942 -66,-304 -105,-612 -151,-920 -8,-56 -16,-112 -24,-168"/>
  <path class="fil0 str0" d="M1413 11184c-14,1 -29,2 -43,8 -21,9 -38,29 -42,51 -1,6 -1,11 -1,17"/>
  <path class="fil0 str0" d="M1327 11260c-10,1 -20,2 -26,-2 -10,-6 -9,-25 -7,-42 7,-50 21,-86 51,-113 13,-12 28,-22 39,-35 18,-23 24,-57 21,-87 -1,-9 -2,-18 -2,-27 -1,-9 1,-19 2,-28"/>
  <path class="fil0 str0" d="M1405 10926c-17,-8 -34,-16 -53,-20 -40,-7 -86,4 -114,32 -14,14 -23,34 -32,54"/>
  <path class="fil0 str0" d="M1206 10992c1,-21 1,-41 5,-62 11,-58 47,-112 88,-155 17,-18 35,-35 57,-51 15,-11 32,-22 38,-38 6,-14 3,-31 2,-47 -1,-10 0,-19 2,-28 2,-7 5,-14 8,-20"/>
  <path class="fil0 str0" d="M1496 10591c-14,-7 -28,-13 -42,-11 -12,1 -23,7 -33,15 -2,2 -4,4 -7,7"/>
  <path class="fil0 str0" d="M1414 10602c12,-19 23,-37 39,-49 25,-18 62,-22 84,-44 15,-15 23,-38 21,-58 -2,-13 -8,-25 -8,-38 0,-11 3,-22 8,-31 2,-2 4,-4 5,-6"/>
  <path class="fil0 str0" d="M1563 10376c-15,-2 -31,-4 -47,-4 -45,-1 -92,11 -126,42 -15,15 -27,33 -29,52 -1,6 -1,12 0,18"/>
  <path class="fil0 str0" d="M1361 10484c0,-23 1,-46 8,-66 16,-43 59,-74 97,-102 31,-24 59,-47 94,-69 23,-14 49,-28 54,-51 3,-9 1,-20 2,-30 1,-18 8,-35 16,-50 3,-7 7,-13 11,-19"/>
  <path class="fil0 str0" d="M1643 10097c-30,-2 -60,-4 -91,-1 -43,4 -86,17 -117,44 -20,17 -35,42 -49,66"/>
  <path class="fil0 str0" d="M1494 10108c15,-14 30,-28 47,-37 18,-10 39,-16 58,-26 12,-6 23,-13 30,-24 6,-9 9,-21 12,-32 2,-10 5,-20 11,-29 5,-10 13,-18 22,-23 5,-3 10,-5 15,-7"/>
  <path class="fil0 str0" d="M1689 9930c-14,-9 -28,-18 -43,-22 -29,-7 -63,2 -89,20 -13,8 -24,19 -35,30"/>
  <path class="fil0 str0" d="M1616 9906c14,-8 28,-18 40,-29 14,-13 26,-29 31,-46 6,-20 2,-41 0,-62 -2,-19 -2,-38 6,-54 3,-7 8,-13 13,-19"/>
  <path class="fil0 str0" d="M1706 9696c-13,-7 -26,-14 -40,-18 -35,-9 -75,2 -108,21 -11,6 -21,14 -29,23 -7,9 -11,20 -15,30"/>
  <path class="fil0 str0" d="M1436 9855c9,-16 18,-33 29,-48 10,-14 21,-27 34,-36 9,-6 18,-10 27,-17 8,-6 17,-14 18,-24 2,-10 -4,-24 -13,-31 -18,-15 -48,-6 -70,8 -30,19 -46,48 -59,77 -12,26 -22,53 -33,80 -10,24 -21,47 -30,72 -13,34 -21,70 -29,106"/>
  <path class="fil0 str0" d="M1442 9737c10,-27 19,-53 38,-70 18,-16 44,-23 71,-28 18,-3 35,-5 47,-16 4,-3 6,-6 9,-10"/>
  <path class="fil0 str0" d="M1607 9613c-8,-11 -15,-23 -25,-32 -9,-11 -21,-19 -36,-25 -21,-8 -49,-10 -61,6 -2,2 -3,4 -5,7"/>
  <path class="fil0 str0" d="M1480 9569c9,-25 18,-49 35,-66 19,-18 47,-26 68,-44 6,-5 11,-12 16,-18 8,-11 14,-22 17,-35 3,-9 4,-19 10,-25 4,-5 11,-8 18,-11"/>
  <path class="fil0 str0" d="M1644 9370c-14,-8 -28,-16 -44,-21 -32,-10 -70,-6 -98,11 -19,12 -34,31 -48,49"/>
  <path class="fil0 str0" d="M1454 9409c7,-24 13,-48 29,-63 19,-17 51,-22 71,-39 17,-13 26,-34 30,-56 2,-15 2,-30 -4,-41 -5,-9 -14,-16 -23,-23"/>
  <path class="fil0 str0" d="M1557 9187c-4,11 -9,21 -16,25 -10,6 -27,-2 -41,-3 -17,-2 -32,4 -47,10 -22,11 -43,25 -59,43 -11,12 -21,27 -25,42 -3,9 -4,18 -5,27"/>
  <path class="fil0 str0" d="M1364 9331c-6,-11 -11,-21 -15,-31 -6,-20 -3,-39 9,-68 5,-12 12,-27 6,-30 -5,-2 -20,3 -26,-2 -1,-2 -2,-4 -3,-6 -11,-33 41,-47 70,-75 36,-37 34,-99 3,-132 -23,-25 -63,-33 -99,-26 -31,6 -59,24 -78,47 -21,25 -32,58 -32,96 1,31 8,66 34,74 6,2 13,3 18,6 7,5 11,15 8,25 -4,11 -16,23 -21,19 -9,-5 -3,-42 -9,-40 -2,1 -6,6 -9,12 -12,17 -25,27 -29,41 -7,21 6,51 10,78 2,14 2,27 2,39"/>
  <path class="fil0 str0" d="M785 11609c-12,-23 -23,-46 -35,-69 -30,-57 -65,-112 -93,-170 -36,-76 -61,-159 -61,-243 0,-16 1,-31 -1,-46 -3,-27 -12,-53 -21,-79"/>
  <path class="fil0 str0" d="M1203 9358c-8,12 -16,24 -24,24 -12,0 -25,-29 -23,-49 2,-14 10,-23 12,-36 2,-15 -4,-33 -17,-42 -4,-4 -10,-6 -15,-8"/>
  <path class="fil0 str0" d="M1136 9247c2,14 4,27 -3,34 -3,3 -8,4 -12,6"/>
  <path class="fil0 str0" d="M1121 9287c2,-15 4,-30 4,-46 1,-13 0,-26 -6,-37 -4,-8 -11,-14 -14,-22 -2,-3 -2,-6 -3,-10"/>
  <path class="fil0 str0" d="M1102 9172c-10,9 -21,17 -28,28 -11,17 -12,40 -13,61 0,9 0,17 0,25"/>
  <path class="fil0 str0" d="M1061 9286c-2,-7 -4,-13 -7,-19 -3,-5 -7,-11 -9,-16 -1,-4 -2,-9 -2,-14 0,-2 1,-5 1,-8"/>
  <path class="fil0 str0" d="M1044 9229c-14,35 -29,70 -39,106 -6,23 -11,47 -14,71 -5,53 1,106 7,159"/>
  <path class="fil0 str0" d="M998 9565c0,-4 -1,-8 -4,-10 -2,-1 -5,-1 -8,-2 -11,-2 -20,-10 -24,-20 -1,-3 -2,-6 -3,-10"/>
  <path class="fil0 str0" d="M959 9523c-12,27 -25,54 -31,83 -8,37 -5,76 -3,116"/>
  <path class="fil0 str0" d="M925 9722c-2,-7 -4,-13 -9,-18 -8,-9 -22,-14 -26,-24 -3,-6 -2,-13 -1,-21"/>
  <path class="fil0 str0" d="M889 9659c-15,51 -31,101 -46,152 -14,48 -26,97 -33,146 -8,54 -7,109 -7,165"/>
  <path class="fil0 str0" d="M803 10122c-8,-21 -15,-42 -26,-39 -4,1 -10,8 -15,14"/>
  <path class="fil0 str0" d="M730 10145c-28,60 -57,120 -81,182 -27,70 -48,142 -61,215 -11,61 -18,124 -18,186 -1,51 3,102 7,153"/>
  <path class="fil0 str0" d="M1404 11585c-62,-76 -123,-151 -166,-236 -32,-63 -54,-131 -69,-202 -18,-89 -25,-183 0,-267 13,-41 34,-81 55,-120"/>
  <path class="fil0 str0" d="M1265 11515c-58,-106 -117,-212 -150,-325 -54,-184 -42,-386 -12,-581 18,-118 43,-233 90,-341 26,-60 59,-117 92,-175"/>
  <path class="fil0 str0" d="M890 10415c6,-45 12,-91 33,-129 15,-28 38,-51 56,-78 9,-13 16,-27 23,-41 3,-7 7,-15 10,-23"/>
  <path class="fil0 str0" d="M1012 10144c-17,-11 -34,-22 -49,-19 -14,3 -25,18 -37,33"/>
  <path class="fil0 str0" d="M926 10158c6,-33 12,-65 30,-90 20,-28 55,-46 75,-74 18,-24 26,-56 28,-86 1,-24 0,-48 -2,-71"/>
  <path class="fil0 str0" d="M1423 9445c-11,24 -23,49 -35,73"/>
  <path class="fil0 str0" d="M1297 9450c5,-32 10,-63 13,-95 1,-26 1,-53 1,-79"/>
  <path class="fil0 str0" d="M1490 9209c1,-9 3,-18 4,-27 13,-71 26,-142 37,-213 64,-415 70,-830 42,-1263 -23,-365 -72,-744 -116,-1061 -38,-276 -74,-505 -168,-910 -28,-120 -61,-255 -94,-391"/>
  <path class="fil0 str0" d="M1596 9711c22,-58 44,-115 63,-174 64,-193 97,-396 120,-600 42,-377 46,-756 28,-1133 -18,-380 -60,-759 -117,-1136 -58,-377 -131,-752 -207,-1127 -48,-235 -97,-469 -129,-706 -7,-51 -13,-103 -18,-154"/>
  <path class="fil0 str0" d="M1146 9251c3,-15 6,-30 9,-45 19,-100 38,-200 52,-301 33,-227 43,-459 45,-688 3,-431 -22,-856 -73,-1291 -52,-450 -132,-911 -229,-1318 -39,-162 -80,-316 -131,-517 -34,-136 -72,-294 -111,-454"/>
  <path class="fil0 str0" d="M1168 2863c6,12 13,23 22,31 28,21 82,9 106,-21 14,-17 19,-39 14,-58 -4,-21 -19,-39 -36,-51 -28,-19 -63,-25 -96,-20 -64,7 -123,49 -157,103 -39,61 -45,136 -32,211 14,77 48,153 124,179 61,22 150,10 171,-43 17,-42 -9,-109 -58,-128 -28,-11 -65,-5 -81,18 -11,16 -13,39 -3,57 8,14 23,24 40,21 17,-4 35,-20 31,-33 -1,-5 -6,-9 -10,-12"/>
  <path class="fil0 str0" d="M1168 2863c-3,-11 -7,-23 -4,-34 4,-19 29,-35 54,-33 18,2 36,13 38,28 2,8 -2,17 -5,26"/>
  <path class="fil0 str0" d="M1165 2853c-19,13 -36,27 -49,44 -20,26 -29,60 -33,96 -4,40 -2,83 21,110 9,10 20,18 33,25"/>
  <path class="fil0 str0" d="M1086 2753c-19,-3 -39,-6 -58,-6 -45,-1 -89,11 -133,23"/>
  <path class="fil0 str0" d="M895 2770c-9,-8 -18,-15 -29,-18 -13,-4 -30,0 -44,4 -8,3 -14,5 -21,8"/>
  <path class="fil0 str0" d="M801 2764c-13,-5 -25,-10 -37,-10 -42,-2 -74,51 -94,100 -23,57 -29,109 -28,160 1,54 11,108 36,167 10,23 23,47 43,53 10,2 22,0 34,-2"/>
  <path class="fil0 str0" d="M621 2876c-18,6 -37,11 -52,22 -22,14 -37,40 -44,65 -8,32 -4,65 8,97 4,13 9,24 17,32 12,11 32,13 51,15"/>
  <line class="fil0 str0" x1="1452" y1="2876" x2="1293" y2= "2876" />
  <line class="fil0 str0" x1="1176" y1="2876" x2="1135" y2= "2876" />
  <line class="fil0 str0" x1="662" y1="2876" x2="621" y2= "2876" />
  <line class="fil0 str0" x1="702" y1="2793" x2="621" y2= "2793" />
  <line class="fil0 str0" x1="1139" y1="2753" x2="1064" y2= "2753" />
  <line class="fil0 str0" x1="679" y1="2753" x2="621" y2= "2793" />
  <line class="fil0 str0" x1="621" y1="2793" x2="621" y2= "2876" />
  <line class="fil0 str0" x1="1613" y1="3107" x2="1273" y2= "3107" />
  <line class="fil0 str0" x1="1136" y1="3107" x2="1108" y2= "3107" />
  <line class="fil0 str0" x1="654" y1="3107" x2="601" y2= "3107" />
  <line class="fil0 str0" x1="1591" y1="3166" x2="1290" y2= "3166" />
  <line class="fil0 str0" x1="1027" y1="3166" x2="1001" y2= "3166" />
  <line class="fil0 str0" x1="672" y1="3166" x2="600" y2= "3166" />
  <line class="fil0 str0" x1="600" y1="3166" x2="600" y2= "3107" />
  <path class="fil0 str0" d="M991 3142c8,19 16,39 29,55 16,18 39,29 54,49 12,15 19,35 17,54 -1,15 -8,29 -18,41 -8,10 -19,18 -25,29 -4,8 -7,17 -9,26"/>
  <path class="fil0 str0" d="M1039 3396c-23,-5 -46,-10 -55,-26 -4,-8 -5,-18 -6,-29"/>
  <path class="fil0 str0" d="M978 3341c4,19 8,39 1,54 -8,19 -32,32 -56,38 -16,5 -31,6 -45,12 -9,5 -18,11 -27,17"/>
  <path class="fil0 str0" d="M851 3462c-8,-15 -17,-30 -21,-48 -4,-20 0,-44 11,-61 3,-5 6,-9 10,-13"/>
  <path class="fil0 str0" d="M851 3340c-11,4 -21,8 -30,14 -11,7 -21,18 -24,30 -1,2 -1,5 -1,7"/>
  <path class="fil0 str0" d="M796 3391c-16,-10 -32,-20 -41,-35 -11,-19 -11,-45 -1,-63 2,-4 5,-7 7,-11 4,-6 7,-13 9,-20 4,-13 4,-27 0,-39 -3,-13 -9,-24 -15,-36"/>
  <path class="fil0 str0" d="M786 2851c25,-3 50,-7 69,2 35,16 46,74 46,121 -1,22 -4,42 -9,62 -5,18 -11,37 -23,54 -16,22 -42,41 -66,42 -38,1 -70,-42 -87,-88 -17,-43 -21,-88 9,-116 21,-19 59,-31 79,-18 12,8 18,24 23,42 6,22 12,47 -1,59 -5,4 -13,7 -21,10"/>
  <path class="fil0 str0" d="M1554 2876c-18,6 -36,11 -52,22 -21,14 -37,40 -44,65 -8,32 -3,65 8,97 4,13 9,24 18,32 12,11 31,13 50,15"/>
  <line class="fil0 str0" x1="1595" y1="2876" x2="1554" y2= "2876" />
  <line class="fil0 str0" x1="1636" y1="2793" x2="1554" y2= "2793" />
  <line class="fil0 str0" x1="1612" y1="2753" x2="1554" y2= "2793" />
  <line class="fil0 str0" x1="1554" y1="2793" x2="1554" y2= "2876" />
  <line class="fil0 str0" x1="1587" y1="3107" x2="1534" y2= "3107" />
  <line class="fil0 str0" x1="1605" y1="3166" x2="1533" y2= "3166" />
  <line class="fil0 str0" x1="1533" y1="3166" x2="1533" y2= "3107" />
  <line class="fil0 str0" x1="1612" y1="2753" x2="1612" y2= "2610" />
  <path class="fil0 str0" d="M1612 2610c27,-36 53,-72 75,-109 129,-220 116,-500 107,-766 -4,-101 -7,-200 -9,-298"/>
  <line class="fil0 str0" x1="741" y1="2753" x2="741" y2= "2610" />
  <path class="fil0 str0" d="M741 2610c27,-36 53,-72 75,-109 34,-58 59,-121 76,-186"/>
  <path class="fil0 str0" d="M1674 916c-37,-19 -60,-76 -57,-130 5,-88 76,-170 145,-167 56,2 110,61 133,121 31,79 10,160 -32,233 -41,71 -102,134 -175,152 -52,13 -110,3 -164,-17 -87,-33 -162,-92 -206,-168 -19,-32 -32,-66 -45,-101"/>
  <path class="fil0 str0" d="M1552 1181c41,-25 82,-50 114,-42 23,6 42,30 64,60 14,21 31,46 18,57 -6,6 -18,8 -24,14 -10,8 -8,24 -6,39"/>
  <path class="fil0 str0" d="M1718 1309c6,-5 13,-10 20,-12 20,-8 46,-1 64,-11 9,-4 17,-13 24,-22"/>
  <path class="fil0 str0" d="M1826 1264c3,40 7,80 -8,120 -15,38 -45,75 -82,79 -11,2 -23,0 -36,-2"/>
  <path class="fil0 str0" d="M1700 1461c11,6 21,11 29,20 19,19 26,51 17,80 -4,11 -9,21 -6,30 1,5 6,10 10,14"/>
  <path class="fil0 str0" d="M1750 1605c-19,2 -37,3 -57,5 -15,2 -32,4 -46,-1 -12,-3 -23,-12 -34,-20"/>
  <path class="fil0 str0" d="M1613 1589c32,26 65,53 81,88 13,30 14,66 12,99 -1,35 -5,66 -7,102 -1,21 -1,44 11,59 4,5 10,10 15,14"/>
  <path class="fil0 str0" d="M1725 1951c-21,11 -43,21 -67,28 -25,6 -54,8 -76,-3 -10,-6 -19,-14 -29,-22"/>
  <path class="fil0 str0" d="M1553 1954c23,30 46,59 48,91 4,45 -34,94 -37,143 -1,15 2,30 4,45"/>
  <path class="fil0 str0" d="M1568 2233c-18,-5 -36,-9 -49,-18 -21,-15 -32,-41 -43,-68"/>
  <path class="fil0 str0" d="M1476 2147c8,38 16,76 1,108 -14,31 -50,56 -54,89 0,7 0,13 0,20"/>
  <path class="fil0 str0" d="M1423 2364c-21,-22 -43,-44 -54,-69 -14,-36 -8,-79 -2,-122"/>
  <path class="fil0 str0" d="M1367 2173c0,64 0,128 -34,165 -22,24 -59,36 -100,45 -35,8 -73,14 -86,40 -4,8 -5,19 -7,29"/>
  <path class="fil0 str0" d="M1140 2452c-29,-16 -59,-32 -79,-59 -11,-16 -19,-36 -18,-54 2,-17 11,-32 16,-48 3,-13 3,-27 4,-40"/>
  <path class="fil0 str0" d="M1063 2251c-8,20 -16,41 -33,49 -17,9 -41,6 -54,18 -8,8 -12,21 -13,33 0,12 2,23 5,33"/>
  <path class="fil0 str0" d="M968 2384c-21,-22 -41,-45 -53,-71 -11,-25 -15,-54 -16,-82 -1,-19 0,-38 5,-55 8,-27 27,-51 45,-74"/>
  <path class="fil0 str0" d="M1720 889c-27,18 -55,36 -82,36 -53,0 -104,-65 -118,-128 -10,-47 2,-92 27,-128 13,-19 30,-35 49,-46 29,-16 65,-22 98,-17 16,3 31,8 46,15"/>
  <path class="fil0 str0" d="M721 518c-35,31 -71,62 -94,100 -51,79 -49,188 -36,289 7,59 19,116 57,161 31,35 79,64 124,58 12,-2 23,-6 35,-10"/>
  <path class="fil0 str0" d="M809 1100c-9,27 -18,54 -22,82 -3,26 -3,53 4,77 7,22 20,42 32,62"/>
  <path class="fil0 str0" d="M823 1321c-22,16 -45,33 -56,55 -16,33 -9,79 7,115 11,23 27,43 42,63"/>
  <path class="fil0 str0" d="M816 1554c26,95 53,191 67,290 9,65 14,130 1,193 -6,35 -18,69 -25,105 -6,34 -6,70 2,103 6,25 18,48 31,70"/>
  <path class="fil0 str0" d="M1043 3341c8,17 16,34 30,47 22,20 60,27 74,49 12,19 6,50 -2,76 -4,14 -9,27 -6,39 1,10 7,19 13,29"/>
  <path class="fil0 str0" d="M1152 3581c-25,3 -51,7 -72,-2 -11,-4 -20,-11 -30,-18"/>
  <path class="fil0 str0" d="M1050 3561c9,14 18,29 11,41 -2,4 -6,7 -10,10 -12,8 -29,7 -42,2 -9,-4 -16,-9 -24,-15"/>
  <path class="fil0 str0" d="M1076 3599c5,19 10,38 5,58 -2,11 -8,22 -17,26 -5,3 -13,3 -20,6 -4,2 -9,5 -10,9 -1,2 0,5 0,7"/>
  <path class="fil0 str0" d="M1034 3705c-10,-4 -20,-7 -26,-14"/>
  <path class="fil0 str0" d="M1004 3662c4,19 7,39 -2,54 -3,4 -8,8 -12,12 -7,6 -14,10 -24,14 -14,7 -33,12 -35,26 0,2 0,5 0,8"/>
  <path class="fil0 str0" d="M931 3776c-22,-14 -45,-28 -52,-50 -5,-14 -3,-32 1,-47 3,-13 8,-25 13,-37"/>
  <path class="fil0 str0" d="M893 3642c-16,12 -32,24 -30,40 0,2 0,4 1,6"/>
  <path class="fil0 str0" d="M864 3688c-19,-12 -37,-25 -42,-44 -2,-7 -2,-16 -1,-24 1,-11 2,-21 4,-32"/>
  <path class="fil0 str0" d="M1411 2030c-21,-36 -42,-73 -65,-109 -35,-54 -74,-107 -125,-146 -43,-33 -93,-55 -140,-87 -37,-27 -71,-60 -87,-100 -8,-21 -12,-44 -16,-66"/>
  <path class="fil0 str0" d="M1446 1932c-29,-50 -57,-99 -97,-138 -40,-39 -90,-68 -140,-97 -35,-21 -70,-43 -95,-72 -16,-18 -28,-39 -40,-60"/>
  <path class="fil0 str0" d="M1557 1791c-13,-16 -25,-32 -39,-46 -41,-45 -94,-79 -147,-110 -39,-22 -79,-44 -119,-64 -44,-23 -90,-45 -135,-66"/>
  <path class="fil0 str0" d="M1554 1587c-48,-8 -97,-16 -147,-25 -64,-12 -132,-27 -182,-66 -15,-12 -29,-27 -43,-42"/>
  <path class="fil0 str0" d="M1273 839c-6,-33 -13,-67 -14,-101 0,-55 17,-111 51,-156 13,-18 29,-34 47,-45 15,-9 31,-14 48,-19"/>
  <path class="fil0 str0" d="M1200 518c-44,19 -84,41 -111,75 -36,45 -49,112 -53,175 -3,38 -2,75 7,109 7,24 18,46 28,69"/>
  <path class="fil0 str0" d="M966 518c-26,10 -49,23 -68,40 -53,49 -67,138 -66,220 0,36 3,70 11,102"/>
  <path class="fil0 str0" d="M842 518c-36,25 -71,50 -94,84 -34,51 -40,122 -36,189 2,54 11,104 27,154 7,22 15,43 26,62"/>
  <path class="fil0 str0" d="M1058 1256c21,-2 41,-4 51,5 14,14 8,50 -10,71 -24,29 -71,28 -99,7 -42,-31 -43,-103 -10,-146 36,-46 111,-59 154,-34 43,26 53,91 51,152 -2,68 -19,130 -68,168 -44,35 -115,50 -163,26 -29,-15 -50,-44 -70,-74"/>
  <path class="fil0 str0" d="M894 1431c0,16 0,32 -6,47 -9,23 -34,44 -56,43 -21,-1 -40,-22 -50,-43 -9,-20 -12,-39 -8,-58 4,-18 14,-34 23,-51"/>
  <path class="fil0 str0" d="M981 1262c-9,-11 -17,-22 -29,-28 -9,-4 -19,-6 -28,-4 -15,2 -28,11 -40,20"/>
  <path class="fil0 str0" d="M893 1254c-5,-10 -10,-20 -14,-31 -8,-20 -14,-42 -31,-54 -8,-6 -20,-10 -31,-8 -7,1 -14,4 -21,7"/>
  <path class="fil0 str0" d="M1247 1195c27,-8 53,-16 80,-22 32,-7 64,-11 97,-3 14,3 28,8 41,5 9,-2 18,-8 26,-14"/>
  <path class="fil0 str0" d="M1247 1195c12,-21 23,-42 43,-59 24,-20 60,-36 62,-60 0,-14 -12,-32 -24,-47 -16,-21 -32,-37 -47,-59 -6,-9 -12,-20 -10,-29 1,-5 4,-9 7,-14"/>
  <path class="fil0 str0" d="M1278 927c-37,1 -73,2 -96,24 -15,16 -24,41 -24,65 0,7 1,14 1,21"/>
  <path class="fil0 str0" d="M1159 1037c-8,-14 -16,-27 -17,-42 -1,-16 8,-34 6,-50 -4,-24 -35,-44 -37,-68 -1,-8 2,-16 4,-24"/>
  <path class="fil0 str0" d="M1115 853c-12,0 -24,1 -36,4 -33,6 -67,24 -80,53 -6,14 -7,31 -7,49"/>
  <path class="fil0 str0" d="M993 966c0,-3 0,-5 -1,-7 -3,-13 -15,-22 -21,-34 -11,-25 6,-59 -9,-85 -9,-14 -29,-25 -26,-40 0,-3 1,-5 2,-8"/>
  <path class="fil0 str0" d="M938 792c-21,13 -42,26 -62,45 -26,25 -49,60 -43,91 3,18 16,34 20,55 1,5 2,11 5,14 2,3 6,4 9,5"/>
  <path class="fil0 str0" d="M867 1002c-16,-8 -32,-16 -44,-30 -6,-8 -11,-17 -13,-28 0,-5 0,-11 0,-16"/>
  <path class="fil0 str0" d="M810 928c-9,13 -18,26 -27,42 -16,27 -31,61 -21,86 7,18 27,31 47,44"/>
  <path class="fil0 str0" d="M1072 2751c15,-5 29,-10 40,-21 6,-6 11,-14 14,-22 4,-11 5,-23 6,-36 0,-10 2,-21 9,-27 2,-2 4,-3 6,-4"/>
  <path class="fil0 str0" d="M1147 2641c-16,-3 -33,-6 -51,-3 -14,3 -29,10 -37,21 -4,5 -6,11 -8,17"/>
  <path class="fil0 str0" d="M1051 2676c4,-14 9,-28 11,-44 1,-9 2,-18 7,-25 2,-4 7,-7 11,-9 3,-2 5,-3 8,-4"/>
  <path class="fil0 str0" d="M1088 2594c-18,-3 -36,-6 -54,0 -6,2 -12,4 -15,10 -1,2 -2,5 -3,8"/>
  <path class="fil0 str0" d="M1016 2612c3,-9 7,-18 11,-27 4,-10 10,-20 9,-29 -1,-7 -6,-14 -9,-21 -2,-3 -3,-6 -4,-10"/>
  <path class="fil0 str0" d="M1023 2525c-11,9 -22,18 -34,23 -14,5 -31,4 -48,9 -23,6 -47,23 -53,45 -3,9 -3,19 -3,29"/>
  <path class="fil0 str0" d="M885 2631c-5,-10 -10,-20 -20,-25 -7,-3 -16,-4 -18,-10 -1,-1 -1,-3 -2,-4"/>
  <path class="fil0 str0" d="M845 2592c-2,12 -5,25 -12,38 -5,11 -14,23 -11,33 1,3 3,6 5,9"/>
  <path class="fil0 str0" d="M827 2672c-9,-4 -18,-8 -23,-15 -3,-3 -5,-8 -6,-12"/>
  <path class="fil0 str0" d="M798 2645c-6,9 -12,19 -18,36 -5,13 -10,31 0,31 0,0 1,0 1,0 17,0 9,20 -4,44"/>
  <path class="fil0 str0" d="M1639 1982c2,61 3,122 -5,181 -15,108 -59,212 -116,305 -31,51 -66,99 -101,147"/>
  <path class="fil0 str0" d="M1417 2615c-45,0 -91,0 -136,0"/>
  <path class="fil0 str0" d="M1281 2615c-23,-36 -47,-72 -81,-96 -47,-34 -114,-46 -172,-30 -27,8 -52,22 -71,41 -9,9 -17,19 -24,29"/>
  <path class="fil0 str0" d="M1598 1981c1,54 1,107 -6,158 -9,66 -31,129 -55,195 -30,84 -63,172 -130,228 -6,5 -13,10 -19,14"/>
  <path class="fil0 str0" d="M1388 2576c-30,1 -60,2 -90,2"/>
  <path class="fil0 str0" d="M1298 2578c-21,-27 -43,-54 -70,-75 -26,-21 -58,-35 -91,-42 -36,-8 -73,-7 -110,0 -32,6 -65,17 -86,38 -13,13 -22,29 -31,46"/>
  <path class="fil0 str0" d="M953 2368c-6,20 -13,39 -22,58 -19,43 -45,82 -72,121 -6,9 -12,18 -17,26"/>
  <path class="fil0 str0" d="M842 2573c-9,12 -17,24 -26,36"/>
  <path class="fil0 str0" d="M816 2609c9,1 17,1 25,1"/>
  <path class="fil0 str0" d="M1199 4116c17,3 35,6 46,1 23,-11 20,-59 5,-95 -12,-28 -32,-48 -53,-51 -32,-5 -68,28 -88,66 -34,62 -23,134 20,183 31,33 77,56 118,50 46,-7 86,-52 107,-99 39,-88 10,-183 1,-276 -10,-107 7,-212 31,-316 17,-74 38,-148 72,-215 19,-37 41,-71 70,-101 12,-14 25,-26 40,-35 12,-7 25,-12 38,-16"/>
  <path class="fil0 str0" d="M1227 4406c14,52 28,105 8,119 -25,17 -102,-23 -125,-76 -26,-58 16,-133 64,-150 59,-22 129,40 166,109 71,133 18,291 -91,374 -92,70 -225,85 -277,171 -17,29 -25,65 -32,102"/>
  <path class="fil0 str0" d="M1215 4529c6,26 10,52 2,73 -14,43 -75,68 -126,94 -60,30 -108,63 -149,107 -38,40 -71,88 -87,141 -13,40 -16,82 -12,123 2,21 6,41 10,62"/>
  <path class="fil0 str0" d="M1125 4848c32,30 63,61 84,97 45,76 50,175 36,269 -8,54 -22,107 -56,145 -14,16 -32,30 -50,44"/>
  <path class="fil0 str0" d="M1004 4916c23,24 44,48 62,75 36,55 56,121 65,188 0,1 1,2 1,3"/>
  <path class="fil0 str0" d="M996 4754c-32,-28 -64,-57 -97,-82 -16,-12 -32,-24 -48,-35"/>
  <path class="fil0 str0" d="M816 4611c-24,-19 -47,-39 -68,-63 -17,-19 -32,-40 -35,-64 -1,-8 0,-17 0,-25"/>
  <path class="fil0 str0" d="M713 4459c2,17 4,33 16,40 9,4 23,3 32,-2 20,-11 17,-40 12,-67 -7,-43 -19,-77 -48,-98 -11,-8 -24,-14 -37,-15 -20,-2 -40,6 -54,18 -50,41 -35,128 -5,193 29,63 72,105 118,145 41,34 84,67 125,103 17,15 35,31 52,47"/>
  <path class="fil0 str0" d="M940 5055c-12,10 -21,20 -24,33 -5,20 8,46 7,69 0,19 -7,36 -18,50 -8,10 -17,19 -27,27"/>
  <path class="fil0 str0" d="M878 5234c17,17 33,35 55,36 9,1 20,-2 28,-8 4,-3 8,-7 11,-11"/>
  <path class="fil0 str0" d="M972 5251c-15,23 -29,47 -28,69 1,21 17,40 32,63 9,14 18,30 12,40 -2,4 -6,6 -9,9"/>
  <path class="fil0 str0" d="M979 5432c28,-4 55,-8 78,-24 17,-12 31,-31 36,-51 4,-20 -2,-41 -8,-61 -5,-15 -11,-29 -17,-43"/>
  <path class="fil0 str0" d="M1065 5254c8,0 16,1 21,5 5,4 6,13 8,22 3,17 10,33 23,40 7,4 15,6 24,7"/>
  <path class="fil0 str0" d="M1141 5328c0,-9 1,-18 2,-27 2,-14 7,-27 9,-41 3,-15 4,-30 -1,-44 -5,-18 -18,-33 -31,-48"/>
  <path class="fil0 str0" d="M1031 5421c-7,17 -14,35 -17,54 -6,38 1,80 18,119 9,23 22,45 19,68 -1,6 -3,13 -5,19"/>
  <path class="fil0 str0" d="M1046 5681c24,-10 49,-20 58,-39 8,-17 4,-41 -2,-62 -6,-17 -13,-32 -20,-46"/>
  <path class="fil0 str0" d="M1088 5371c32,12 61,26 83,49 20,22 33,52 36,83 2,29 -4,58 7,83 6,13 16,24 26,35 1,0 1,1 2,1"/>
  <path class="fil0 str0" d="M1242 5622c-38,13 -76,25 -98,5 -11,-10 -18,-27 -21,-45 -3,-17 -2,-33 -1,-50"/>
  <path class="fil0 str0" d="M1082 5664c2,23 12,46 25,62 15,17 35,26 47,43 10,14 14,34 12,51 -1,11 -4,20 -6,30"/>
  <path class="fil0 str0" d="M1160 5850c21,-17 42,-34 53,-57 14,-29 10,-69 -3,-101 -6,-13 -13,-26 -20,-38 -4,-5 -7,-11 -11,-17"/>
  <path class="fil0 str0" d="M853 5129c5,15 10,30 15,45 4,11 9,22 16,30 3,5 8,9 13,12"/>
  <path class="fil0 str0" d="M676 4123c-15,-29 -31,-58 -20,-88 7,-20 27,-41 43,-44 28,-4 44,47 54,92 4,20 8,38 9,56"/>
  <path class="fil0 str0" d="M1444 3212c-20,21 -40,42 -57,64 -48,63 -78,140 -100,218 -34,116 -51,236 -43,353 4,53 14,105 25,159 2,9 5,18 4,27 0,12 -5,23 -12,34"/>
  <path class="fil0 str0" d="M864 3330c-36,40 -71,80 -99,125 -38,62 -61,135 -77,208 -19,83 -30,166 -33,250 -1,31 0,61 1,91 1,9 1,17 2,26"/>
  <path class="fil0 str0" d="M979 3736c17,13 31,26 39,42 23,46 -2,110 -6,168 -2,29 1,56 6,84 5,25 11,51 23,73 6,11 13,21 20,32 3,5 6,10 9,15"/>
  <path class="fil0 str0" d="M1070 4150c-18,7 -37,14 -50,6 -7,-4 -13,-13 -19,-21"/>
  <path class="fil0 str0" d="M877 3718c-14,3 -27,7 -38,13 -36,19 -60,62 -68,104 -11,55 2,108 4,161 0,25 -2,50 -1,76 0,14 2,27 -1,40 -4,18 -15,33 -25,49"/>
  <path class="fil0 str0" d="M748 4161c10,4 20,9 29,7 8,-2 15,-8 21,-15 7,-7 13,-14 18,-21"/>
  <path class="fil0 str0" d="M1001 4135c2,22 5,44 -9,56 -9,7 -22,10 -28,18 -6,8 -3,21 0,34"/>
  <path class="fil0 str0" d="M964 4243c-18,-6 -36,-12 -44,-26 -3,-5 -4,-12 -5,-19 -1,-8 -1,-16 -1,-24"/>
  <path class="fil0 str0" d="M914 4174c7,24 14,47 3,63 -6,8 -16,15 -23,23 -7,9 -11,21 -14,33"/>
  <path class="fil0 str0" d="M880 4293c-17,-11 -34,-22 -42,-39 -7,-13 -8,-30 -4,-45 1,-6 3,-11 5,-17"/>
  <path class="fil0 str0" d="M839 4192c-5,15 -10,30 -22,36 -13,6 -35,2 -46,11 -6,5 -9,14 -11,23"/>
  <path class="fil0 str0" d="M760 4262c-2,-26 -4,-52 8,-72 5,-10 13,-18 20,-27 5,-9 9,-19 13,-28"/>
  <path class="fil0 str0" d="M961 4219c6,4 12,9 16,14 34,36 31,99 29,151 -2,31 -3,58 1,92 3,22 8,46 26,54 3,1 8,2 13,3"/>
  <path class="fil0 str0" d="M1046 4533c-24,13 -48,27 -68,21 -18,-5 -32,-26 -44,-46 -16,-26 -28,-51 -28,-77 0,-12 2,-23 4,-35"/>
  <path class="fil0 str0" d="M910 4396c-5,10 -10,19 -19,19 -2,0 -4,0 -6,-1"/>
  <path class="fil0 str0" d="M885 4414c0,-9 0,-19 0,-29 1,-10 1,-21 1,-31"/>
  <path class="fil0 str0" d="M832 4220c-12,7 -24,13 -30,23 -18,24 -6,65 -2,100 2,23 1,43 2,65 2,28 6,59 -5,84 -6,14 -17,27 -28,39 -4,4 -8,9 -12,13"/>
  <path class="fil0 str0" d="M757 4544c18,2 36,3 55,0"/>
  <path class="fil0 str0" d="M972 4552c2,8 1,15 -2,22 -4,9 -13,16 -17,27 -5,12 -4,29 5,35 2,2 5,3 8,4"/>
  <path class="fil0 str0" d="M961 4646c-25,1 -51,1 -64,-15 -6,-8 -9,-20 -9,-31 -1,-12 0,-23 1,-34"/>
  <path class="fil0 str0" d="M889 4566c-4,16 -7,32 -14,48 -3,6 -6,12 -11,16 -11,10 -30,11 -45,8 -5,0 -9,-1 -13,-2"/>
  <path class="fil0 str0" d="M806 4636c5,-11 10,-23 13,-35 2,-9 2,-18 0,-27 -1,-6 -4,-11 -5,-16 -1,-5 -2,-9 -2,-14"/>
  <path class="fil0 str0" d="M982 4555c-2,20 -4,40 -4,60 1,25 6,49 14,72 6,19 14,36 22,54"/>
  <path class="fil0 str0" d="M896 4629c0,7 0,14 1,20 2,9 4,18 7,26"/>
  <path class="fil0 str0" d="M938 1539c5,41 9,82 28,114 30,51 95,80 137,127 36,39 55,92 59,147 2,42 -4,86 -29,117 -8,10 -16,18 -25,26"/>
  <path class="fil0 str0" d="M848 1555c7,18 14,36 21,54 11,29 24,57 42,82 27,36 67,66 80,105 11,32 5,70 -3,106 -7,28 -16,54 -24,80"/>
  <path class="fil0 str0" d="M871 1671c6,20 11,40 17,61 15,48 33,95 38,144 4,39 1,78 -3,117 -2,24 -5,48 -11,72 -3,14 -8,27 -12,41"/>
  <path class="fil0 str0" d="M957 2295c4,-14 9,-28 16,-40 12,-22 31,-39 52,-53 15,-10 30,-18 44,-30 10,-8 20,-17 26,-29 4,-8 6,-17 9,-26"/>
  <path class="fil0 str0" d="M905 2339c-1,-6 -1,-12 0,-17 1,-5 5,-10 8,-15"/>
  <path class="fil0 str0" d="M991 1980c-4,22 -7,43 -16,62 -8,17 -19,32 -31,46 -16,18 -33,36 -45,57 -13,20 -21,44 -22,68 -2,28 9,57 19,85"/>
  <path class="fil0 str0" d="M910 2545c22,-30 44,-60 60,-93 12,-25 20,-52 25,-80 3,-19 6,-38 8,-57"/>
  <path class="fil0 str0" d="M1215 5790c17,72 35,143 52,215 52,226 93,454 129,683 37,239 67,479 89,720 18,208 30,416 35,624 4,195 3,390 -11,584 -8,114 -21,227 -39,339 -13,80 -29,159 -44,239 -2,16 -5,31 -8,46"/>
  <path class="fil0 str0" d="M1067 5672c6,23 12,45 17,68 25,97 50,193 74,291 23,96 45,193 64,291 23,114 42,229 60,344 33,212 62,424 86,637 29,260 51,522 58,784 6,217 2,436 -24,652 -8,69 -18,137 -30,205 -1,7 -2,13 -3,20"/>
  <path class="fil0 str0" d="M1309 10104c2,-13 3,-26 1,-37 -4,-14 -13,-26 -25,-38 -8,-7 -17,-15 -18,-24 0,-4 2,-9 3,-14"/>
  <path class="fil0 str0" d="M1270 9991c-25,24 -51,48 -59,80 -5,20 -3,44 -1,63 5,43 10,65 5,142 0,16 -2,33 -6,28 -1,-1 -2,-3 -3,-4"/>
  <path class="fil0 str0" d="M1203 10327c-5,-3 -10,-6 -14,-10 -10,-12 -5,-32 -2,-49 2,-13 3,-24 3,-35 0,-10 -1,-19 -3,-29 -6,-21 -22,-40 -24,-62 -1,-6 -1,-13 0,-20"/>
  <path class="fil0 str0" d="M1163 10122c-27,34 -53,67 -69,107 -17,40 -23,88 -24,128 0,31 3,57 19,99 6,12 12,26 6,30 -4,2 -14,0 -21,-3 -2,-1 -4,-3 -7,-4"/>
  <path class="fil0 str0" d="M1067 10479c-3,-8 -7,-16 -8,-25 0,-8 2,-16 -3,-21 -2,-3 -6,-4 -8,-6 -3,-2 -5,-5 -7,-8"/>
  <path class="fil0 str0" d="M951 10419c-5,31 -10,62 -14,93 -2,21 -4,42 -5,62 -2,56 5,112 13,168"/>
  <path class="fil0 str0" d="M945 10742c0,4 0,8 -1,10 -3,2 -11,-4 -15,-9 -4,-6 -3,-12 -3,-18 1,-7 2,-14 2,-21 0,-9 -3,-18 -8,-26 -3,-7 -8,-13 -11,-19 -5,-10 -7,-20 -8,-31 0,-8 1,-16 1,-25"/>
  <path class="fil0 str0" d="M902 10603c-13,55 -27,110 -31,165 -7,84 7,171 26,254 28,117 66,227 120,337 35,73 76,146 140,189 20,14 41,24 63,35"/>
  <path class="fil0 str0" d="M1236 11549c-47,-43 -94,-85 -132,-135 -59,-78 -95,-174 -123,-269 -20,-72 -36,-143 -47,-216 -5,-33 -9,-66 -12,-99"/>
  <path class="fil0 str0" d="M938 10624c1,-35 3,-71 10,-106 4,-23 10,-45 21,-65 4,-8 10,-16 14,-25 4,-8 7,-16 8,-25 1,-5 1,-10 1,-15"/>
  <path class="fil0 str0" d="M992 10388c-16,4 -31,9 -47,15 -20,8 -41,19 -52,37 -10,16 -14,37 -9,55 2,5 4,9 6,14"/>
  <path class="fil0 str0" d="M899 10671c-2,-17 -4,-34 5,-45 5,-5 12,-9 16,-15 4,-4 6,-10 7,-16"/>
  <path class="fil0 str0" d="M837 10595c7,18 13,35 16,53 8,47 -9,95 -17,143 -13,84 1,169 22,250 22,86 50,169 81,252 19,51 40,102 67,149 25,42 56,81 87,119"/>
  <path class="fil0 str0" d="M992 11552c-39,-52 -77,-105 -109,-162 -49,-86 -81,-182 -110,-278 -17,-56 -33,-112 -48,-168"/>
  <path class="fil0 str0" d="M1017 10414c10,-73 20,-147 36,-220 18,-89 45,-177 58,-267 8,-58 11,-117 10,-175 -1,-59 -5,-118 -10,-176 -3,-38 -7,-75 -10,-112"/>
  <path class="fil0 str0" d="M1128 10018c19,-67 37,-134 55,-201 17,-59 33,-118 42,-178 7,-41 11,-83 10,-124 0,-32 -2,-63 -4,-94"/>
  <path class="fil0 str0" d="M1188 9971c23,-83 45,-166 79,-245 22,-53 49,-104 76,-155"/>
  <path class="fil0 str0" d="M1239 9957c27,-58 53,-116 85,-174 22,-41 47,-82 84,-107 12,-8 24,-14 36,-21"/>
  <path class="fil0 str0" d="M1236 1418c29,17 58,33 89,41 48,12 102,4 152,13 25,5 49,15 73,26 11,5 23,11 35,16"/>
  <path class="fil0 str0" d="M1253 1309c50,4 99,8 140,31 35,20 64,54 102,65 14,4 28,5 42,4 11,-1 22,-3 33,-6"/>
  <line class="fil0 str0" x1="1604" y1="11836" x2="1604" y2= "13555" />
  <line class="fil0 str0" x1="1665" y1="11641" x2="1665" y2= "11797" />
  <line class="fil0 str0" x1="1702" y1="11609" x2="1665" y2= "11641" />
  <line class="fil0 str0" x1="1604" y1="11836" x2="1665" y2= "11797" />
  <line class="fil0 str0" x1="643" y1="11797" x2="2155" y2= "11797" />
  <line class="fil0 str0" x1="2069" y1="4548" x2="2069" y2= "6760" />
  <line class="fil0 str0" x1="2069" y1="10506" x2="2069" y2= "9313" />
  <line class="fil0 str0" x1="2069" y1="11609" x2="2155" y2= "11641" />
  <polyline class="fil0 str0" points="589,13555 2199,13555 3,13555 3,13875 2195,13875 "/>
  <path class="fil0 str0" d="M762 10097c0,8 0,16 -3,22 -4,6 -11,9 -17,14 -4,4 -8,8 -12,12"/>
  <path class="fil0 str0" d="M574 11002c1,66 6,132 16,201 17,119 48,243 168,406"/>
  <path class="fil0 str0" d="M574 11002c-7,-19 -14,-38 -17,-58 -3,-15 -3,-30 0,-45 1,-7 3,-14 4,-20"/>
  <path class="fil0 str0" d="M561 10879c5,0 10,1 15,3"/>
  <path class="fil0 str0" d="M576 10882c9,4 18,7 24,14 9,8 11,22 14,35"/>
  <path class="fil0 str0" d="M658 10368c-13,53 -26,107 -35,165 -12,85 -18,180 4,243 8,23 19,42 19,87 0,11 -1,25 -4,22 -2,-1 -3,-6 -5,-9 -2,-3 -3,-5 -5,-7"/>
  <path class="fil0 str0" d="M1664 9869c-4,14 -8,27 -12,41"/>
  <path class="fil0 str0" d="M1615 10035c-6,20 -12,40 -18,60"/>
  <path class="fil0 str0" d="M1551 10253c-12,39 -23,79 -33,119"/>
  <path class="fil0 str0" d="M1477 10540c-10,47 -19,94 -27,141 -26,169 -33,339 -8,522 19,132 55,272 151,347 80,63 201,83 308,59 41,-9 81,-26 112,-50 77,-63 99,-182 109,-291 11,-124 6,-235 11,-354 5,-118 20,-244 -31,-352 -30,-65 -84,-124 -152,-147 -74,-25 -166,-8 -227,36 -98,69 -119,203 -137,339 -24,198 -40,399 97,522 44,40 103,71 158,65 76,-8 142,-90 170,-169 27,-80 16,-158 14,-240 -1,-70 4,-143 -34,-204 -23,-36 -61,-67 -101,-70 -44,-2 -90,30 -116,69 -44,64 -34,146 -29,223 3,57 5,111 36,161 17,28 43,54 73,54 20,0 41,-11 52,-28 7,-9 10,-21 13,-32"/>
  <path class="fil0 str0" d="M1308 4361c-2,-39 -5,-78 -7,-117"/>
  <path class="fil0 str0" d="M1371 4570c25,247 67,492 113,736 63,328 134,652 195,978 72,393 129,788 170,1187 47,470 72,945 20,1411 -33,303 -99,602 -181,900"/>
  <path class="fil0 str0" d="M763 4167c-1,30 -10,56 -32,77 -17,18 -43,33 -65,35 -73,9 -94,-126 -102,-229 -9,-110 -4,-185 20,-322 21,-118 55,-284 169,-432"/>
  <path class="fil0 str0" d="M1346 4187c2,90 7,179 14,269"/>
  <path class="fil0 str0" d="M1692 3212c-10,3 -21,5 -31,9 -66,21 -123,62 -163,114 -36,48 -59,105 -77,164 -38,122 -58,248 -68,375"/>
  <path class="fil0 str0" d="M862 3582c-7,6 -14,11 -23,13 -23,4 -58,-23 -55,-43 1,-14 18,-25 33,-31 4,-2 8,-4 12,-5"/>
  <path class="fil0 str0" d="M829 3516c-16,-6 -32,-12 -46,-7 -6,2 -11,5 -16,8"/>
  <path class="fil0 str0" d="M767 3517c2,-26 3,-51 19,-74 6,-10 16,-19 27,-19 4,0 8,1 11,1 3,0 6,-2 8,-3"/>
  <line class="fil0 str0" x1="1139" y1="2753" x2="1086" y2= "2753" />
  <line class="fil0 str0" x1="779" y1="2753" x2="679" y2= "2753" />
  <path class="fil0 str0" d="M871 2611c10,0 21,0 16,0"/>
  <path class="fil0 str0" d="M1781 1292c-2,-70 -4,-140 -5,-209"/>
 </g>
</svg>
