<?xml version="1.0" encoding="UTF-8"?>
<!DOCTYPE svg PUBLIC "-//W3C//DTD SVG 1.1//EN" "http://www.w3.org/Graphics/SVG/1.1/DTD/svg11.dtd">
<!-- Creator: CorelDRAW X8 -->
<svg xmlns="http://www.w3.org/2000/svg" id='model' xml:space="preserve" width="1000px" height="1000px" version="1.1" style="shape-rendering:geometricPrecision; text-rendering:geometricPrecision; image-rendering:optimizeQuality; fill-rule:evenodd; clip-rule:evenodd"
viewBox="0 0 1000 1000"
 xmlns:xlink="http://www.w3.org/1999/xlink">
 <defs>
  <style type="text/css">
   <![CDATA[
    .str0 {stroke:#362D06;stroke-width:2;stroke-linejoin:bevel}
    .fil0 {fill:none}
   ]]>
  </style>
 </defs>
<symbol id="front" viewBox="248 2 504 996">
 <line class="fil0 str0" x1="249" y1="2" x2="752" y2= "2" />
 <line class="fil0 str0" x1="752" y1="6" x2="249" y2= "6" />
 <line class="fil0 str0" x1="752" y1="25" x2="249" y2= "25" />
 <line class="fil0 str0" x1="752" y1="29" x2="249" y2= "29" />
 <line class="fil0 str0" x1="752" y1="35" x2="249" y2= "35" />
 <line class="fil0 str0" x1="752" y1="5" x2="249" y2= "5" />
 <line class="fil0 str0" x1="365" y1="5" x2="365" y2= "6" />
 <path class="fil0 str0" d="M365 5c-6,-1 -8,-2 -9,-3"/>
 <path class="fil0 str0" d="M365 6c3,1 6,2 9,3 3,0 6,1 8,3 2,1 3,2 5,4 1,2 1,4 1,5 -1,4 -7,3 -12,4 -3,0 -6,0 -8,0"/>
 <line class="fil0 str0" x1="368" y1="25" x2="368" y2= "29" />
 <path class="fil0 str0" d="M368 29c-3,0 -5,1 -7,1 -2,1 -4,2 -5,3 0,1 0,2 -1,2"/>
 <path class="fil0 str0" d="M282 36c1,1 1,1 2,1 0,1 0,1 -1,2"/>
 <path class="fil0 str0" d="M283 39c1,-1 1,-2 2,-2 4,-3 9,-2 13,-1"/>
 <line class="fil0 str0" x1="686" y1="261" x2="686" y2= "871" />
 <line class="fil0 str0" x1="686" y1="871" x2="683" y2= "877" />
 <line class="fil0 str0" x1="683" y1="877" x2="683" y2= "998" />
 <line class="fil0 str0" x1="683" y1="877" x2="752" y2= "877" />
 <line class="fil0 str0" x1="686" y1="871" x2="752" y2= "871" />
 <line class="fil0 str0" x1="752" y1="998" x2="752" y2= "35" />
 <line class="fil0 str0" x1="686" y1="261" x2="752" y2= "261" />
 <path class="fil0 str0" d="M689 261c-6,0 -12,0 -17,0 -12,0 -24,-1 -35,-4 -10,-2 -20,-6 -29,-10 -13,-7 -25,-15 -36,-24 -9,-7 -17,-14 -23,-23 -2,-4 -4,-7 -6,-11 -1,-2 -1,-4 -2,-5"/>
 <path class="fil0 str0" d="M708 223c-9,3 -14,4 -16,5 -6,1 -14,2 -14,2 -1,0 -1,0 -1,0 0,0 0,0 0,0 -1,0 -1,0 -1,0 -1,0 -2,0 -2,1 -2,0 -4,0 -5,0 -2,0 -4,-1 -5,-1 -2,0 -3,0 -4,0 -2,0 -4,-1 -5,-1 -1,0 -2,0 -2,0 -1,-1 -2,-1 -3,-1 -1,0 -2,0 -4,-1 -2,0 -5,-1 -8,-2 -2,-1 -5,-2 -8,-3 -1,-1 -2,-1 -4,-2 -1,0 -2,-1 -3,-1 -2,-1 -4,-2 -6,-3 -3,-3 -7,-5 -11,-8 -4,-3 -7,-5 -11,-9 -1,0 -1,-1 -2,-1 -1,-1 -1,-2 -2,-2 -1,-1 -2,-3 -3,-4 -3,-2 -5,-4 -7,-7 0,0 -1,-1 -1,-2 -1,0 -1,0 -1,-1 0,0 -1,-1 -1,-1 0,0 0,-1 -1,-1 0,0 0,-1 0,-1 -1,-1 -1,-1 -1,-1 0,-1 0,-1 0,-1 -1,0 -1,0 -1,0 0,0 0,0 0,-1 0,0 0,0 0,0 0,0 0,0 0,0 0,0 -1,-1 -1,-1 -1,-2 -3,-6 -6,-13"/>
 <path class="fil0 str0" d="M541 184c-6,0 -12,1 -18,2 -29,5 -57,17 -84,29 -16,8 -31,15 -48,20 -10,3 -21,5 -32,4 -8,-1 -17,-3 -25,-6 -7,-3 -13,-7 -18,-13 -3,-3 -6,-7 -8,-12"/>
 <line class="fil0 str0" x1="737" y1="871" x2="737" y2= "248" />
 <line class="fil0 str0" x1="699" y1="871" x2="699" y2= "245" />
 <path class="fil0 str0" d="M708 163c-1,0 -2,0 -3,0 -2,-1 -3,-4 -2,-6 1,-3 4,-3 6,-4 3,0 5,1 7,2 2,3 4,6 3,10 -1,3 -4,6 -7,7 -4,2 -9,1 -12,-2 -3,-2 -4,-5 -5,-8 -1,-6 1,-12 4,-15 4,-4 10,-6 16,-5 6,0 12,2 17,6 5,4 8,11 10,17 1,5 2,10 2,15 0,7 0,14 -1,22 -1,5 -2,10 -3,15 0,3 0,6 0,9 0,0 0,1 0,2"/>
 <path class="fil0 str0" d="M740 228c-2,0 -4,0 -6,-2 -2,-1 -3,-5 -2,-8 0,-2 1,-4 2,-6"/>
 <path class="fil0 str0" d="M734 212c-1,1 -1,2 -2,2 -1,1 -1,1 -2,1"/>
 <path class="fil0 str0" d="M730 215c-1,-1 -1,-2 -1,-4 0,0 0,-1 0,-2 0,-1 1,-3 2,-4"/>
 <path class="fil0 str0" d="M738 228c1,1 1,2 1,3 1,3 1,6 0,9 0,1 -1,3 -1,5 0,1 0,2 0,3"/>
 <path class="fil0 str0" d="M738 248c0,0 0,0 -1,0 -1,0 -3,-1 -4,-2 -2,-1 -3,-3 -4,-5 0,-1 0,-2 0,-4 0,-1 0,-2 1,-3"/>
 <path class="fil0 str0" d="M730 234c-1,1 -1,2 -2,2 0,1 -1,1 -2,2 0,0 -1,0 -1,0"/>
 <path class="fil0 str0" d="M725 238c0,0 -1,0 -1,-1 0,0 -1,-1 -1,-1 0,-1 0,-2 0,-2"/>
 <path class="fil0 str0" d="M723 234c0,1 0,2 0,2 -1,1 -2,1 -3,1 -1,0 -3,-1 -4,0 0,1 0,1 -1,1"/>
 <path class="fil0 str0" d="M715 238c0,-1 -1,-1 -1,-2 -1,-1 -1,-3 -1,-4 0,0 1,-1 1,-2"/>
 <path class="fil0 str0" d="M714 230c-1,1 -1,2 -2,2 -1,0 -2,0 -3,0 -1,0 -1,0 -2,1"/>
 <path class="fil0 str0" d="M707 233c1,-2 1,-3 1,-4 1,-1 2,-3 3,-4 1,0 1,0 2,-1"/>
 <path class="fil0 str0" d="M729 211c0,2 -1,3 -1,5 -1,1 -2,3 -3,4 -2,2 -5,3 -8,4 -1,1 -2,2 -3,3"/>
 <path class="fil0 str0" d="M714 227c0,-1 0,-1 0,-2 -1,-1 -1,-2 0,-3 0,0 0,0 0,-1"/>
 <path class="fil0 str0" d="M714 221c0,1 0,1 -1,1 0,1 0,1 -1,2 0,0 -2,0 -3,0 0,0 0,0 0,1"/>
 <path class="fil0 str0" d="M709 225c-1,-2 -1,-3 -1,-4 0,-1 0,-3 1,-5 0,-1 1,-1 2,-2"/>
 <path class="fil0 str0" d="M711 214c0,0 0,-1 0,-1 0,0 0,-1 -1,-1 -1,0 -1,1 -1,2 -1,0 -2,0 -2,1 -1,0 -2,0 -3,0"/>
 <path class="fil0 str0" d="M704 215c-1,-2 -1,-3 0,-5 0,-1 1,-3 2,-4 1,-1 2,-2 3,-3"/>
 <path class="fil0 str0" d="M709 203c0,0 -1,0 -1,0 -1,0 -1,1 -2,1"/>
 <path class="fil0 str0" d="M706 204c1,-2 2,-4 3,-6 1,-1 3,-2 4,-3 3,-3 6,-5 9,-8 1,-2 3,-4 3,-6 1,-2 1,-4 1,-6 0,-1 0,-1 0,-2"/>
 <path class="fil0 str0" d="M722 185c0,1 -1,2 -2,3 -2,1 -4,1 -5,2 -2,0 -3,0 -4,1 0,0 0,1 -1,1"/>
 <path class="fil0 str0" d="M710 192c0,-1 -1,-2 -1,-3 -1,-1 -1,-3 0,-4 0,-1 1,-1 1,-2"/>
 <path class="fil0 str0" d="M710 183c1,0 1,-1 1,-1 1,0 1,0 2,-1 1,0 1,0 2,-1"/>
 <path class="fil0 str0" d="M715 180c-1,1 -2,1 -3,1 -1,0 -1,0 -2,0"/>
 <path class="fil0 str0" d="M710 181c0,-1 0,-2 1,-3 0,-1 1,-3 2,-3 0,-1 1,-1 2,-1 1,-1 2,-2 2,-3 0,0 1,-1 1,-2 0,0 0,0 0,0"/>
 <path class="fil0 str0" d="M733 59c2,0 3,0 5,-1 2,-1 3,-4 3,-8 1,-3 0,-7 -2,-9 -2,-1 -4,-1 -6,-1 -4,0 -8,1 -11,4 -2,2 -3,4 -4,6 -1,3 -1,7 0,10 0,1 1,3 2,4 0,0 0,1 1,2"/>
 <path class="fil0 str0" d="M721 66c-2,-2 -3,-4 -5,-6 -1,0 -2,-1 -3,-2 0,0 -1,0 -2,-1 0,0 -1,0 -1,-1 0,0 0,0 0,0"/>
 <path class="fil0 str0" d="M710 56c-1,0 -2,1 -2,2 0,2 0,3 1,5 0,1 1,2 2,3 1,1 1,1 1,1"/>
 <path class="fil0 str0" d="M712 67c-1,-1 -2,-1 -3,-1 0,-1 -1,-1 -2,-1 0,0 0,0 0,0"/>
 <path class="fil0 str0" d="M707 65c1,2 1,5 2,7 2,2 4,4 6,7 2,1 4,4 5,6"/>
 <path class="fil0 str0" d="M719 109c-1,0 -3,0 -4,0 -2,1 -2,4 -1,6 1,2 3,3 5,3 3,0 5,-2 7,-4 2,-3 0,-8 -2,-12 -3,-3 -7,-5 -11,-4 -4,0 -8,3 -10,7 -3,6 -3,12 1,16 3,5 11,7 18,6 6,-2 12,-5 15,-10 5,-8 6,-17 4,-26 -1,-4 -2,-7 -3,-11 0,-1 0,-3 0,-4 1,0 1,0 1,-1"/>
 <path class="fil0 str0" d="M739 75c0,-1 1,-2 1,-2 0,-1 1,-2 0,-3 0,0 0,-1 0,-2 0,0 0,0 0,0"/>
 <path class="fil0 str0" d="M740 68c-1,0 -3,0 -4,0 -1,1 -2,2 -2,3"/>
 <path class="fil0 str0" d="M734 71c-1,-1 -1,-2 0,-3 0,-1 2,-2 4,-3 1,0 1,-1 1,-2 1,-1 0,-2 1,-3 0,0 1,-1 1,-1"/>
 <path class="fil0 str0" d="M741 59c-2,0 -4,0 -6,0 -2,1 -5,1 -5,3 1,0 1,1 1,1"/>
 <path class="fil0 str0" d="M720 99c1,0 1,-1 2,-1 0,-1 0,-3 0,-5 -1,-2 -3,-4 -5,-5 -2,-1 -5,-2 -6,-4 0,0 0,-1 0,-2 0,0 0,-1 -1,-2"/>
 <path class="fil0 str0" d="M710 80c2,0 3,0 4,1 2,0 4,2 6,4"/>
 <line class="fil0 str0" x1="728" y1="236" x2="728" y2= "871" />
 <line class="fil0 str0" x1="733" y1="246" x2="733" y2= "871" />
 <path class="fil0 str0" d="M704 109c-1,-2 -2,-4 -4,-5 -1,-2 -4,-4 -6,-5 -3,-1 -6,-2 -10,-2 -1,-1 -2,-1 -3,-1"/>
 <path class="fil0 str0" d="M681 96c-1,3 -1,5 -2,7 -1,2 -4,4 -6,6 -4,2 -10,2 -14,-1 -2,-1 -4,-4 -5,-7 0,-3 1,-7 3,-9 2,-1 3,-2 5,-2"/>
 <path class="fil0 str0" d="M633 83c3,-4 7,-8 11,-11 6,-3 12,-3 19,-2 5,0 9,2 13,5 3,2 5,6 6,9 1,3 1,5 0,7 0,1 0,2 0,2"/>
 <path class="fil0 str0" d="M668 72c4,-1 7,-1 10,-1 5,1 9,3 13,4 2,0 3,1 5,1 2,0 4,0 5,-1 0,0 1,-1 1,-1"/>
 <path class="fil0 str0" d="M702 74c1,1 2,3 1,4 0,1 0,2 -1,2 -1,1 -1,1 -2,1"/>
 <path class="fil0 str0" d="M700 81c2,0 4,-1 5,0 1,0 2,1 3,1 0,0 1,0 1,0"/>
 <path class="fil0 str0" d="M709 82c-1,1 -2,2 -3,2 -1,0 -2,0 -2,0"/>
 <path class="fil0 str0" d="M704 84c2,1 4,2 6,3 2,2 4,4 6,7 1,0 1,1 1,2 1,2 1,3 1,5"/>
 <path class="fil0 str0" d="M680 83c4,1 9,2 13,3 4,2 8,4 11,7 1,1 2,2 3,3 2,2 3,4 4,6"/>
 <line class="fil0 str0" x1="701" y1="75" x2="701" y2= "67" />
 <line class="fil0 str0" x1="483" y1="67" x2="625" y2= "67" />
 <line class="fil0 str0" x1="642" y1="67" x2="701" y2= "67" />
 <line class="fil0 str0" x1="701" y1="67" x2="701" y2= "67" />
 <line class="fil0 str0" x1="480" y1="65" x2="627" y2= "65" />
 <line class="fil0 str0" x1="644" y1="65" x2="703" y2= "65" />
 <line class="fil0 str0" x1="703" y1="65" x2="703" y2= "80" />
 <line class="fil0 str0" x1="479" y1="63" x2="628" y2= "63" />
 <line class="fil0 str0" x1="645" y1="63" x2="705" y2= "63" />
 <line class="fil0 str0" x1="705" y1="63" x2="705" y2= "81" />
 <path class="fil0 str0" d="M694 161c-1,0 -3,0 -5,-1 -3,0 -7,-2 -9,-5 -2,-1 -3,-3 -5,-5 -1,-2 -2,-4 -1,-6 0,-1 0,-2 0,-2 0,-2 -1,-3 -2,-4 0,0 0,-1 -1,-1 0,-1 1,-1 1,-2"/>
 <path class="fil0 str0" d="M672 135c-2,1 -4,1 -5,3 -1,1 -1,2 -1,3"/>
 <path class="fil0 str0" d="M666 141c0,-1 0,-2 -1,-2 0,-1 0,-2 -1,-2 0,-1 -1,-1 -1,-2 0,0 0,-1 0,-1 0,-1 1,-1 1,-1"/>
 <path class="fil0 str0" d="M664 133c-1,-1 -3,-1 -3,0 -1,0 -1,1 -1,1"/>
 <path class="fil0 str0" d="M660 134c-1,-1 -1,-2 -1,-3 1,-2 2,-3 3,-5 0,-1 -1,-3 -2,-4 -1,0 -2,-1 -3,-1"/>
 <path class="fil0 str0" d="M638 52c-1,1 -2,3 -3,4 -2,2 -3,3 -5,5 -2,2 -4,5 -6,8 -1,3 -2,7 -3,11 0,1 0,2 1,4"/>
 <path class="fil0 str0" d="M622 84c-1,-1 -2,-1 -2,-2 -1,0 -2,0 -3,-1 -1,0 -1,0 -2,-1 0,0 0,-1 0,-1"/>
 <path class="fil0 str0" d="M615 79c-1,1 -2,2 -3,3 -1,2 0,5 1,7 0,0 0,1 0,1"/>
 <path class="fil0 str0" d="M613 90c0,-1 -1,-1 -1,-1 0,0 -1,0 -1,0 0,0 -1,0 -1,-1 0,0 0,0 0,0"/>
 <path class="fil0 str0" d="M610 88c-1,0 -1,1 -2,2 -1,2 -1,4 -2,6 0,2 0,4 1,6 0,0 0,1 1,2"/>
 <path class="fil0 str0" d="M608 104c-1,0 -2,-1 -3,-1 -2,0 -4,1 -6,0 -1,0 -1,-1 -2,-1"/>
 <path class="fil0 str0" d="M597 102c1,2 1,4 1,6 0,1 1,2 2,3 0,0 1,1 2,1"/>
 <path class="fil0 str0" d="M602 112c-1,0 -2,0 -2,1 -1,0 -1,2 -1,3 0,0 0,0 0,1"/>
 <path class="fil0 str0" d="M599 117c-1,-2 -2,-3 -3,-5 -1,-2 -1,-5 -1,-8 0,-1 0,-3 -1,-5 -1,-1 -1,-1 -2,-2"/>
 <path class="fil0 str0" d="M587 118c-2,-4 -5,-7 -6,-11 -2,-3 -2,-6 -1,-9 0,-2 1,-4 1,-6 1,-1 1,-2 1,-3 0,-1 0,-2 -1,-3"/>
 <path class="fil0 str0" d="M581 86c2,0 4,1 5,2 1,1 2,3 3,5 0,1 0,2 0,3"/>
 <path class="fil0 str0" d="M589 96c0,0 0,-1 0,-1 0,-1 1,-1 1,-1 0,-1 0,-1 0,-2 0,0 0,0 0,0"/>
 <path class="fil0 str0" d="M590 92c1,1 2,2 3,3 0,1 0,3 -1,4 0,1 0,2 -1,2"/>
 <path class="fil0 str0" d="M550 119c2,2 3,4 3,6 1,4 -2,8 -5,10 -5,3 -12,2 -16,-1 -2,-2 -4,-6 -4,-9 -1,-2 -1,-4 0,-6 0,-1 0,-2 1,-3"/>
 <path class="fil0 str0" d="M590 133c-4,-5 -9,-10 -13,-15 -4,-4 -9,-8 -14,-11 -3,-1 -6,-2 -10,-2 -2,0 -4,1 -5,2 -1,2 -1,3 -1,4 0,2 0,3 1,5 0,0 0,0 0,1 0,1 -1,1 -2,2"/>
 <path class="fil0 str0" d="M546 119c0,0 -1,0 -2,-1 -1,0 -2,-2 -2,-3 1,0 1,-1 1,-1"/>
 <path class="fil0 str0" d="M543 114c-1,1 -1,2 -1,3 0,1 1,2 2,3 0,1 0,3 0,4 -1,1 -2,2 -2,3 0,0 0,0 0,0"/>
 <path class="fil0 str0" d="M542 127c-2,0 -3,0 -5,0 -2,-1 -3,-3 -3,-5 -1,-1 -1,-2 -1,-3 0,-1 1,-2 1,-4"/>
 <path class="fil0 str0" d="M534 115c0,1 -1,2 -1,3 0,0 0,1 0,2 0,0 0,0 0,1 0,0 0,0 0,0 -1,0 -1,1 -1,1"/>
 <path class="fil0 str0" d="M532 122c-1,-1 -2,-2 -2,-3 -1,-1 -1,-3 -1,-4 0,-7 2,-14 7,-17 4,-2 8,-3 12,-3 4,1 7,1 10,2 2,1 4,2 6,3 0,1 0,1 1,1"/>
 <path class="fil0 str0" d="M565 101c-2,-1 -4,-3 -6,-4 -1,-2 -3,-3 -3,-5 0,-1 0,-2 1,-3 0,-2 0,-3 -1,-4 0,0 -1,0 -1,-1"/>
 <path class="fil0 str0" d="M555 84c1,0 1,-1 1,-1 1,0 1,0 2,1"/>
 <path class="fil0 str0" d="M558 84c0,-1 0,-2 0,-2 -1,-2 -2,-3 -3,-4 0,0 -1,0 -1,-1"/>
 <path class="fil0 str0" d="M554 77c1,0 2,0 4,0 2,1 4,1 6,3 2,1 3,3 3,4 0,1 0,2 0,3"/>
 <path class="fil0 str0" d="M567 87c0,0 0,-1 1,-1 0,0 1,0 1,-1 0,0 1,0 1,-1 0,0 0,-1 0,-1"/>
 <path class="fil0 str0" d="M570 83c1,1 2,2 2,3 1,1 1,3 1,4 0,1 0,2 -1,3"/>
 <path class="fil0 str0" d="M572 93c1,-1 1,-2 1,-2 1,-1 2,-1 2,-2 0,0 0,-1 0,-1 1,0 0,0 0,-1"/>
 <path class="fil0 str0" d="M575 87c1,1 2,2 3,3 1,3 1,6 0,9 0,1 0,3 0,4 1,2 1,4 2,5 0,1 0,1 1,1 0,1 2,2 3,2"/>
 <path class="fil0 str0" d="M657 95c-2,0 -4,0 -6,0 -3,0 -6,0 -8,1 -1,1 -2,2 -2,2"/>
 <path class="fil0 str0" d="M641 98c1,0 3,-1 4,-1 1,0 1,1 2,1 0,0 1,0 1,0 1,0 1,0 1,0"/>
 <path class="fil0 str0" d="M649 98c1,1 1,2 1,3 -1,1 -1,2 -2,3 -1,1 -1,2 -2,2 -2,1 -3,2 -3,3 -1,1 -1,1 -1,2"/>
 <path class="fil0 str0" d="M642 111c1,-1 1,-1 2,-1 1,-1 2,-1 2,-1 3,1 5,2 6,1 1,0 1,0 1,0"/>
 <path class="fil0 str0" d="M653 110c1,1 1,2 1,3 0,1 -1,2 -1,2 -2,2 -3,2 -5,3 -1,1 -2,2 -3,3 0,1 0,1 0,2 0,1 0,1 0,1"/>
 <path class="fil0 str0" d="M657 121c0,-1 -1,-1 -2,-1 -1,0 -2,0 -2,1 -1,0 -1,1 -1,1"/>
 <path class="fil0 str0" d="M652 122c0,0 0,-1 0,-1 0,-1 1,-1 1,-2 1,0 1,0 1,0 0,0 1,0 1,-1 1,0 1,0 1,0 0,0 0,-1 0,-1 0,0 0,0 0,0"/>
 <path class="fil0 str0" d="M656 117c0,-1 0,-1 -1,-1 0,0 0,0 -1,0 -1,0 -2,0 -3,0 0,0 -1,0 -1,1"/>
 <path class="fil0 str0" d="M711 172c-1,2 -2,3 -3,4 -5,4 -11,7 -18,8 -8,2 -16,2 -24,1 -8,-2 -16,-5 -24,-9 -7,-4 -13,-9 -17,-16 -2,-3 -4,-7 -5,-11 0,-2 0,-5 0,-7 0,-2 0,-3 0,-4"/>
 <path class="fil0 str0" d="M708 201c-1,1 -3,1 -4,2 -5,3 -11,5 -17,7 -9,2 -19,2 -29,1 -6,-1 -12,-2 -18,-4 -2,-1 -4,-3 -5,-5 0,-1 -1,-2 -1,-3 -1,0 -1,-1 -2,-1"/>
 <path class="fil0 str0" d="M632 198c1,-1 3,-1 4,-1 0,0 1,1 2,1"/>
 <path class="fil0 str0" d="M638 198c-1,-1 -2,-2 -3,-2 -2,-1 -5,-1 -5,-2 -1,-2 0,-4 -1,-6 0,-1 0,-1 -1,-2"/>
 <path class="fil0 str0" d="M628 186c3,0 5,0 8,1 2,0 4,1 6,2 1,1 2,3 3,5"/>
 <path class="fil0 str0" d="M645 194c0,-1 -1,-2 -1,-3 0,-1 0,-1 0,-2 0,0 0,-1 0,-1"/>
 <path class="fil0 str0" d="M644 188c2,0 4,1 5,2 3,2 4,4 6,6 2,1 5,2 7,2 5,1 11,1 16,0 2,0 4,0 7,-1"/>
 <path class="fil0 str0" d="M427 164c2,-1 3,-2 4,-4 0,-2 -2,-4 -4,-6 -3,-1 -7,-1 -9,1 -1,2 -2,4 -2,7 0,3 1,5 2,7 3,4 11,4 16,2 3,-1 5,-3 6,-5 1,-2 1,-4 1,-5"/>
 <path class="fil0 str0" d="M441 161c0,1 0,2 1,3 0,0 1,1 1,1 0,0 0,1 0,1"/>
 <path class="fil0 str0" d="M443 166c2,-2 3,-4 4,-6 2,-4 2,-8 2,-12 0,-3 0,-5 -1,-8 -1,-1 -1,-1 -2,-2"/>
 <path class="fil0 str0" d="M446 138c1,0 1,1 2,1 1,0 2,1 2,1 1,0 1,0 1,0"/>
 <path class="fil0 str0" d="M451 140c1,-1 1,-2 1,-3 1,-2 2,-5 1,-7 -1,-1 -1,-2 -2,-3 -1,-1 -2,-2 -3,-3"/>
 <path class="fil0 str0" d="M324 173c1,3 2,7 5,9 3,5 9,6 15,7 8,1 16,-1 22,-6 6,-4 9,-10 11,-16 3,-8 3,-16 0,-23 0,-3 -2,-7 -3,-10"/>
 <path class="fil0 str0" d="M361 121c-4,-1 -7,-3 -11,-4 -8,-2 -18,0 -26,4 -8,4 -14,11 -18,18 -3,6 -5,12 -6,18 -2,9 -1,18 1,27 1,6 3,12 5,18 0,2 1,4 2,6 1,2 2,4 3,6"/>
 <path class="fil0 str0" d="M330 171c-2,0 -4,1 -5,1 -2,-1 -4,-3 -4,-5 -2,-2 -1,-6 0,-9 1,-1 1,-2 2,-3 1,0 2,0 3,0"/>
 <path class="fil0 str0" d="M326 155c0,-2 -1,-4 -1,-6 0,-2 0,-5 2,-6 1,-2 3,-2 5,-3 2,0 3,0 4,0 1,0 2,0 2,1 1,0 1,0 1,0"/>
 <path class="fil0 str0" d="M339 141c0,-1 0,-3 0,-4 1,-1 3,-1 5,-1 2,-1 3,-1 5,0 1,0 2,1 3,2 0,0 0,1 0,2"/>
 <path class="fil0 str0" d="M330 171c-1,0 -1,1 -1,2 0,2 1,4 2,5 1,2 3,3 5,3 1,1 3,1 5,0 0,0 0,0 0,-1"/>
 <path class="fil0 str0" d="M341 180c1,1 1,1 1,2 1,1 4,2 6,2 1,0 3,0 4,-1 1,0 2,-1 3,-2 1,-1 1,-1 2,-2 0,-1 0,-2 0,-3 0,0 -1,-1 -1,-1"/>
 <path class="fil0 str0" d="M356 175c1,0 2,0 3,1 2,0 5,0 6,-2 2,-1 2,-2 3,-4 0,-2 0,-4 -1,-6 0,-1 0,-3 -1,-4 -1,0 -1,0 -2,-1"/>
 <path class="fil0 str0" d="M364 159c1,0 2,-1 3,-2 1,-2 1,-4 1,-5 -1,-2 -1,-3 -2,-4 0,-1 -1,-2 -2,-2 -1,0 -1,0 -2,0"/>
 <path class="fil0 str0" d="M339 143c0,1 0,3 1,4 0,1 1,2 2,3 0,1 0,1 1,1 1,0 2,0 2,0 1,0 1,0 1,0"/>
 <path class="fil0 str0" d="M340 150c0,1 0,2 0,2 0,2 -1,3 -2,4 -1,0 -2,1 -3,1 -1,0 -2,0 -3,0"/>
 <path class="fil0 str0" d="M333 158c1,0 3,1 3,1 1,1 1,2 2,4 0,0 0,1 -1,2 0,1 -1,3 -3,3 0,1 -1,1 -2,2"/>
 <path class="fil0 str0" d="M338 166c1,0 2,0 3,0 1,0 3,1 3,2 1,1 1,2 1,3 0,1 -1,2 -1,3 0,1 0,1 0,1"/>
 <path class="fil0 str0" d="M346 170c0,-1 1,-1 1,-1 1,0 2,0 3,0 1,0 2,1 3,1 0,1 1,1 1,2"/>
 <path class="fil0 str0" d="M352 168c0,-1 0,-3 1,-4 0,-1 1,-2 2,-2 1,-1 2,-1 3,-1 1,-1 3,-1 4,0"/>
 <path class="fil0 str0" d="M360 160c-1,-1 -2,-1 -2,-1 -1,-1 -1,-1 -1,-1 0,0 0,-1 0,-1"/>
 <path class="fil0 str0" d="M346 154c-2,0 -4,0 -5,1 -1,0 -1,1 -2,3 0,2 0,4 1,5 1,2 4,2 6,2 1,0 3,0 4,-1 1,-1 3,-2 4,-3 2,-3 3,-6 4,-9 1,-3 2,-6 4,-9 3,-5 8,-9 14,-13 3,-2 7,-4 12,-5 2,0 3,0 5,1 1,1 2,2 2,3 1,1 1,2 1,3"/>
 <path class="fil0 str0" d="M396 132c2,-1 4,-2 5,-4 0,-1 0,-3 0,-4 -1,-1 -2,-2 -3,-3"/>
 <path class="fil0 str0" d="M400 130c1,1 2,2 3,3 0,1 0,2 -1,3 0,0 0,0 0,1"/>
 <path class="fil0 str0" d="M402 137c-1,-1 -1,-1 -1,-1 -1,0 -2,2 -2,3 0,1 1,2 2,3 2,1 4,1 5,0 2,-1 3,-3 3,-5 0,-2 -1,-4 -1,-6"/>
 <path class="fil0 str0" d="M408 131c0,1 1,3 2,3 0,1 1,1 1,1 1,1 1,1 1,1 0,1 0,1 0,1"/>
 <path class="fil0 str0" d="M412 137c1,0 2,-1 2,-1 1,-1 1,-3 1,-4 0,0 -1,-1 -1,-2"/>
 <path class="fil0 str0" d="M414 130c1,1 2,2 2,4 1,1 2,3 1,4 0,1 0,2 0,2"/>
 <path class="fil0 str0" d="M417 140c1,1 1,1 2,0 0,0 0,0 0,-1"/>
 <path class="fil0 str0" d="M419 139c0,1 0,2 0,3 0,1 1,2 2,3 1,1 1,1 1,2 0,0 0,0 -1,1"/>
 <path class="fil0 str0" d="M421 148c2,-1 3,-2 4,-3 2,-1 2,-4 1,-6 0,0 0,-1 0,-1"/>
 <path class="fil0 str0" d="M426 138c1,1 2,1 2,2 0,0 0,1 0,1"/>
 <path class="fil0 str0" d="M428 141c1,0 1,-1 2,-1 0,-1 0,-1 0,-2"/>
 <path class="fil0 str0" d="M429 139c1,2 1,4 1,5 1,3 0,5 -1,7 0,1 0,2 -1,2 0,1 -1,1 -2,2"/>
 <path class="fil0 str0" d="M432 137c2,2 3,4 4,6 1,3 0,6 -1,9 0,2 -1,3 -1,4"/>
 <path class="fil0 str0" d="M344 156c2,-2 3,-3 4,-4 2,-2 2,-4 3,-7 1,-3 2,-6 3,-9 2,-7 6,-13 11,-19 3,-4 6,-7 9,-10 4,-3 8,-5 11,-8 1,-1 1,-1 2,-2 0,0 0,-1 0,-2 0,0 0,-1 0,-1"/>
 <path class="fil0 str0" d="M387 94c1,0 3,0 3,1 1,0 1,1 1,1"/>
 <path class="fil0 str0" d="M391 96c0,-1 -1,-3 -1,-4 1,-1 1,-2 2,-3 1,-1 3,-1 3,-2 0,0 0,0 0,-1"/>
 <path class="fil0 str0" d="M395 86c1,1 2,1 2,2 1,1 1,2 0,3 0,1 0,1 -1,1"/>
 <path class="fil0 str0" d="M396 92c1,0 2,-1 3,-2 1,0 2,0 3,0 1,-1 2,-1 3,-2 0,0 0,0 0,0"/>
 <path class="fil0 str0" d="M405 88c0,1 1,2 1,3 0,1 0,2 -1,2"/>
 <path class="fil0 str0" d="M405 93c3,-1 5,-2 6,-4 2,-2 3,-4 4,-7 0,-1 0,-2 -1,-3 0,-1 0,-1 -1,-2 0,-1 0,-2 0,-2 0,-1 1,-1 1,-2"/>
 <path class="fil0 str0" d="M414 73c0,1 1,1 1,2 1,0 2,0 3,0 0,0 0,1 0,1"/>
 <path class="fil0 str0" d="M418 76c0,-1 -1,-2 -1,-3 1,-1 1,-1 2,-2 0,-1 1,-2 1,-3 0,0 0,-1 0,-2"/>
 <path class="fil0 str0" d="M420 66c2,1 3,1 5,3 1,1 1,2 1,3 0,0 0,0 0,0"/>
 <path class="fil0 str0" d="M426 72c0,0 0,-1 1,-1 0,0 1,0 1,-1 0,0 0,0 0,0"/>
 <path class="fil0 str0" d="M428 70c1,1 1,2 2,3 0,1 -1,2 -1,3 0,1 -1,1 -1,2"/>
 <path class="fil0 str0" d="M428 78c1,-1 1,-1 2,-1 0,0 1,0 1,-1 0,0 0,0 1,-1"/>
 <path class="fil0 str0" d="M432 75c0,1 0,2 0,3 0,1 0,2 0,2 -1,2 -2,3 -3,3 -1,1 -2,2 -4,4 -1,1 -2,3 -1,3 0,0 1,0 1,0 1,0 1,0 1,0 1,-1 1,-2 1,-2 0,-1 0,-1 0,-1"/>
 <path class="fil0 str0" d="M432 82c0,0 1,0 1,1 1,1 1,2 1,3 0,0 -1,1 -1,1"/>
 <path class="fil0 str0" d="M433 87c1,0 1,-1 2,-1 0,0 1,0 1,0 0,0 0,0 0,-1"/>
 <path class="fil0 str0" d="M436 85c1,1 1,1 1,2 0,1 0,2 0,2 0,0 0,0 -1,0"/>
 <path class="fil0 str0" d="M436 89c1,0 1,0 1,0 1,0 1,0 1,0 0,0 0,0 0,0"/>
 <path class="fil0 str0" d="M438 89c1,0 1,1 1,2 0,1 0,1 0,2"/>
 <path class="fil0 str0" d="M439 93c2,-1 5,-2 7,-4 2,-2 4,-4 5,-6 0,-1 1,-3 0,-4 0,-1 0,-1 -1,-2 0,0 0,0 -1,-1 0,0 0,0 -1,1"/>
 <path class="fil0 str0" d="M448 77c0,0 1,1 1,2 0,1 -1,3 -3,4 -2,1 -4,1 -6,1 -1,-1 -2,-2 -3,-3 0,-1 -1,-2 -1,-2 0,-1 0,-1 0,-2"/>
 <path class="fil0 str0" d="M456 79c0,-2 1,-3 0,-5 0,-1 -1,-2 -2,-3 -1,0 -2,-1 -3,-1 -1,0 -2,1 -2,2 0,0 0,0 0,0"/>
 <path class="fil0 str0" d="M449 72c0,1 0,1 0,1 -1,0 -1,-1 -2,-1"/>
 <path class="fil0 str0" d="M447 72c0,0 0,1 1,1 0,0 0,1 0,1 1,0 1,0 1,0"/>
 <path class="fil0 str0" d="M449 74c0,0 0,1 0,1 -1,1 -1,1 -1,1 -1,1 -3,1 -5,1 -1,0 -2,0 -2,-1 -1,0 -1,-1 -1,-2 0,0 0,-1 0,-2 1,-1 1,-1 1,-2"/>
 <path class="fil0 str0" d="M439 74c-1,0 -1,1 -1,1 0,0 0,1 0,1 0,0 0,1 0,1 0,0 0,0 0,0 0,0 0,1 0,1"/>
 <path class="fil0 str0" d="M438 78c0,0 -1,0 -1,-1 -1,0 -1,0 -1,-1 -1,-1 -1,-2 -1,-3 0,-2 0,-4 1,-5 1,-1 2,-2 3,-3 1,0 1,0 1,0 0,0 0,-1 0,-1"/>
 <path class="fil0 str0" d="M440 66c0,0 0,-1 0,-1 0,-1 0,-1 1,-2 1,-1 2,-1 3,-1 1,0 2,0 3,0"/>
 <path class="fil0 str0" d="M443 63c1,-1 1,-2 2,-2 1,-1 2,-1 3,-1 2,0 4,0 5,1 1,0 1,0 2,1 0,0 1,0 1,1"/>
 <path class="fil0 str0" d="M457 65c0,-1 0,-1 -1,-1 0,-1 0,-2 0,-3 0,0 0,-1 0,-1 -1,-1 -1,-1 -1,-1"/>
 <path class="fil0 str0" d="M455 59c1,0 3,0 4,0 1,0 1,1 2,1 0,1 0,1 0,2"/>
 <path class="fil0 str0" d="M372 124c3,-2 6,-3 10,-4 2,-1 5,-1 7,-1 1,1 2,1 3,2"/>
 <path class="fil0 str0" d="M392 121c1,-1 1,-2 1,-3 0,-1 -1,-2 -2,-3"/>
 <path class="fil0 str0" d="M391 115c1,0 2,1 3,2 2,0 3,2 4,2 0,0 1,0 2,0 1,0 3,0 5,1 0,0 1,0 1,1"/>
 <path class="fil0 str0" d="M406 121c0,-1 1,-2 1,-2 0,-2 -1,-3 -2,-4 -1,-1 -2,-1 -4,-2"/>
 <path class="fil0 str0" d="M401 113c2,1 4,2 6,3 0,1 1,1 1,2 0,0 0,0 0,0 0,1 2,1 2,1 1,0 1,0 2,1 0,0 0,0 0,0"/>
 <path class="fil0 str0" d="M412 120c1,-1 1,-2 1,-3 0,-1 0,-2 -1,-3 -1,-1 -2,-1 -3,-1"/>
 <path class="fil0 str0" d="M409 113c2,0 4,1 5,2 1,0 3,2 3,3 0,1 0,2 0,3 0,1 0,2 1,2 0,0 0,1 1,1"/>
 <path class="fil0 str0" d="M419 124c0,0 1,-1 1,-1 1,-1 1,-2 1,-2 0,-1 0,-1 -1,-1"/>
 <path class="fil0 str0" d="M420 120c1,1 3,1 3,3 1,0 1,1 2,2 1,0 3,0 4,1 0,0 0,0 1,0"/>
 <path class="fil0 str0" d="M324 173c0,3 0,7 1,10 1,4 4,8 7,11 3,2 6,3 9,3 1,-1 2,-1 4,-1 0,0 1,-1 2,-1 1,0 2,1 3,1 1,0 1,-1 2,-2"/>
 <path class="fil0 str0" d="M352 194c1,2 2,4 2,6 0,1 -1,2 -1,3 -1,0 -1,0 -1,0"/>
 <path class="fil0 str0" d="M352 203c1,-1 2,-2 3,-3 2,0 3,-1 4,-1 2,0 3,-1 4,-1 0,-1 0,-2 0,-3"/>
 <path class="fil0 str0" d="M363 195c1,2 2,3 2,5 1,2 1,4 0,5 -1,0 -1,0 -1,0"/>
 <path class="fil0 str0" d="M364 205c1,-1 3,-3 5,-4 1,0 2,0 3,-1 0,0 0,-1 0,-2"/>
 <path class="fil0 str0" d="M372 198c1,1 2,2 3,3 1,0 1,1 1,2 0,1 -1,2 -1,3"/>
 <path class="fil0 str0" d="M375 206c1,-1 3,-2 4,-3 1,-2 1,-4 -1,-6 0,0 0,0 -1,-1 0,0 0,0 -1,0"/>
 <path class="fil0 str0" d="M376 196c2,-1 3,-1 5,-1 1,0 3,0 4,1 0,1 1,1 1,2 0,0 1,1 1,2"/>
 <path class="fil0 str0" d="M387 200c0,-1 -1,-2 -1,-3 1,-1 1,-1 2,-2 0,-1 0,-2 0,-2 0,-1 0,-1 0,-2"/>
 <path class="fil0 str0" d="M388 191c2,1 4,1 5,2 1,1 2,2 2,3 1,0 1,1 1,2"/>
 <path class="fil0 str0" d="M396 198c-1,-2 -1,-3 0,-4 0,-2 1,-2 2,-3 0,-1 0,-1 1,-2 0,-1 0,-1 -1,-2"/>
 <path class="fil0 str0" d="M398 187c2,0 3,0 4,1 0,0 1,1 1,2 1,1 1,2 1,2"/>
 <path class="fil0 str0" d="M404 192c1,-1 1,-3 3,-4 0,-1 1,-1 2,-2 1,-1 2,-2 4,-2 1,-1 2,-1 2,-2 1,0 1,-1 1,-1 0,-1 0,-2 0,-2"/>
 <path class="fil0 str0" d="M416 179c1,1 2,1 3,2 1,2 2,3 1,5 0,1 0,2 -1,2"/>
 <path class="fil0 str0" d="M419 188c1,0 1,-1 2,-1 0,-1 1,-1 2,-1 0,-1 1,-1 1,-1 0,-1 0,-1 0,-1"/>
 <path class="fil0 str0" d="M424 184c2,0 3,1 3,2 1,0 1,1 0,2 0,1 0,1 0,1 0,0 0,0 0,0"/>
 <path class="fil0 str0" d="M427 189c1,-1 2,-2 2,-3 1,-1 2,-2 4,-3 1,0 2,0 2,-1 1,-1 1,-1 1,-1"/>
 <path class="fil0 str0" d="M436 181c0,0 1,0 1,1 0,0 0,1 0,1"/>
 <path class="fil0 str0" d="M437 183c0,-1 0,-2 1,-2 0,-1 1,-1 1,-1 1,-1 3,-1 3,-1 0,-1 0,-1 0,-2"/>
 <path class="fil0 str0" d="M442 177c1,1 2,2 3,3 0,1 0,2 0,2 -1,1 -1,1 -1,2"/>
 <path class="fil0 str0" d="M444 184c2,-2 4,-3 7,-4 4,-1 8,0 12,1 1,0 2,1 3,1 2,1 3,2 5,2 0,1 1,1 2,1 0,0 1,0 1,-1 1,0 0,-2 -1,-3"/>
 <path class="fil0 str0" d="M473 181c-1,-1 -1,-2 -1,-2 0,-2 3,-3 5,-3 2,0 4,1 6,2 1,1 3,3 3,5 0,1 0,3 -1,5 -1,2 -3,3 -4,4 -3,1 -5,1 -8,1 -1,0 -3,0 -3,-1 -1,-1 -1,-1 -1,-1"/>
 <path class="fil0 str0" d="M469 191c0,1 -1,2 -1,3 0,1 0,2 1,3"/>
 <path class="fil0 str0" d="M469 197c-2,0 -3,0 -4,-1 -1,0 -2,-1 -2,-2 0,-1 0,-2 0,-3 1,0 0,-1 0,-2 0,0 0,0 0,0"/>
 <path class="fil0 str0" d="M463 189c0,0 0,0 0,1 0,0 -1,1 -1,1 0,0 0,1 0,1 0,1 0,1 0,1"/>
 <path class="fil0 str0" d="M462 193c-1,0 -1,0 -2,0 0,-1 -1,-1 -1,-1 0,0 -1,-1 -1,-1 0,-1 1,-1 1,-1"/>
 <path class="fil0 str0" d="M459 190c0,0 0,0 0,1 0,0 0,1 0,2 0,0 0,1 0,1 0,0 0,0 1,0"/>
 <path class="fil0 str0" d="M460 194c-1,0 -1,1 -1,1 -1,1 -3,0 -5,-1 0,-1 -1,-2 -2,-2 0,-1 0,-2 -1,-2 -1,-1 -4,-1 -6,0 -1,0 -2,1 -3,1"/>
 <path class="fil0 str0" d="M355 128c-2,-1 -5,-2 -7,-3 -6,-2 -13,-1 -18,2 -5,2 -9,6 -12,10 -5,6 -9,13 -11,21 -1,7 0,13 1,20 1,7 2,14 5,20 3,6 7,11 12,16 6,5 14,8 22,10 11,3 24,3 35,1 16,-3 30,-10 44,-18 7,-3 15,-7 22,-10 1,0 2,-1 4,-1"/>
 <path class="fil0 str0" d="M636 204c-4,-2 -9,-4 -13,-7 -6,-3 -11,-7 -16,-11 -4,-4 -8,-8 -11,-12 -4,-4 -7,-8 -9,-12 -1,-3 -2,-5 -2,-8"/>
 <path class="fil0 str0" d="M585 154c-5,-3 -9,-6 -14,-9 -5,-3 -11,-4 -16,-6 -11,-2 -22,-3 -32,-2 -19,1 -37,6 -54,14 -8,3 -15,8 -23,12"/>
 <path class="fil0 str0" d="M423 173c-6,2 -12,5 -18,8 -7,3 -15,6 -22,8 -7,2 -14,3 -21,3 -5,0 -10,0 -15,-1 -2,0 -5,-1 -7,-1 -2,-1 -3,-2 -4,-3"/>
 <path class="fil0 str0" d="M486 183c7,-2 12,-4 16,-5 8,-2 17,-4 25,-5 5,-1 11,-1 16,-1 2,0 3,0 12,2"/>
 <path class="fil0 str0" d="M550 119c2,0 3,0 4,0 2,1 4,1 5,2 2,1 3,2 4,3"/>
 <path class="fil0 str0" d="M563 124c-1,0 -2,-1 -3,-1 -1,0 -2,1 -4,1 0,0 -1,0 -1,0"/>
 <path class="fil0 str0" d="M555 124c0,1 0,3 1,4 0,1 0,2 1,2 1,1 3,1 5,2 0,0 0,0 1,0"/>
 <path class="fil0 str0" d="M563 132c-1,0 -1,0 -2,0 0,0 -1,1 -2,2 0,0 -1,0 -2,0 0,0 0,0 -1,0"/>
 <path class="fil0 str0" d="M556 134c1,2 2,3 3,4 2,0 4,1 5,0 2,0 3,0 4,0"/>
 <path class="fil0 str0" d="M568 138c0,0 -1,0 -1,0 -1,1 -1,1 -1,2 -1,0 -1,0 -1,0 0,0 0,0 -1,0"/>
 <path class="fil0 str0" d="M564 140c1,1 2,1 3,1 1,1 2,1 3,0 1,0 1,0 2,0 0,0 0,0 0,0"/>
 <path class="fil0 str0" d="M572 141c0,0 0,0 0,0 0,0 -1,1 -1,1 0,0 0,0 0,0"/>
 <path class="fil0 str0" d="M571 142c0,1 1,1 2,1 1,0 1,0 2,0 1,0 1,1 2,1"/>
 <path class="fil0 str0" d="M632 198c-3,-2 -7,-3 -10,-5 -6,-3 -10,-8 -14,-13 -1,-1 -3,-3 -4,-4 -1,-1 -2,-2 -3,-3 -2,-1 -3,-1 -5,-2"/>
 <path class="fil0 str0" d="M596 171c1,-1 1,-1 2,-2 2,-1 5,-1 7,0 0,0 1,1 2,1"/>
 <path class="fil0 str0" d="M607 170c-1,-1 -3,-2 -4,-4 -3,-3 -6,-6 -9,-9 -2,-1 -5,-2 -7,-3 -1,-1 -2,-1 -3,-2 -1,0 -1,-1 -1,-1 0,0 0,-1 0,-1"/>
 <path class="fil0 str0" d="M444 117c1,1 2,2 2,3 0,1 -1,2 -1,3 0,0 1,1 1,1"/>
 <path class="fil0 str0" d="M446 124c-1,0 -3,0 -4,0 -1,0 -3,-1 -3,-2 -1,0 -1,-1 -1,-2 0,0 0,0 0,-1 -1,0 -1,0 -1,0"/>
 <path class="fil0 str0" d="M437 119c0,0 0,1 0,1 1,1 1,1 1,2 0,1 0,1 0,1 0,1 0,1 1,1 0,1 0,1 0,1"/>
 <path class="fil0 str0" d="M439 125c-1,0 -2,1 -3,1 -1,-1 -2,-1 -2,-2 -1,0 -1,-1 -1,-2 -1,0 -1,-1 -1,-1"/>
 <path class="fil0 str0" d="M430 126c0,0 1,0 1,-1 1,-1 0,-2 0,-3 0,-1 0,-2 -1,-2 0,0 0,0 0,0"/>
 <path class="fil0 str0" d="M425 115c0,2 0,4 1,4 0,1 1,1 2,0 1,0 2,0 3,1 0,0 1,0 1,1"/>
 <path class="fil0 str0" d="M444 196c1,0 2,0 3,0 1,0 2,0 3,0 1,0 2,0 4,0 0,0 1,1 2,0 0,0 0,0 1,0"/>
 <path class="fil0 str0" d="M457 196c-1,0 -1,0 -1,0 0,0 0,-1 0,-1 0,0 0,0 0,0 0,-1 0,-1 -1,-1"/>
 <path class="fil0 str0" d="M292 83c2,1 3,3 4,5 3,3 3,8 3,13 -1,7 -2,13 -5,18 -2,4 -5,8 -9,11 -2,1 -4,3 -6,4 -2,2 -5,3 -8,4"/>
 <path class="fil0 str0" d="M271 138c1,3 1,5 1,8 0,3 -1,7 -2,10 -1,3 -3,5 -5,7 -2,2 -4,3 -6,4 -1,1 -2,1 -3,2"/>
 <path class="fil0 str0" d="M256 169c-3,0 -5,0 -7,0"/>
 <path class="fil0 str0" d="M299 74c2,2 3,3 5,5 3,3 4,7 5,12 1,5 1,10 0,14 -1,6 -2,11 -4,16 -2,5 -5,10 -8,13 -3,3 -7,6 -10,8 -1,1 -3,1 -4,2"/>
 <path class="fil0 str0" d="M283 144c0,3 0,6 0,8 -1,4 -2,9 -5,12 -2,3 -4,6 -7,9 -2,1 -5,3 -7,4 -2,1 -4,1 -5,2"/>
 <path class="fil0 str0" d="M274 78c0,0 0,1 0,1 -1,4 -4,8 -7,10 -4,2 -8,3 -12,4 -2,0 -4,0 -6,0"/>
 <path class="fil0 str0" d="M279 81c0,1 0,2 0,3 -2,4 -4,7 -8,9 -3,3 -8,5 -13,5 -3,1 -6,1 -9,1"/>
 <path class="fil0 str0" d="M292 65c0,2 0,4 -1,5 -1,1 -4,2 -6,1 -3,-1 -4,-4 -5,-6 0,-4 1,-8 4,-11 1,-1 3,-2 6,-2 2,-1 5,0 7,1 1,1 2,3 3,4 1,3 1,5 1,8 0,0 0,1 0,2 0,0 0,0 1,1"/>
 <path class="fil0 str0" d="M302 68c-2,0 -3,0 -3,0 -1,0 -2,-1 -3,-2"/>
 <path class="fil0 str0" d="M299 69c0,1 0,2 0,3 0,3 -2,5 -4,7 -2,1 -4,2 -6,2 -4,1 -8,1 -12,-1 -4,-2 -6,-6 -8,-10 -2,-5 -1,-11 -1,-17 1,-3 1,-6 3,-8 1,-1 2,-2 2,-4 1,-1 1,-2 0,-2 0,-1 0,-1 0,-1"/>
 <path class="fil0 str0" d="M273 38c1,-1 3,-1 4,-1 1,1 2,2 2,3 0,0 0,0 0,1"/>
 <path class="fil0 str0" d="M279 41c0,-1 0,-1 0,-2 1,0 1,0 1,-1 1,0 2,0 2,-1 0,0 0,0 0,-1"/>
 <path class="fil0 str0" d="M280 82c2,0 3,0 4,1 1,1 2,2 3,4 0,1 1,2 2,3"/>
 <path class="fil0 str0" d="M289 90c-2,0 -5,1 -7,1 -2,1 -4,1 -5,0 -1,0 -1,-1 -2,-1"/>
 <path class="fil0 str0" d="M275 90c1,1 2,2 3,3 1,1 2,3 2,4 0,1 -1,2 -2,3 0,1 0,2 0,4 0,0 1,0 1,1"/>
 <path class="fil0 str0" d="M279 105c-1,0 -3,0 -4,0 -2,0 -4,-1 -6,-2 -1,-1 -1,-3 -2,-4 0,-1 -1,-2 -1,-3"/>
 <path class="fil0 str0" d="M269 103c1,1 1,2 1,3 0,1 -1,1 -2,2 -1,1 -2,1 -2,2 0,1 0,1 0,2"/>
 <path class="fil0 str0" d="M266 112c-1,-1 -2,-1 -4,-1 -1,0 -3,-1 -4,-2 -1,-1 -1,-3 -1,-4 0,-2 0,-4 -1,-5"/>
 <path class="fil0 str0" d="M257 108c0,1 0,1 0,2 -1,1 -2,2 -4,2 -1,1 -2,1 -3,2 0,0 -1,0 -1,1"/>
 <path class="fil0 str0" d="M301 58c2,2 3,3 4,5 1,2 2,4 1,6 0,2 0,4 0,6 0,1 0,2 0,2 0,1 1,1 1,1"/>
 <path class="fil0 str0" d="M307 78c0,0 1,0 2,-1 0,0 1,-1 2,-2"/>
 <path class="fil0 str0" d="M311 75c-1,1 -1,3 -1,4 0,1 0,2 1,3 0,1 0,2 0,2 0,1 0,1 0,2 0,0 0,1 0,1"/>
 <path class="fil0 str0" d="M311 87c1,0 2,-1 4,-1 0,-1 1,-1 2,-2 0,-1 1,-2 1,-3 0,0 0,-1 0,-1"/>
 <path class="fil0 str0" d="M318 80c0,0 0,0 0,0 1,0 1,1 1,2 0,1 0,1 0,2 -1,1 -1,2 -2,3 0,2 0,3 0,5 0,1 0,2 1,3 0,1 0,2 0,2 0,1 0,1 0,2 0,0 0,0 0,1"/>
 <path class="fil0 str0" d="M318 100c1,-1 3,-1 4,-2 2,-1 3,-2 3,-3 0,-1 0,-1 0,-2"/>
 <path class="fil0 str0" d="M321 98c-1,2 -2,4 -2,6 1,2 2,5 4,6 1,1 3,2 4,3 0,1 0,2 0,3"/>
 <path class="fil0 str0" d="M327 116c1,-1 1,-2 1,-2 1,-1 3,-1 4,-1 2,-1 4,-1 4,-3 1,-1 1,-1 1,-2"/>
 <path class="fil0 str0" d="M410 36c-3,1 -6,1 -8,2 -3,1 -5,4 -6,7 -2,3 0,8 1,11 2,3 3,5 6,6 2,1 3,1 5,0 1,-1 1,-2 1,-3 1,-1 0,-2 0,-3"/>
 <path class="fil0 str0" d="M417 37c3,1 6,1 7,3 2,1 3,3 3,5 1,2 2,3 2,5 0,1 0,2 0,2"/>
 <path class="fil0 str0" d="M429 52c1,-1 1,-2 2,-2 1,-1 2,-1 4,-2 1,0 2,-1 3,-2 0,0 0,0 0,-1"/>
 <path class="fil0 str0" d="M438 45c1,1 2,2 3,4 1,2 1,4 0,6 -1,1 -2,2 -3,3"/>
 <path class="fil0 str0" d="M339 37c4,0 8,0 11,1 1,1 3,2 4,3 2,0 3,1 4,1 1,0 1,0 2,0 1,0 1,-1 2,-1"/>
 <path class="fil0 str0" d="M362 41c0,1 1,2 0,4 -1,1 -2,2 -4,2 0,0 0,0 -1,0"/>
 <path class="fil0 str0" d="M357 47c4,1 8,2 11,0 1,0 2,-1 2,-1 2,-1 5,-1 7,-1 1,0 2,0 3,0 0,-1 1,-1 1,-1"/>
 <path class="fil0 str0" d="M381 44c1,1 1,3 1,4 -1,2 -3,2 -5,3 -1,1 -2,1 -3,1 0,-1 0,-1 0,-1"/>
 <path class="fil0 str0" d="M374 51c0,0 0,1 1,1 0,0 1,0 2,0 0,0 1,0 2,0 1,0 2,0 3,0 0,0 1,0 1,-1"/>
 <path class="fil0 str0" d="M383 51c0,1 1,3 1,3 -1,2 -2,2 -3,3 -2,0 -3,0 -4,0"/>
 <path class="fil0 str0" d="M377 57c1,0 2,1 4,1 1,0 2,0 4,-1 1,0 2,0 3,-1 1,0 2,1 4,1 0,0 1,0 2,-1 0,0 0,0 0,0"/>
 <path class="fil0 str0" d="M394 56c1,1 3,3 2,4 0,2 -1,3 -3,3 0,0 0,0 -1,0"/>
 <path class="fil0 str0" d="M392 63c1,0 2,0 3,0 1,-1 3,-1 5,-1 0,0 1,1 2,1 1,0 2,0 2,0 0,0 0,0 0,0"/>
 <path class="fil0 str0" d="M405 63c0,0 0,1 0,1 0,1 -1,1 -2,1"/>
 <path class="fil0 str0" d="M403 65c1,0 2,0 3,0 2,0 3,-1 4,-2 0,-1 1,-2 1,-3 0,-1 -1,-1 -1,-2 0,-1 -1,-1 -1,-2"/>
 <path class="fil0 str0" d="M413 79c-1,1 -2,3 -3,4 -2,1 -5,1 -8,1 -3,0 -5,0 -8,0 -2,-1 -4,-1 -5,-2 -1,-1 -2,-2 -3,-3"/>
 <path class="fil0 str0" d="M386 79c1,1 1,2 2,3 0,1 0,2 0,4 0,1 0,2 0,2 0,0 0,0 0,1"/>
 <path class="fil0 str0" d="M388 89c0,0 -1,0 -2,-1 -1,0 -2,0 -2,-1 0,0 0,-1 0,-1"/>
 <path class="fil0 str0" d="M384 86c0,1 0,2 0,3 0,1 -1,2 -1,3 -1,1 -1,2 -1,3 0,0 1,1 1,1"/>
 <path class="fil0 str0" d="M383 96c-2,0 -4,0 -5,0 -1,-1 -2,-2 -3,-3 -1,-1 -1,-2 -1,-3 0,-1 0,-1 0,-2"/>
 <path class="fil0 str0" d="M374 88c0,1 0,2 -1,2 0,0 0,0 -1,0 0,1 0,1 0,2"/>
 <path class="fil0 str0" d="M372 92c0,-1 -1,-2 -1,-2 0,-1 0,-1 0,-2 0,0 0,0 0,-1"/>
 <path class="fil0 str0" d="M371 87c-1,1 -1,1 -2,2 -1,1 -3,1 -4,0 0,0 0,-1 0,-1"/>
 <path class="fil0 str0" d="M365 88c0,-1 1,-2 1,-3 0,-1 -1,-3 -3,-4 -1,-1 -2,-2 -3,-3 -1,-1 -2,-3 -3,-4 0,-1 0,-2 0,-4 0,0 0,-1 1,-1"/>
 <path class="fil0 str0" d="M438 58c1,0 1,0 2,0 0,0 1,0 1,0 0,0 0,-1 0,-1"/>
 <path class="fil0 str0" d="M441 57c1,1 1,3 0,4 0,1 -2,3 -3,4 -2,2 -3,3 -5,4 -1,1 -2,1 -3,2 -1,0 -1,0 -2,0"/>
 <path class="fil0 str0" d="M337 108c0,1 1,2 2,3 2,0 3,0 5,0 1,-1 2,-1 3,-2 0,-1 0,-1 0,-2"/>
 <path class="fil0 str0" d="M347 107c0,2 0,3 1,5 0,1 1,3 3,3 1,1 3,0 4,0 1,-1 1,-3 1,-4 0,-1 -1,-1 -1,-2 -1,0 -1,-1 -1,-1"/>
 <path class="fil0 str0" d="M354 108c0,0 0,1 0,1 1,3 5,4 7,3 2,-1 2,-2 2,-4 0,-1 0,-2 -1,-3 -1,-1 -2,-1 -3,-1 0,0 -1,0 -2,0"/>
 <path class="fil0 str0" d="M357 104c1,0 2,0 3,1 2,0 5,-1 6,-3 0,-2 0,-3 0,-5 -1,0 -2,-1 -3,-2 -2,0 -4,0 -5,1 0,0 -1,0 -1,1"/>
 <path class="fil0 str0" d="M259 83c-1,1 -2,2 -3,2 -2,1 -3,1 -5,1 -1,0 -1,0 -2,0"/>
 <path class="fil0 str0" d="M331 62c2,2 4,4 6,6 2,4 4,8 5,12 0,1 0,2 0,4 0,2 1,3 2,4 2,0 4,0 5,-2 1,0 1,-1 1,-2 0,-1 -1,-2 -1,-2 -1,-1 -2,-1 -2,-1"/>
 <path class="fil0 str0" d="M347 81c1,0 3,0 3,0 1,1 1,4 2,5 0,0 0,0 0,0"/>
 <path class="fil0 str0" d="M352 86c1,0 1,-1 2,-1 0,-1 1,-1 1,-2 0,0 0,-1 -1,-1"/>
 <path class="fil0 str0" d="M354 82c1,0 1,1 1,1 0,1 0,2 0,2 -1,1 -1,1 -1,2 0,0 -1,1 -1,1"/>
 <path class="fil0 str0" d="M353 88c2,1 4,1 6,1 1,-1 2,-2 2,-4 1,-1 1,-2 0,-3 0,-1 0,-1 -1,-2"/>
 <path class="fil0 str0" d="M638 52c1,0 1,-1 1,-1 0,-1 0,-1 0,-2"/>
 <path class="fil0 str0" d="M639 49c1,1 2,1 3,2 1,1 1,2 1,3 0,1 0,2 -1,2"/>
 <path class="fil0 str0" d="M642 56c1,0 1,0 2,0 0,-1 1,-1 1,-1"/>
 <path class="fil0 str0" d="M645 55c0,0 1,1 1,1 0,3 -1,6 -2,9 -2,3 -6,4 -8,7 -1,2 -2,4 -2,5 -1,2 -1,3 -1,4 0,1 0,1 0,2"/>
 <path class="fil0 str0" d="M704 187c0,-1 1,-2 2,-2 1,0 2,1 2,2 0,1 -1,1 -2,1 -1,0 -2,0 -2,-1z"/>
 <path class="fil0 str0" d="M700 189c0,-1 1,-2 2,-2 1,0 2,1 2,2 0,1 -1,1 -2,1 -1,0 -2,0 -2,-1z"/>
 <path class="fil0 str0" d="M695 191c0,-1 1,-2 2,-2 0,0 1,1 1,2 0,1 -1,2 -1,2 -1,0 -2,-1 -2,-2z"/>
 <path class="fil0 str0" d="M691 193c0,-1 0,-2 1,-2 1,0 2,1 2,2 0,1 -1,1 -2,1 -1,0 -1,0 -1,-1z"/>
 <path class="fil0 str0" d="M686 194c0,-1 1,-1 2,-1 0,0 1,0 1,1 0,1 -1,2 -1,2 -1,0 -2,-1 -2,-2z"/>
 <path class="fil0 str0" d="M681 196c0,-1 1,-2 2,-2 1,0 1,1 1,2 0,1 0,1 -1,1 -1,0 -2,0 -2,-1z"/>
 <path class="fil0 str0" d="M675 196c0,-1 1,-2 2,-2 1,0 2,1 2,2 0,1 -1,2 -2,2 -1,0 -2,-1 -2,-2z"/>
 <path class="fil0 str0" d="M669 196c0,-1 1,-2 2,-2 1,0 2,1 2,2 0,1 -1,2 -2,2 -1,0 -2,-1 -2,-2z"/>
 <path class="fil0 str0" d="M662 195c0,-1 1,-2 2,-2 1,0 2,1 2,2 0,1 -1,2 -2,2 -1,0 -2,-1 -2,-2z"/>
 <path class="fil0 str0" d="M656 194c0,-1 1,-2 2,-2 1,0 2,1 2,2 0,1 -1,2 -2,2 -1,0 -2,-1 -2,-2z"/>
 <path class="fil0 str0" d="M629 184c0,-2 1,-3 2,-3 1,0 3,1 3,3 0,1 -2,2 -3,2 -1,0 -2,-1 -2,-2z"/>
 <path class="fil0 str0" d="M622 180c0,-2 1,-3 3,-3 1,0 2,1 2,3 0,1 -1,2 -2,2 -2,0 -3,-1 -3,-2z"/>
 <path class="fil0 str0" d="M616 174c0,-1 1,-2 3,-2 2,0 3,1 3,2 0,2 -1,3 -3,3 -2,0 -3,-1 -3,-3z"/>
 <path class="fil0 str0" d="M611 169c0,-1 1,-3 2,-3 2,0 3,2 3,3 0,2 -1,3 -3,3 -1,0 -2,-1 -2,-3z"/>
 <path class="fil0 str0" d="M310 107c1,0 2,0 3,1 2,0 4,2 5,3 1,1 1,2 2,3 1,0 1,1 2,1"/>
 <path class="fil0 str0" d="M309 114c2,1 3,1 4,2 1,1 1,3 2,4 1,0 1,1 2,2"/>
 <path class="fil0 str0" d="M306 125c2,1 3,2 4,3 0,0 1,1 1,1"/>
 <path class="fil0 str0" d="M278 171c2,2 4,4 5,7 4,4 6,9 8,15 1,2 2,5 3,7 0,1 1,1 1,1 1,2 3,2 5,2 1,0 2,-1 3,-1 0,-1 0,-1 0,-1 1,-2 1,-3 2,-5"/>
 <path class="fil0 str0" d="M283 162c2,2 4,3 6,5 3,2 5,4 7,6 1,2 2,3 3,5"/>
 <path class="fil0 str0" d="M286 155c1,1 2,1 3,2 2,1 3,2 5,3 1,1 2,2 3,4"/>
 <path class="fil0 str0" d="M289 144c2,0 3,0 5,1 1,0 2,1 3,2 1,1 2,1 3,2"/>
 <path class="fil0 str0" d="M297 135c1,1 2,1 3,2 1,1 3,2 4,3"/>
 <path class="fil0 str0" d="M302 131c2,0 3,1 4,2 0,0 1,1 1,1"/>
 <path class="fil0 str0" d="M274 177c3,3 6,6 8,10 2,4 4,8 5,13 1,3 2,7 2,10 1,3 1,5 0,7"/>
 <path class="fil0 str0" d="M262 202c-2,0 -4,-1 -5,-1 -1,1 -3,2 -3,3 -1,2 -1,3 -1,5 0,3 1,5 3,7 3,2 7,4 10,3 4,-2 7,-8 8,-13 1,-7 0,-13 -3,-18 -1,-3 -3,-5 -4,-7 -2,-2 -4,-5 -6,-7 -2,-2 -5,-3 -8,-4 -1,-1 -3,-1 -4,-1"/>
 <path class="fil0 str0" d="M249 180c2,1 3,1 6,3 2,2 5,4 6,8 1,2 1,4 1,6 0,1 0,3 0,4 -1,0 -1,1 -1,2"/>
 <path class="fil0 str0" d="M262 202c1,1 2,2 3,3 1,2 1,4 0,5 -1,1 -2,2 -3,2 -1,0 -2,0 -2,-1 -1,0 -1,-1 -1,-1"/>
 <path class="fil0 str0" d="M271 180c2,4 4,7 5,11 2,4 2,9 2,14 -1,2 -1,4 -2,7 0,0 0,1 0,2"/>
 <path class="fil0 str0" d="M276 214c2,1 4,1 5,0 1,0 1,-1 1,-2"/>
 <path class="fil0 str0" d="M704 210c-3,1 -6,2 -9,3 -8,3 -16,3 -24,3 -12,1 -25,-1 -37,-6 -6,-3 -12,-7 -18,-11 -7,-5 -13,-10 -19,-16 -5,-6 -10,-11 -14,-18 -1,-2 -3,-5 -4,-7 0,-1 0,-1 0,-2"/>
 <path class="fil0 str0" d="M579 156c-6,-3 -11,-7 -17,-10 -9,-3 -19,-5 -29,-5 -19,0 -38,3 -55,10 -13,6 -25,13 -38,19 -5,2 -10,4 -15,7 -2,1 -5,2 -7,3"/>
 <path class="fil0 str0" d="M703 213c-1,0 -3,1 -5,1 -5,2 -11,3 -16,4 -8,1 -15,1 -22,0 -9,0 -17,-2 -25,-5 -11,-4 -20,-11 -29,-18 -9,-7 -18,-15 -24,-24 -2,-3 -4,-7 -6,-11 0,0 0,-1 0,-1"/>
 <path class="fil0 str0" d="M576 159c-4,-3 -7,-5 -11,-7 -9,-5 -19,-7 -30,-8 -16,0 -32,2 -47,7 -11,4 -22,9 -33,15 -10,4 -19,9 -29,13 -2,1 -5,2 -7,2"/>
 <path class="fil0 str0" d="M412 184c-2,1 -5,2 -7,3 -1,0 -2,0 -3,1"/>
 <path class="fil0 str0" d="M399 189c-3,0 -5,1 -7,2 -1,0 -2,0 -3,1"/>
 <path class="fil0 str0" d="M388 192c-4,1 -9,2 -13,3 -4,0 -7,1 -11,1"/>
 <path class="fil0 str0" d="M363 196c-1,0 -2,0 -3,0 -2,0 -5,0 -7,0"/>
 <path class="fil0 str0" d="M345 196c-2,-1 -5,-1 -7,-2 -4,-2 -7,-3 -10,-6 -1,-2 -2,-3 -3,-5"/>
 <line class="fil0 str0" x1="715" y1="238" x2="715" y2= "871" />
 <path class="fil0 str0" d="M568 162c-7,-4 -8,-5 -10,-5 -5,-2 -14,-3 -23,-4 -13,0 -25,2 -36,5 -8,2 -16,5 -24,9 -6,2 -12,5 -19,8 -3,2 -7,4 -11,6"/>
 <path class="fil0 str0" d="M628 108c1,-5 2,-10 3,-14 2,-4 4,-8 7,-11 4,-4 10,-5 16,-6 3,0 6,0 8,2 2,2 4,4 3,6 0,0 0,0 0,1 -1,0 -1,0 -1,1"/>
 <path class="fil0 str0" d="M664 87c0,0 0,1 1,1 0,0 1,0 2,0 1,0 1,0 2,-1"/>
 <path class="fil0 str0" d="M669 87c-1,1 -2,1 -3,2 0,1 0,1 -1,2 0,1 0,1 0,1 0,0 -1,1 -1,1 -1,0 -1,0 -2,0 0,-1 0,-1 0,-1"/>
 <path class="fil0 str0" d="M662 92c0,1 0,2 0,3 0,1 1,2 2,2 1,1 2,1 4,0 1,0 2,-1 2,-2 0,0 0,-1 0,-1"/>
 <path class="fil0 str0" d="M670 94c1,1 1,1 1,2 0,1 -1,2 -1,2 -1,1 -2,1 -3,1 -1,0 -1,0 -2,0 0,1 0,1 0,1 0,0 0,0 -1,0 0,0 0,0 0,0"/>
 <path class="fil0 str0" d="M664 100c0,1 0,3 1,3 1,1 1,1 2,1 1,0 2,0 2,0 0,0 1,-1 1,-1"/>
 <path class="fil0 str0" d="M663 103c-1,0 -3,-1 -3,-2 0,0 -1,-1 0,-1 0,0 0,-1 0,-1"/>
 <path class="fil0 str0" d="M660 99c-1,0 -2,0 -3,0 -1,1 -1,2 -1,3 0,1 0,2 1,3"/>
 <path class="fil0 str0" d="M664 87c-4,-1 -7,-1 -11,-1 -4,0 -8,2 -11,4 -3,2 -5,4 -7,7 -1,2 -2,4 -2,6 -1,3 -2,6 -2,8 1,1 1,2 1,3"/>
 <path class="fil0 str0" d="M618 134c-2,-4 -3,-7 -5,-10 -2,-3 -5,-6 -9,-7 -1,0 -2,-1 -3,0 -1,0 -1,1 -1,1 0,1 0,1 0,2"/>
 <path class="fil0 str0" d="M617 127c-1,-4 -3,-7 -5,-10 -1,-1 -3,-3 -4,-5 -1,0 -2,-1 -3,-2 -1,0 -2,0 -3,-1 0,0 -1,-1 -1,-1 0,-1 -1,-1 -1,-1 0,-1 0,-1 0,-1"/>
 <path class="fil0 str0" d="M619 110c-2,-2 -3,-5 -5,-8 -1,-1 -1,-3 -2,-4 -1,-2 -1,-3 -1,-4 0,-1 0,-1 0,-2 0,0 0,-1 0,-1"/>
 <path class="fil0 str0" d="M622 107c-1,-3 -1,-6 -2,-8 -1,-3 -1,-5 -3,-7 0,-1 -1,-2 -2,-4 0,0 -1,-1 -1,-1 0,-1 -1,-1 -1,-2 0,-1 0,-1 0,-2 0,0 1,-1 1,-1"/>
 <path class="fil0 str0" d="M626 108c0,-4 0,-7 0,-10 0,-2 0,-4 1,-6 0,-2 1,-5 2,-8 0,0 0,-1 0,-1"/>
 <path class="fil0 str0" d="M646 169c-2,-1 -4,-3 -6,-5 -1,-1 -2,-3 -2,-4 -1,-1 -1,-3 -1,-4 -1,-1 -1,-2 -1,-3 0,-1 0,-1 -1,-1 0,-1 0,-2 0,-2 0,0 0,-1 0,-1"/>
 <path class="fil0 str0" d="M635 149c-1,1 -2,1 -2,2 -1,2 -1,3 0,4 0,0 0,1 0,1"/>
 <path class="fil0 str0" d="M633 156c-1,-1 -2,-2 -2,-3 0,-1 2,-3 2,-4 0,-1 0,-1 0,-2 0,-1 -1,-1 0,-1 0,-1 0,-1 1,-2"/>
 <path class="fil0 str0" d="M634 144c-2,0 -3,0 -4,1 -1,0 -1,1 -1,2 0,0 0,0 -1,1"/>
 <path class="fil0 str0" d="M628 148c0,-1 0,-1 0,-2 0,0 1,-1 1,-1 0,-1 0,-2 1,-2 0,-1 0,-2 -1,-2 0,0 0,-1 0,-1 0,-1 0,-1 0,-1 0,0 1,0 1,0"/>
 <path class="fil0 str0" d="M630 139c-1,-1 -2,-1 -3,-1 -2,0 -3,2 -4,4 0,1 0,2 0,3 0,0 0,1 0,2"/>
 <path class="fil0 str0" d="M692 164c-3,0 -5,0 -8,-1 -3,-1 -6,-2 -9,-3 -2,-2 -5,-3 -6,-6 -1,-1 -2,-3 -2,-4 0,-1 0,-3 0,-4"/>
 <path class="fil0 str0" d="M685 168c-4,0 -8,0 -11,-1 -5,-1 -8,-4 -12,-7 -3,-2 -6,-5 -7,-9 -1,-2 -1,-4 -2,-6 0,-3 0,-6 1,-8 0,0 1,-1 2,-2"/>
 <path class="fil0 str0" d="M642 127c-1,-2 -1,-4 -1,-5 1,-1 1,-2 2,-3 1,0 2,-1 2,-1 1,-1 1,-1 1,-2 1,0 1,-1 1,-1"/>
 <path class="fil0 str0" d="M701 155c1,-2 2,-4 3,-5 3,-4 9,-4 14,-3 5,1 9,3 12,7 3,3 5,7 6,12 2,6 2,12 2,18 0,3 -1,7 -2,11"/>
 <path class="fil0 str0" d="M712 210c2,-2 4,-3 6,-4 3,-3 5,-6 6,-10 1,-2 2,-3 2,-6 0,-1 0,-2 0,-2 1,0 1,0 1,0"/>
 <path class="fil0 str0" d="M366 122c2,-3 4,-6 7,-8 2,-2 4,-3 6,-4 3,-2 6,-4 9,-5 2,-1 4,-1 6,-1 1,-1 3,-1 4,-1"/>
 <path class="fil0 str0" d="M340 45c5,1 10,3 14,6 4,3 8,8 12,12 3,2 6,4 9,6 2,1 5,2 7,3 1,0 2,0 3,0 1,0 1,0 2,0"/>
 <path class="fil0 str0" d="M374 72c1,1 3,1 4,3 1,1 2,2 3,4 0,1 1,2 1,3 -1,0 -1,1 -1,2"/>
 <path class="fil0 str0" d="M367 71c1,2 1,3 2,4 1,1 2,1 2,2 1,1 2,2 2,4 0,0 0,1 0,2 -1,0 -1,0 -2,0 0,-1 0,-1 0,-2 0,0 0,0 0,0"/>
 <path class="fil0 str0" d="M298 52c2,1 5,1 7,3 2,2 4,5 5,8 0,2 1,3 1,5 0,1 0,2 0,3"/>
 <path class="fil0 str0" d="M299 49c4,0 8,1 11,2 5,3 8,8 10,13 2,3 3,6 4,9 1,2 2,5 2,8 0,2 0,4 0,6"/>
 <path class="fil0 str0" d="M331 107c1,-2 2,-4 2,-6 1,-4 2,-8 2,-11 0,-3 0,-6 -1,-9"/>
 <path class="fil0 str0" d="M336 105c1,-2 3,-3 3,-4 1,-3 0,-6 0,-8 -1,-2 -1,-3 -2,-4"/>
 <path class="fil0 str0" d="M259 83c0,-2 1,-3 0,-5 0,-1 -1,-3 -1,-5 -1,-3 -2,-6 -2,-9 -1,-4 -1,-7 -1,-11 0,-2 0,-4 1,-6 1,-1 1,-2 2,-2 0,0 1,2 1,4"/>
 <path class="fil0 str0" d="M268 50c0,-1 0,-2 0,-3 0,-1 0,-2 1,-3 0,0 1,-1 1,-1 0,-1 0,-1 0,-2 0,0 1,0 1,-1"/>
 <path class="fil0 str0" d="M271 40c-1,0 -2,0 -4,0 -1,0 -3,2 -4,3 0,1 1,1 1,2"/>
 <path class="fil0 str0" d="M264 45c-1,0 -1,0 -1,0 -1,-1 -1,-2 0,-3 0,-1 0,-1 1,-2 0,0 0,0 0,-1 1,0 1,-1 1,-1 0,0 0,-1 1,-1 0,0 0,0 0,0"/>
 <path class="fil0 str0" d="M266 37c0,0 -1,0 -1,0 -2,-1 -3,0 -5,1 -1,0 -3,1 -3,2 0,1 0,2 0,3"/>
 <path class="fil0 str0" d="M257 43c0,0 -1,1 -1,1 -1,0 -1,-1 -1,-2 -1,0 0,-1 1,-2 0,0 1,0 1,0 0,0 0,-1 1,-1 0,-1 0,-1 0,-1 0,-1 0,-1 0,-1 0,0 0,0 0,0"/>
 <path class="fil0 str0" d="M258 37c-1,0 -1,0 -2,0 0,0 0,1 0,1"/>
 <path class="fil0 str0" d="M256 38c0,-1 0,-1 0,-1 -1,0 -1,-1 -1,-1 0,0 0,0 0,0 0,0 0,0 0,0"/>
 <path class="fil0 str0" d="M260 83c2,-1 3,-1 3,-2 2,-1 2,-4 1,-7 -1,-2 -2,-4 -3,-6 -1,-1 -2,-2 -3,-4 0,-2 0,-4 1,-6 0,-1 0,-1 0,-2"/>
 <path class="fil0 str0" d="M641 183c-4,-1 -8,-3 -11,-5 -4,-3 -8,-7 -12,-11 -2,-2 -4,-4 -7,-5 -1,0 -2,-1 -4,-1 -1,0 -2,1 -3,1 0,0 0,0 0,0"/>
 <path class="fil0 str0" d="M604 162c-1,0 -1,-1 0,-2 0,-1 0,-2 1,-2 0,0 0,0 1,1"/>
 <path class="fil0 str0" d="M606 159c-2,0 -3,0 -5,-1 -1,0 -2,0 -2,0 -1,-1 -2,-2 -3,-2 -1,-1 -2,-1 -3,-1 0,0 0,0 -1,-1"/>
 <path class="fil0 str0" d="M592 154c1,-1 2,-2 3,-3 1,-1 3,0 5,0 1,0 2,0 4,1"/>
 <path class="fil0 str0" d="M619 161c-3,-3 -6,-6 -10,-8 -2,-1 -4,-2 -6,-4 -2,-2 -4,-6 -4,-10 0,-2 0,-5 1,-7 0,-1 1,-2 1,-3 1,-1 1,-2 0,-3 0,0 0,0 0,0"/>
 <path class="fil0 str0" d="M601 126c2,1 4,1 6,3 1,1 2,4 2,6 0,1 0,2 0,2"/>
 <path class="fil0 str0" d="M609 137c1,-1 1,-1 1,-3 1,0 1,0 1,-1 -1,0 -1,0 -1,-1"/>
 <path class="fil0 str0" d="M639 153c4,4 7,8 11,11 4,4 9,7 15,9 3,1 6,2 10,2 6,1 12,0 18,-1 3,0 5,-1 7,-2 0,0 1,0 1,-1"/>
 <path class="fil0 str0" d="M577 144c1,0 2,0 4,0 2,0 4,2 6,3 1,1 2,2 3,3"/>
 <path class="fil0 str0" d="M590 150c-1,-1 -1,-1 -2,-1 -1,0 -2,0 -3,0 -1,0 -2,0 -2,-1 0,0 -1,0 -1,-1"/>
 <path class="fil0 str0" d="M582 147c0,1 0,2 1,3"/>
 <path class="fil0 str0" d="M249 236c2,0 3,0 5,-1 1,-1 3,-2 3,-4 0,0 0,-1 0,-2 0,0 0,-1 -1,-2"/>
 <path class="fil0 str0" d="M256 227c1,2 3,3 4,3 3,1 6,0 7,-2 1,0 1,-2 1,-3 0,0 0,-1 0,-2 0,0 -1,-1 -1,-1 -1,-1 -1,-1 -2,-1"/>
 <path class="fil0 str0" d="M255 216c1,1 2,1 3,2 0,0 0,1 1,1 0,1 0,1 0,2 0,0 0,1 0,1 0,0 0,0 0,0 1,1 1,1 1,1"/>
 <path class="fil0 str0" d="M260 223c-1,1 -3,2 -4,2 -1,0 -2,-1 -2,-1 -1,0 -1,-1 -1,-1"/>
 <path class="fil0 str0" d="M253 223c0,0 0,1 0,2 -1,0 -1,1 -2,1 0,0 0,0 0,0 -1,1 -1,1 -2,1 0,1 0,1 0,1"/>
 <path class="fil0 str0" d="M308 208c0,1 0,2 -1,2 0,2 -3,3 -3,5 0,0 0,0 0,0 0,1 0,1 0,1"/>
 <path class="fil0 str0" d="M304 216c-1,0 -2,0 -4,0 -1,-1 -3,-2 -3,-3 0,0 1,0 1,-1"/>
 <path class="fil0 str0" d="M298 212c0,1 0,1 0,2 1,2 0,5 -2,6 -2,2 -5,1 -7,3 0,1 0,1 0,2 0,0 0,0 0,0"/>
 <path class="fil0 str0" d="M289 225c-1,0 -1,0 -2,0 -1,0 -3,-1 -3,-2 0,-1 0,-1 0,-2"/>
 <path class="fil0 str0" d="M284 221c-1,2 -1,3 -2,4 -2,2 -4,2 -7,2 0,0 -1,0 -2,0 0,0 -1,0 -1,1"/>
 <path class="fil0 str0" d="M272 228c-1,-1 -1,-1 -1,-1 0,0 0,0 0,0"/>
 <path class="fil0 str0" d="M271 227c-1,0 -1,0 -2,0 -1,0 -1,0 -2,0"/>
 <path class="fil0 str0" d="M284 151c2,1 4,1 5,2 2,1 4,2 5,3 1,2 3,3 4,4"/>
 <path class="fil0 str0" d="M292 140c2,0 3,1 5,1 1,1 3,2 5,4"/>
 <path class="fil0 str0" d="M529 114c-3,0 -6,0 -9,1 -10,0 -20,2 -30,4 -7,2 -14,4 -20,7 -3,1 -5,2 -8,3"/>
 <path class="fil0 str0" d="M529 116c-4,0 -8,0 -12,1 -8,1 -16,2 -24,4 -5,1 -10,2 -15,4 -5,2 -10,4 -15,6 0,0 -1,0 -1,0"/>
 <path class="fil0 str0" d="M529 121c-2,1 -5,1 -7,1 -6,0 -11,1 -17,2 -6,1 -12,3 -18,4 -5,2 -10,3 -15,5 -4,1 -7,2 -10,4 0,0 -1,0 -1,0"/>
 <path class="fil0 str0" d="M533 107c-5,-1 -9,0 -14,0 -9,0 -17,2 -26,3 -6,2 -11,3 -17,5 -4,1 -7,3 -11,4"/>
 <path class="fil0 str0" d="M465 119c-2,-2 -4,-5 -6,-7 0,0 0,0 0,0"/>
 <path class="fil0 str0" d="M535 105c-2,0 -4,0 -6,0 -9,0 -17,0 -26,2 -6,1 -13,2 -19,4 -4,1 -9,3 -13,4 -2,1 -4,1 -5,2"/>
 <path class="fil0 str0" d="M466 117c-2,-2 -3,-3 -4,-5"/>
 <path class="fil0 str0" d="M462 112c3,-3 5,-6 8,-9 3,-4 6,-8 8,-13 2,-3 3,-7 3,-10 1,-4 1,-7 2,-10 0,-1 0,-2 0,-3"/>
 <path class="fil0 str0" d="M459 111c0,0 0,0 0,0 1,-1 2,-2 3,-3 3,-2 6,-5 8,-9 3,-3 5,-6 6,-10 3,-5 4,-11 4,-17 0,-3 0,-5 0,-7"/>
 <path class="fil0 str0" d="M479 63c0,2 0,3 0,5 0,3 0,7 -1,10 -1,4 -2,7 -3,11 -2,3 -4,7 -6,10 -3,3 -5,5 -8,8 -1,1 -2,2 -2,3 -1,0 -2,1 -2,1"/>
 <path class="fil0 str0" d="M457 111c2,3 4,6 7,9"/>
 <path class="fil0 str0" d="M464 120c3,0 5,-1 8,-2 5,-2 10,-4 15,-5 5,-1 10,-2 15,-3 4,-1 9,-2 13,-2 4,0 7,-1 11,-1 2,0 4,0 6,0"/>
 <path class="fil0 str0" d="M462 129c-1,-1 -2,-3 -3,-5 0,0 -1,0 -1,-1"/>
 <path class="fil0 str0" d="M452 107c9,-9 12,-13 17,-24"/>
 <path class="fil0 str0" d="M469 83c1,-3 2,-7 2,-11 1,-4 1,-7 1,-11 1,-2 1,-4 1,-6"/>
 <line class="fil0 str0" x1="473" y1="55" x2="636" y2= "55" />
 <path class="fil0 str0" d="M443 105c2,0 5,0 7,1 2,0 3,1 5,3 1,1 2,3 2,5 1,0 1,1 1,2 1,0 1,1 2,1 1,0 1,0 1,0"/>
 <path class="fil0 str0" d="M461 117c0,1 0,1 -1,1 -1,1 -2,1 -3,1 0,0 -1,0 -1,0"/>
 <path class="fil0 str0" d="M456 119c0,1 1,1 2,2 0,1 0,3 -1,4 0,1 -1,1 -1,2 0,1 0,1 0,2"/>
 <path class="fil0 str0" d="M456 129c-1,-1 -2,-1 -3,-2 -1,0 -2,-1 -2,-2 0,-1 0,-1 0,-2 0,-1 0,-1 0,-2"/>
 <path class="fil0 str0" d="M443 105c2,0 4,0 6,-1 1,0 1,0 1,0 0,0 0,-1 1,-1 0,0 0,-1 0,-1 1,0 1,0 1,0"/>
 <path class="fil0 str0" d="M452 102c-1,0 -1,0 -2,0 0,0 -1,-1 -2,0 0,0 0,0 0,0"/>
 <path class="fil0 str0" d="M448 102c0,0 -1,0 -1,0 0,-1 0,-1 0,-1 1,-1 1,-1 1,-1 2,0 3,0 5,0 1,0 2,0 3,-1 0,0 1,-1 1,-2 0,0 0,0 0,0 0,0 0,0 0,0 1,0 1,0 1,-1"/>
 <path class="fil0 str0" d="M458 96c-1,0 -1,0 -2,-1 -1,0 -3,0 -3,1 -1,0 -1,0 -1,0"/>
 <path class="fil0 str0" d="M456 96c0,-1 0,-1 0,-1 1,-2 2,-3 3,-5 2,-1 3,-2 4,-2 2,-2 3,-3 5,-4 1,-1 1,-3 2,-4 0,-1 0,-1 0,-2"/>
 <path class="fil0 str0" d="M470 78c0,0 0,0 0,0 -1,0 -2,0 -2,1 0,0 0,0 0,0 0,0 -1,0 -1,0 0,0 0,0 0,0 0,0 0,0 0,0"/>
 <path class="fil0 str0" d="M467 79c1,-2 1,-4 2,-6 0,-2 1,-4 1,-6 0,-2 0,-4 -1,-6 0,-1 -1,-2 -1,-3 -1,-1 -1,-1 -1,-2 0,-1 0,-2 1,-2 0,0 0,-1 0,-1"/>
 <path class="fil0 str0" d="M468 53c-1,0 -2,0 -3,0 0,1 -1,1 -1,2 0,0 0,1 0,1 0,1 0,1 0,2"/>
 <path class="fil0 str0" d="M464 58c-2,-1 -4,-2 -6,-3 -1,0 -3,0 -4,0 -1,1 -3,2 -4,2 0,1 -1,1 -1,2 -1,1 -1,2 -1,3 0,0 0,0 1,1"/>
 <path class="fil0 str0" d="M469 69c1,-2 1,-4 1,-5 0,-3 0,-5 0,-7 0,-1 0,-3 0,-4"/>
 <line class="fil0 str0" x1="470" y1="53" x2="637" y2= "53" />
 <path class="fil0 str0" d="M465 54c0,-2 0,-4 0,-6"/>
 <line class="fil0 str0" x1="465" y1="48" x2="719" y2= "48" />
 <line class="fil0 str0" x1="462" y1="131" x2="457" y2= "125" />
 <line class="fil0 str0" x1="461" y1="137" x2="453" y2= "128" />
 <path class="fil0 str0" d="M324 192c1,2 3,4 5,6 2,2 5,3 7,4 2,0 4,0 5,0 1,0 2,-1 3,-1"/>
 <path class="fil0 str0" d="M329 204c4,3 9,6 14,7 3,0 7,1 10,-1 1,-1 2,-2 3,-3 1,0 2,-1 2,-2 1,-1 2,-2 2,-3 1,0 1,0 1,0 0,0 1,0 1,0 0,0 0,0 -1,1"/>
 <path class="fil0 str0" d="M353 215c4,0 8,0 12,-1 2,-1 5,-3 5,-6 1,-2 0,-4 2,-4 0,0 0,0 0,0 0,0 0,1 0,1"/>
 <path class="fil0 str0" d="M356 217c4,1 9,1 13,0 4,-2 8,-5 11,-9 0,-1 1,-2 1,-4 1,-1 1,-2 0,-3"/>
 <path class="fil0 str0" d="M378 215c2,-2 4,-3 6,-5 2,-1 4,-3 5,-5 0,-2 0,-3 0,-5 0,0 0,-1 0,-1"/>
 <path class="fil0 str0" d="M378 217c6,-3 13,-5 18,-9 4,-3 8,-6 12,-9 2,-2 4,-4 6,-6 0,-1 1,-1 1,-2"/>
 <path class="fil0 str0" d="M405 211c4,-2 8,-3 11,-6 3,-2 5,-5 7,-8 1,-2 1,-3 2,-5"/>
 <path class="fil0 str0" d="M425 202c3,-2 6,-4 8,-8 1,-1 2,-3 2,-5 0,0 1,-1 1,-2"/>
 <path class="fil0 str0" d="M425 204c3,-1 6,-3 8,-5 1,-1 2,-2 3,-3 1,-2 1,-3 2,-4 0,-1 1,-2 1,-3"/>
 <path class="fil0 str0" d="M575 110c-3,-2 -5,-5 -7,-8 -1,-1 -2,-3 -3,-5 -1,-2 -2,-5 -2,-7 -1,-1 -1,-3 0,-4 0,-1 0,-3 -1,-4 0,0 0,0 0,0"/>
 <path class="fil0 str0" d="M567 104c-2,-2 -3,-4 -5,-6 0,-2 -1,-4 -2,-5 0,0 0,-1 -1,-1 0,0 0,0 0,0 0,0 0,0 0,0"/>
 <path class="fil0 str0" d="M593 125c-2,-3 -4,-6 -6,-10 -1,-3 -3,-7 -3,-10 0,-2 0,-5 0,-7 0,-1 0,-3 0,-4 0,-1 1,-1 0,-2 0,0 0,0 0,0 -1,0 -1,0 -1,0 0,1 0,1 0,1"/>
 <path class="fil0 str0" d="M656 156c-3,-3 -5,-6 -7,-9 -2,-4 -4,-7 -3,-13 0,-1 0,-2 1,-2 0,0 1,0 1,1 1,0 1,0 1,1 0,0 -1,1 -1,1 0,0 0,0 0,-1"/>
 <path class="fil0 str0" d="M737 106c0,-3 1,-6 0,-9 0,-3 -1,-7 -2,-10 -1,-2 -2,-4 -3,-6 0,-2 -1,-3 -1,-4 0,-1 0,-2 0,-3"/>
 <path class="fil0 str0" d="M735 95c-1,-3 -2,-6 -3,-9 -1,-3 -2,-5 -3,-7 -1,-1 -2,-2 -3,-4 0,-1 -1,-2 -1,-3 0,-1 0,-3 0,-4"/>
 <path class="fil0 str0" d="M414 64c2,-1 4,-3 5,-5 1,-2 1,-5 0,-7 -1,-1 -3,-2 -5,-2 -1,0 -3,1 -3,2 0,1 0,2 1,2 0,0 0,0 0,0"/>
 <path class="fil0 str0" d="M412 54c-1,1 -2,1 -3,1 -2,0 -4,0 -5,-2 0,0 0,-2 0,-3 0,0 0,-1 0,-1"/>
 <path class="fil0 str0" d="M407 56c-1,1 -3,2 -4,1 -1,0 -1,-1 -2,-3 0,-1 -1,-2 -1,-3 0,-3 1,-6 3,-8 2,-1 4,-2 5,-3 4,0 7,1 10,2 3,0 5,1 6,2 1,1 1,3 1,4"/>
 <line class="fil0 str0" x1="479" y1="63" x2="483" y2= "67" />
 <line class="fil0 str0" x1="462" y1="112" x2="457" y2= "111" />
 <line class="fil0 str0" x1="466" y1="117" x2="464" y2= "120" />
 <line class="fil0 str0" x1="462" y1="129" x2="461" y2= "137" />
 <line class="fil0 str0" x1="473" y1="55" x2="465" y2= "48" />
 <line class="fil0 str0" x1="705" y1="63" x2="701" y2= "67" />
 <path class="fil0 str0" d="M282 36c1,1 1,1 2,1 0,1 0,1 -1,2"/>
 <path class="fil0 str0" d="M283 39c1,-1 1,-2 2,-2 4,-3 9,-2 13,-1"/>
 <path class="fil0 str0" d="M292 65c0,2 0,4 -1,5 -1,1 -4,2 -6,1 -3,-1 -4,-4 -5,-6 0,-4 1,-8 4,-11 1,-1 3,-2 6,-2 2,-1 5,0 7,1 1,1 2,3 3,4 1,3 1,5 1,8 0,0 0,1 0,2 0,0 0,0 1,1"/>
 <path class="fil0 str0" d="M302 68c-2,0 -3,0 -3,0 -1,0 -2,-1 -3,-2"/>
 <path class="fil0 str0" d="M273 38c1,-1 3,-1 4,-1 1,1 2,2 2,3 0,0 0,0 0,1"/>
 <path class="fil0 str0" d="M279 41c0,-1 0,-1 0,-2 1,0 1,0 1,-1 1,0 2,0 2,-1 0,0 0,0 0,-1"/>
 <path class="fil0 str0" d="M283 162c2,2 4,3 6,5 3,2 5,4 7,6 1,2 2,3 3,5"/>
 <path class="fil0 str0" d="M286 155c1,1 2,1 3,2 2,1 3,2 5,3 1,1 2,2 3,4"/>
 <path class="fil0 str0" d="M289 144c2,0 3,0 5,1 1,0 2,1 3,2 1,1 2,1 3,2"/>
 <path class="fil0 str0" d="M297 135c1,1 2,1 3,2 1,1 3,2 4,3"/>
 <path class="fil0 str0" d="M274 177c3,3 6,6 8,10 2,4 4,8 5,13 1,3 2,7 2,10 1,3 1,5 0,7"/>
 <path class="fil0 str0" d="M271 180c2,4 4,7 5,11 2,4 2,9 2,14 -1,2 -1,4 -2,7 0,0 0,1 0,2"/>
 <path class="fil0 str0" d="M276 214c2,1 4,1 5,0 1,0 1,-1 1,-2"/>
 <path class="fil0 str0" d="M466 84c-1,2 -1,4 -2,5 -1,2 -2,4 -4,6 -1,2 -3,5 -6,7 -1,1 -1,2 -2,3 -1,0 -1,0 -2,1"/>
 <line class="fil0 str0" x1="741" y1="877" x2="741" y2= "998" />
 <line class="fil0 str0" x1="707" y1="877" x2="707" y2= "998" />
 <path class="fil0 str0" d="M553 172c2,4 3,8 5,12 8,14 20,25 33,34 8,6 16,11 24,15 9,4 19,7 29,9 11,3 23,4 34,4 7,0 15,0 23,-1"/>
 <path class="fil0 str0" d="M249 169c2,0 -2,0 0,0"/>
 <line class="fil0 str0" x1="645" y1="55" x2="717" y2= "55" />
 <line class="fil0 str0" x1="643" y1="55" x2="645" y2= "55" />
 <line class="fil0 str0" x1="643" y1="53" x2="718" y2= "53" />
 <path class="fil0 str0" d="M416 181c-1,0 -2,1 -4,1 -7,3 -14,5 -21,7 -4,2 -9,3 -13,4 -5,1 -11,1 -16,1 -6,1 -12,1 -18,0 -5,-1 -9,-3 -12,-6 -3,-1 -5,-3 -6,-5 -1,-1 -1,-2 -2,-3"/>
 <line class="fil0 str0" x1="683" y1="998" x2="752" y2= "998" />
</symbol>
<symbol id="leg" viewBox="419 2 162 996">
 <line class="fil0 str0" x1="558" y1="5" x2="558" y2= "6" />
 <path class="fil0 str0" d="M558 5c-6,-1 -8,-2 -9,-3"/>
 <path class="fil0 str0" d="M558 6c3,1 6,2 9,3 3,0 5,1 8,3 2,1 3,2 5,4 1,2 1,4 1,5 -1,4 -7,3 -12,4 -3,0 -6,0 -8,0"/>
 <line class="fil0 str0" x1="561" y1="25" x2="561" y2= "29" />
 <path class="fil0 str0" d="M561 29c-3,0 -5,1 -7,1 -2,1 -4,2 -5,3 0,1 0,2 -1,2"/>
 <line class="fil0 str0" x1="437" y1="5" x2="437" y2= "6" />
 <path class="fil0 str0" d="M437 5c-6,-1 -8,-2 -9,-3"/>
 <path class="fil0 str0" d="M437 6c3,1 6,2 9,3 3,0 6,1 8,3 2,1 3,2 5,4 1,2 1,4 1,5 -1,4 -7,3 -12,4 -3,0 -6,0 -8,0"/>
 <line class="fil0 str0" x1="440" y1="25" x2="440" y2= "29" />
 <path class="fil0 str0" d="M440 29c-3,0 -5,1 -7,1 -2,1 -4,2 -5,3 0,1 0,2 -1,2"/>
 <line class="fil0 str0" x1="428" y1="33" x2="428" y2= "200" />
 <line class="fil0 str0" x1="428" y1="231" x2="428" y2= "259" />
 <line class="fil0 str0" x1="428" y1="845" x2="428" y2= "854" />
 <line class="fil0 str0" x1="419" y1="998" x2="419" y2= "35" />
 <line class="fil0 str0" x1="426" y1="200" x2="489" y2= "200" />
 <line class="fil0 str0" x1="425" y1="209" x2="425" y2= "203" />
 <line class="fil0 str0" x1="425" y1="203" x2="485" y2= "203" />
 <line class="fil0 str0" x1="425" y1="209" x2="474" y2= "209" />
 <line class="fil0 str0" x1="462" y1="226" x2="426" y2= "226" />
 <line class="fil0 str0" x1="464" y1="231" x2="425" y2= "231" />
 <line class="fil0 str0" x1="425" y1="231" x2="425" y2= "226" />
 <line class="fil0 str0" x1="425" y1="226" x2="426" y2= "226" />
 <path class="fil0 str0" d="M425 209c-1,1 -1,1 -2,2 0,0 0,2 0,3 0,3 -1,6 -1,10 0,0 0,1 1,1 0,1 1,1 2,1"/>
 <path class="fil0 str0" d="M437 278c0,-2 1,-4 2,-5 3,-2 8,-1 10,1 1,1 2,3 3,4 3,7 2,15 1,24 -1,5 -2,10 -5,12 -2,1 -5,2 -7,1 -3,0 -5,-2 -7,-4 -3,-3 -3,-7 -4,-11 -2,-11 -2,-21 1,-32 2,-5 4,-11 9,-14 3,-2 7,-2 11,-1 7,2 11,8 14,15 5,14 4,28 2,42 0,9 -1,18 -6,25 -3,4 -6,8 -10,10 -5,1 -10,0 -15,-2 -2,-1 -4,-3 -5,-5 -3,-4 -4,-11 -4,-17 -1,-17 -2,-33 -1,-49 1,-8 2,-15 6,-23 2,-5 5,-11 10,-13 1,-1 3,-1 4,-2"/>
 <line class="fil0 str0" x1="419" y1="871" x2="538" y2= "871" />
 <line class="fil0 str0" x1="538" y1="871" x2="538" y2= "998" />
 <path class="fil0 str0" d="M524 236c4,2 7,4 10,7 2,4 4,8 5,12 4,14 6,27 6,41 0,31 -5,62 -10,93 -5,24 -10,48 -15,72 -5,29 -9,58 -12,88 -4,34 -6,69 -2,104 3,26 9,53 17,79 1,4 3,9 4,14"/>
 <line class="fil0 str0" x1="487" y1="234" x2="446" y2= "234" />
 <line class="fil0 str0" x1="422" y1="871" x2="422" y2= "856" />
 <line class="fil0 str0" x1="422" y1="856" x2="534" y2= "856" />
 <line class="fil0 str0" x1="534" y1="856" x2="534" y2= "868" />
 <line class="fil0 str0" x1="428" y1="854" x2="531" y2= "854" />
 <line class="fil0 str0" x1="531" y1="854" x2="534" y2= "856" />
 <line class="fil0 str0" x1="538" y1="871" x2="534" y2= "868" />
 <line class="fil0 str0" x1="426" y1="200" x2="425" y2= "203" />
 <path class="fil0 str0" d="M449 766c-2,-6 1,2 -1,-5 -4,-11 -8,-23 -11,-34 -4,-14 -7,-28 -9,-43 -2,-17 -3,-33 -4,-50 -1,-36 -1,-71 1,-106 1,-14 2,-27 5,-40 4,-23 11,-46 16,-69 5,-23 8,-45 11,-68 1,-4 1,-8 2,-13"/>
 <path class="fil0 str0" d="M477 823c1,0 2,0 3,0 2,1 3,3 3,4 0,1 0,1 0,1"/>
 <path class="fil0 str0" d="M483 828c1,0 2,1 2,0 1,0 1,-2 1,-3 -1,-4 -2,-6 -4,-8 -1,-1 -2,-2 -3,-3 -1,-2 -2,-4 -2,-6 1,-1 1,-2 1,-2 0,-1 0,-2 -1,-2"/>
 <path class="fil0 str0" d="M477 804c2,-1 3,-1 4,-2 3,0 7,1 9,3 1,1 2,2 2,4"/>
 <path class="fil0 str0" d="M492 809c0,-2 0,-3 0,-5 -1,-4 -4,-8 -7,-11 -1,-2 -2,-3 -4,-4 -1,-1 -2,-2 -3,-3 0,-1 0,-2 0,-3 0,-1 0,-2 0,-3 0,0 0,-1 -1,-1"/>
 <path class="fil0 str0" d="M471 779c1,0 2,-1 3,-1 1,0 2,1 2,1 0,0 1,1 1,1"/>
 <path class="fil0 str0" d="M477 780c-1,-2 -2,-3 -3,-4 -2,-1 -5,-1 -6,-3 -1,-1 -2,-3 -2,-4 0,-1 1,-2 1,-3 0,-1 0,-2 -1,-2 0,-1 0,-1 0,-1"/>
 <path class="fil0 str0" d="M466 763c1,0 2,0 3,0 4,0 7,1 10,3 1,1 2,2 2,4 0,0 0,1 0,1"/>
 <path class="fil0 str0" d="M481 771c0,-2 0,-3 -1,-5 -1,-3 -4,-5 -7,-7 -2,-2 -4,-4 -7,-5 -2,-1 -4,-2 -4,-4 0,-1 0,-2 0,-2 0,-2 -1,-3 -1,-4 -1,-1 -1,-1 -1,-1"/>
 <path class="fil0 str0" d="M460 743c2,-1 4,-1 7,-1 3,1 6,2 8,4 2,1 3,3 4,5"/>
 <path class="fil0 str0" d="M471 743c-1,-1 -2,-2 -4,-2 -1,-1 -2,-2 -4,-2 -1,-1 -2,-1 -2,-2 0,-1 -1,-2 -1,-2 0,-1 0,-2 -1,-3 0,0 -1,-1 -1,-1 -1,-1 -1,-1 -1,-1"/>
 <path class="fil0 str0" d="M457 730c1,0 2,-1 3,-1 2,-1 4,0 6,1 1,1 2,1 3,2"/>
 <path class="fil0 str0" d="M462 728c-1,0 -2,-1 -3,-2 -1,-1 -2,-2 -2,-3 -1,-2 0,-3 0,-5 0,-1 0,-3 -1,-4 0,0 0,-1 -1,-1"/>
 <path class="fil0 str0" d="M455 713c1,-1 2,-1 3,-1 3,-1 6,0 8,1 1,1 2,1 2,2 1,1 1,1 1,2"/>
 <path class="fil0 str0" d="M475 725c0,-2 -1,-3 -2,-4 -1,-1 -1,-2 -2,-3 -1,0 -2,0 -2,-1 -1,0 -2,-1 -2,-2 0,0 1,-1 1,-2 2,-1 4,0 5,1 3,1 4,3 5,5 1,2 1,4 2,6 1,2 2,4 2,6 1,2 2,5 2,7"/>
 <path class="fil0 str0" d="M475 716c-1,-2 -2,-4 -3,-5 -1,-1 -3,-2 -5,-2 -2,0 -3,-1 -4,-1 0,-1 0,-1 0,-1"/>
 <path class="fil0 str0" d="M463 707c0,-1 1,-2 1,-3 1,0 2,-1 3,-1 2,-1 4,-1 5,0 0,0 0,0 0,1"/>
 <path class="fil0 str0" d="M472 704c-1,-2 -1,-4 -3,-5 -1,-2 -3,-2 -5,-4 0,0 0,0 -1,-1 0,-1 -1,-2 -1,-3 0,0 0,-1 -1,-1 0,-1 -1,-1 -1,-1"/>
 <path class="fil0 str0" d="M460 689c1,-1 2,-1 3,-2 2,0 5,0 7,1 2,1 3,2 4,4"/>
 <path class="fil0 str0" d="M474 692c-1,-2 -1,-4 -2,-5 -2,-1 -4,-2 -6,-3 -1,-1 -1,-2 -2,-4 0,-1 0,-2 1,-3 0,-1 1,-1 1,-2"/>
 <path class="fil0 str0" d="M466 675c1,1 1,2 1,2 1,1 2,0 4,0 1,0 2,0 3,1 2,1 3,2 4,3 1,1 2,2 2,3 0,1 0,1 1,2"/>
 <path class="fil0 str0" d="M481 686c0,-1 0,-2 1,-2 0,-2 0,-3 -1,-5 0,-1 -1,-2 0,-3 0,0 1,1 1,0 1,0 1,0 1,0 0,-3 -3,-4 -6,-6 -2,-2 -2,-7 0,-9 2,-2 5,-3 8,-2 2,0 4,1 5,3 2,2 3,4 3,7 0,3 -1,5 -3,6 0,0 -1,0 -1,0 -1,0 -1,1 -1,2 1,1 1,2 2,1 0,0 0,-3 0,-3 1,0 1,1 1,1 1,2 2,2 2,3 1,2 0,4 0,6 -1,1 -1,2 -1,3"/>
 <path class="fil0 str0" d="M523 854c1,-2 2,-3 3,-5 2,-4 5,-8 7,-13 2,-5 4,-11 4,-17 0,-2 0,-3 0,-4 0,-2 1,-4 2,-6"/>
 <path class="fil0 str0" d="M492 688c1,1 2,2 2,2 1,0 2,-2 2,-4 0,-1 -1,-2 -1,-3 0,-1 0,-2 1,-3 1,0 1,0 1,0"/>
 <path class="fil0 str0" d="M497 680c0,1 0,2 1,2 0,0 0,1 0,1"/>
 <path class="fil0 str0" d="M498 683c0,-1 0,-2 0,-4 0,-1 0,-2 1,-2 0,-1 0,-1 1,-2 0,0 0,0 0,-1"/>
 <path class="fil0 str0" d="M500 674c1,1 1,2 2,2 1,2 1,3 1,5 0,0 0,1 0,2"/>
 <path class="fil0 str0" d="M503 683c0,-1 0,-1 0,-2 1,0 1,-1 1,-1 0,0 0,-1 0,-1 0,0 0,0 0,-1"/>
 <path class="fil0 str0" d="M504 678c1,3 2,6 3,8 0,2 1,4 1,6 0,3 0,7 0,11"/>
 <path class="fil0 str0" d="M508 703c0,0 0,0 0,0 0,-1 0,-1 0,-1 1,0 2,0 2,-1 0,0 0,-1 0,-1"/>
 <path class="fil0 str0" d="M510 700c1,2 2,4 3,6 0,3 0,6 0,9"/>
 <path class="fil0 str0" d="M513 715c0,-1 0,-1 1,-1 0,-1 1,-2 2,-2 0,-1 0,-1 0,-2"/>
 <path class="fil0 str0" d="M516 710c1,4 2,8 3,11 1,4 2,8 2,11 1,4 1,8 1,12"/>
 <path class="fil0 str0" d="M522 744c1,-1 1,-3 2,-3 0,1 1,1 1,2"/>
 <path class="fil0 str0" d="M527 746c2,4 5,9 6,14 2,5 4,10 5,15 1,5 1,9 1,14 0,4 0,8 0,11"/>
 <path class="fil0 str0" d="M478 852c4,-5 9,-11 12,-17 2,-5 4,-10 5,-15 1,-7 2,-13 0,-20 -1,-3 -3,-6 -4,-9"/>
 <path class="fil0 str0" d="M488 847c4,-8 8,-15 11,-24 4,-13 3,-28 1,-43 -2,-8 -3,-17 -7,-25 -2,-4 -4,-9 -7,-13"/>
 <path class="fil0 str0" d="M515 766c0,-3 0,-7 -2,-10 -1,-2 -3,-3 -4,-5 -1,-1 -1,-2 -2,-3 0,-1 0,-1 0,-2"/>
 <path class="fil0 str0" d="M507 746c1,-1 2,-2 3,-1 1,0 2,1 3,2"/>
 <path class="fil0 str0" d="M513 747c-1,-2 -1,-5 -2,-7 -2,-2 -4,-3 -6,-5 -1,-2 -2,-4 -2,-6 0,-2 0,-4 0,-6"/>
 <path class="fil0 str0" d="M476 694c1,2 2,4 3,6"/>
 <path class="fil0 str0" d="M485 695c0,-3 0,-5 0,-7 -1,-2 -1,-4 -1,-6"/>
 <path class="fil0 str0" d="M471 677c0,-1 0,-1 0,-2 -1,-5 -2,-11 -3,-16 -5,-30 -5,-61 -3,-93 2,-27 5,-55 9,-78 2,-21 5,-38 12,-67 2,-9 5,-19 7,-29"/>
 <path class="fil0 str0" d="M463 714c-1,-4 -3,-8 -4,-13 -5,-14 -7,-29 -9,-44 -3,-28 -4,-56 -2,-84 1,-28 4,-56 8,-84 5,-27 10,-55 16,-83 3,-17 7,-34 9,-52 1,-4 1,-8 2,-11"/>
 <path class="fil0 str0" d="M497 680c-1,-1 -1,-2 -1,-3 -1,-8 -3,-15 -4,-22 -2,-17 -3,-34 -3,-51 0,-32 1,-63 5,-96 4,-33 10,-67 17,-97 3,-12 6,-23 10,-38 2,-10 5,-22 8,-34"/>
 <path class="fil0 str0" d="M495 209c0,0 -1,1 -2,2 -2,1 -6,0 -7,-2 -1,-1 -2,-3 -2,-4 1,-2 2,-3 3,-4 2,-1 5,-2 7,-1 5,0 9,3 12,7 3,5 3,10 2,16 -1,6 -3,11 -9,13 -4,2 -11,1 -13,-3 -1,-3 1,-8 5,-10 2,0 5,0 6,2 1,1 1,3 0,4 -1,1 -2,2 -3,2 -1,-1 -3,-2 -2,-3 0,0 0,-1 0,-1"/>
 <path class="fil0 str0" d="M495 209c0,-1 1,-2 0,-3 0,-1 -2,-3 -4,-2 -1,0 -2,1 -3,2 0,0 1,1 1,1"/>
 <path class="fil0 str0" d="M495 208c2,1 3,2 4,3 1,2 2,4 2,7 1,3 0,6 -1,8 -1,1 -2,2 -3,2"/>
 <path class="fil0 str0" d="M501 200c1,0 3,0 4,0 4,0 7,1 10,2"/>
 <path class="fil0 str0" d="M515 202c1,-1 1,-2 2,-2 1,0 2,0 4,1 0,0 1,0 1,0"/>
 <path class="fil0 str0" d="M522 201c1,0 2,-1 3,-1 3,0 5,4 7,8 1,4 2,8 2,12 0,4 -1,8 -3,12 -1,2 -2,3 -3,4 -1,0 -2,0 -3,0"/>
 <path class="fil0 str0" d="M535 209c2,1 3,1 4,2 2,1 3,3 3,5 1,2 1,5 0,7 0,1 -1,2 -1,2 -1,1 -3,1 -4,1"/>
 <line class="fil0 str0" x1="474" y1="209" x2="486" y2= "209" />
 <line class="fil0 str0" x1="494" y1="209" x2="497" y2= "209" />
 <line class="fil0 str0" x1="532" y1="209" x2="535" y2= "209" />
 <line class="fil0 str0" x1="529" y1="203" x2="535" y2= "203" />
 <line class="fil0 str0" x1="497" y1="200" x2="503" y2= "200" />
 <line class="fil0 str0" x1="531" y1="200" x2="535" y2= "203" />
 <line class="fil0 str0" x1="535" y1="203" x2="535" y2= "209" />
 <line class="fil0 str0" x1="462" y1="226" x2="487" y2= "226" />
 <line class="fil0 str0" x1="497" y1="226" x2="499" y2= "226" />
 <line class="fil0 str0" x1="533" y1="226" x2="537" y2= "226" />
 <line class="fil0 str0" x1="464" y1="231" x2="486" y2= "231" />
 <line class="fil0 str0" x1="505" y1="231" x2="507" y2= "231" />
 <line class="fil0 str0" x1="532" y1="231" x2="537" y2= "231" />
 <line class="fil0 str0" x1="537" y1="231" x2="537" y2= "226" />
 <path class="fil0 str0" d="M508 229c-1,2 -1,3 -2,4 -1,1 -3,2 -4,4 -1,1 -1,2 -1,4 0,1 0,2 1,3 1,0 1,1 2,2 0,0 0,1 0,2"/>
 <path class="fil0 str0" d="M504 248c2,-1 4,-1 5,-2 0,-1 0,-1 0,-2"/>
 <path class="fil0 str0" d="M509 244c0,1 -1,3 0,4 1,1 2,2 4,3 1,0 2,0 3,0 1,1 2,1 2,2"/>
 <path class="fil0 str0" d="M518 253c1,-1 2,-3 2,-4 0,-1 0,-3 -1,-4 0,-1 0,-1 -1,-1"/>
 <path class="fil0 str0" d="M518 244c1,0 2,0 3,1 0,0 1,1 1,2 0,0 0,0 0,0"/>
 <path class="fil0 str0" d="M522 247c2,0 3,-1 3,-2 1,-2 1,-3 1,-5 -1,0 -1,0 -1,-1 0,0 -1,-1 -1,-1 0,-1 0,-2 0,-3 1,-1 1,-2 1,-3"/>
 <path class="fil0 str0" d="M523 208c-2,-1 -4,-1 -5,0 -2,1 -3,5 -3,9 0,1 0,3 0,4 1,2 1,3 2,4 1,2 3,3 5,3 3,0 5,-3 6,-6 2,-3 2,-7 0,-9 -2,-1 -5,-2 -6,-1 -1,1 -1,2 -2,3 0,2 -1,3 0,4 1,1 1,1 2,1"/>
 <path class="fil0 str0" d="M466 209c2,1 3,1 4,2 2,1 3,3 4,5 0,2 0,5 -1,7 0,1 -1,2 -1,2 -1,1 -3,1 -4,1"/>
 <line class="fil0 str0" x1="463" y1="209" x2="466" y2= "209" />
 <line class="fil0 str0" x1="460" y1="203" x2="466" y2= "203" />
 <line class="fil0 str0" x1="462" y1="200" x2="466" y2= "203" />
 <line class="fil0 str0" x1="466" y1="203" x2="466" y2= "209" />
 <line class="fil0 str0" x1="464" y1="226" x2="468" y2= "226" />
 <line class="fil0 str0" x1="463" y1="231" x2="468" y2= "231" />
 <line class="fil0 str0" x1="468" y1="231" x2="468" y2= "226" />
 <line class="fil0 str0" x1="462" y1="200" x2="462" y2= "190" />
 <path class="fil0 str0" d="M462 190c-2,-3 -4,-5 -5,-8 -10,-16 -9,-37 -8,-57 0,-7 0,-15 0,-22"/>
 <line class="fil0 str0" x1="526" y1="200" x2="526" y2= "190" />
 <path class="fil0 str0" d="M526 190c-1,-3 -3,-5 -5,-8 -3,-5 -4,-9 -6,-14"/>
 <path class="fil0 str0" d="M458 65c2,-2 4,-6 4,-10 -1,-6 -6,-12 -11,-12 -4,0 -8,4 -10,9 -2,6 0,12 3,17 3,5 7,10 13,11 3,1 8,0 12,-1 6,-3 12,-7 15,-12 1,-3 2,-5 3,-8"/>
 <path class="fil0 str0" d="M467 84c-3,-2 -6,-3 -9,-3 -1,1 -3,2 -4,5 -2,1 -3,3 -2,4 1,0 1,0 2,1 1,0 1,2 0,3"/>
 <path class="fil0 str0" d="M454 94c0,-1 -1,-1 -1,-1 -2,-1 -3,0 -5,-1 -1,0 -1,-1 -2,-2"/>
 <path class="fil0 str0" d="M446 90c0,3 0,6 1,9 1,3 3,6 6,6 1,0 2,0 3,0"/>
 <path class="fil0 str0" d="M456 105c-1,0 -2,1 -2,1 -2,2 -2,4 -2,6 1,1 1,2 1,3 0,0 -1,0 -1,1"/>
 <path class="fil0 str0" d="M452 116c1,0 3,0 4,0 1,0 3,0 4,0 1,0 1,-1 2,-2"/>
 <path class="fil0 str0" d="M462 114c-2,2 -5,4 -6,7 -1,2 -1,5 -1,7 0,3 1,5 1,8 0,1 0,3 -1,4 0,1 -1,1 -1,1"/>
 <path class="fil0 str0" d="M454 141c1,1 3,2 5,2 2,1 4,1 5,0 1,0 2,-1 3,-2"/>
 <path class="fil0 str0" d="M467 141c-2,3 -4,5 -4,7 0,3 3,7 3,11 0,1 0,2 -1,3"/>
 <path class="fil0 str0" d="M465 162c2,0 3,-1 4,-1 2,-1 2,-3 3,-5"/>
 <path class="fil0 str0" d="M472 156c0,2 -1,5 0,8 1,2 4,4 4,6 0,1 0,1 0,2"/>
 <path class="fil0 str0" d="M476 172c2,-2 3,-4 4,-5 1,-3 1,-6 0,-9"/>
 <path class="fil0 str0" d="M480 158c0,4 0,9 3,12 1,1 4,2 7,3 3,1 6,1 7,3 0,1 0,1 0,2"/>
 <path class="fil0 str0" d="M497 178c2,-1 4,-2 6,-4 1,-1 1,-3 1,-4 0,-1 -1,-3 -1,-4 0,-1 0,-2 0,-3"/>
 <path class="fil0 str0" d="M503 163c0,2 1,3 2,4 1,1 3,0 4,1 1,1 1,2 1,3 0,1 0,1 0,2"/>
 <path class="fil0 str0" d="M510 173c1,-2 3,-3 4,-5 1,-2 1,-4 1,-6 0,-2 0,-3 -1,-4 0,-2 -2,-4 -3,-6"/>
 <path class="fil0 str0" d="M454 63c2,1 4,2 6,2 4,0 8,-4 9,-9 1,-3 0,-7 -2,-10 -1,-1 -2,-2 -4,-3 -2,-1 -4,-2 -7,-1 -1,0 -2,0 -3,1"/>
 <path class="fil0 str0" d="M528 35c3,3 5,5 7,8 4,6 4,14 3,21 -1,4 -2,9 -5,12 -2,3 -5,5 -9,4 -1,0 -2,0 -2,-1"/>
 <path class="fil0 str0" d="M522 78c0,2 1,4 1,6 0,2 0,4 0,6 -1,2 -2,3 -3,5"/>
 <path class="fil0 str0" d="M520 95c2,1 4,2 5,4 1,2 0,5 -1,8 -1,2 -2,3 -3,5"/>
 <path class="fil0 str0" d="M521 112c-2,7 -4,14 -5,21 -1,5 -1,10 0,14 0,3 1,6 2,8 0,3 0,5 0,8 -1,2 -2,3 -3,5"/>
 <path class="fil0 str0" d="M504 244c0,1 -1,2 -2,3 -2,2 -4,2 -5,4 -1,1 -1,4 0,5 0,1 0,2 0,3 0,1 0,2 -1,2"/>
 <path class="fil0 str0" d="M496 261c2,1 4,1 6,0 0,0 1,-1 2,-1"/>
 <path class="fil0 str0" d="M504 260c-1,1 -2,2 -1,3 0,0 0,1 1,1 1,0 2,0 3,0 0,0 1,-1 1,-1"/>
 <path class="fil0 str0" d="M502 263c-1,1 -1,3 -1,4 1,1 1,2 2,2 0,0 1,0 1,0 0,1 1,1 1,1 0,0 0,0 0,1"/>
 <path class="fil0 str0" d="M505 271c1,-1 1,-1 2,-1"/>
 <path class="fil0 str0" d="M507 267c0,2 0,3 0,4 0,1 1,1 1,1 1,1 1,1 2,1 1,1 2,1 2,2 0,0 0,1 0,1"/>
 <path class="fil0 str0" d="M512 276c2,-1 4,-2 4,-4 1,-1 1,-2 0,-3 0,-1 0,-2 -1,-3"/>
 <path class="fil0 str0" d="M515 266c1,1 3,2 3,3 0,0 -1,0 -1,0"/>
 <path class="fil0 str0" d="M517 269c2,-1 3,-1 4,-3 0,0 0,-1 0,-2 0,0 -1,-1 -1,-2"/>
 <path class="fil0 str0" d="M477 147c2,-3 3,-5 5,-8 2,-4 5,-8 9,-11 3,-2 7,-4 10,-6 3,-2 6,-5 7,-8 0,-1 1,-3 1,-5"/>
 <path class="fil0 str0" d="M474 140c3,-4 5,-8 8,-10 3,-3 6,-5 10,-8 3,-1 5,-3 7,-5 1,-1 2,-3 3,-4"/>
 <path class="fil0 str0" d="M466 129c1,-1 2,-2 3,-3 3,-3 7,-6 11,-8 3,-2 6,-3 9,-5 3,-2 6,-3 10,-5"/>
 <path class="fil0 str0" d="M466 114c4,0 8,-1 11,-2 5,0 10,-2 14,-4 1,-1 2,-2 3,-4"/>
 <path class="fil0 str0" d="M487 59c1,-2 1,-5 1,-7 0,-4 -1,-9 -3,-12 -1,-1 -3,-2 -4,-3 -1,-1 -2,-1 -4,-2"/>
 <path class="fil0 str0" d="M493 35c3,2 6,3 8,6 2,3 3,8 4,13 0,3 0,5 -1,8 0,2 -1,3 -2,5"/>
 <path class="fil0 str0" d="M510 35c2,1 4,2 5,3 4,4 5,11 5,17 0,2 0,5 -1,7"/>
 <path class="fil0 str0" d="M519 35c3,2 5,4 7,7 3,3 3,9 3,13 -1,4 -1,8 -2,12 -1,1 -1,3 -2,4"/>
 <path class="fil0 str0" d="M503 90c-1,0 -3,0 -4,0 -1,1 0,4 1,5 2,3 5,2 7,1 3,-2 4,-8 1,-11 -3,-3 -8,-4 -11,-2 -3,2 -4,6 -4,11 0,5 1,9 5,12 3,3 9,4 12,2 2,-1 4,-3 5,-5"/>
 <path class="fil0 str0" d="M515 103c0,1 0,2 1,3 0,2 2,3 4,3 1,0 3,-1 3,-3 1,-1 1,-3 1,-4 0,-1 -1,-3 -2,-4"/>
 <path class="fil0 str0" d="M509 90c0,-1 1,-1 2,-2 1,0 1,0 2,0 1,0 2,1 3,1"/>
 <path class="fil0 str0" d="M515 90c1,-1 1,-2 1,-3 1,-1 1,-3 3,-4 0,0 1,0 2,0 0,0 1,0 1,0"/>
 <path class="fil0 str0" d="M489 85c-2,0 -4,-1 -6,-1 -2,-1 -4,-1 -7,-1 -1,1 -2,1 -3,1 -1,0 -1,-1 -2,-1"/>
 <path class="fil0 str0" d="M489 85c-1,-1 -2,-3 -3,-4 -2,-2 -4,-3 -5,-4 0,-2 1,-3 2,-4 1,-2 3,-3 4,-4 0,-1 1,-2 0,-2 0,-1 0,-1 0,-1"/>
 <path class="fil0 str0" d="M487 66c3,0 5,0 7,1 1,1 2,3 2,5 0,1 0,1 0,2"/>
 <path class="fil0 str0" d="M496 74c0,-1 1,-2 1,-3 0,-2 -1,-3 -1,-4 1,-2 3,-3 3,-5 0,-1 0,-1 0,-2"/>
 <path class="fil0 str0" d="M499 60c1,0 2,0 3,0 2,1 5,2 5,4 1,1 1,3 1,4"/>
 <path class="fil0 str0" d="M508 68c0,0 0,0 0,0 0,-1 1,-2 2,-3 0,-1 -1,-4 0,-6 1,-1 2,-2 2,-3 0,0 0,0 0,0"/>
 <path class="fil0 str0" d="M512 56c2,1 3,1 5,3 1,2 3,4 3,7 -1,1 -1,2 -2,4 0,0 0,0 0,1 0,0 -1,0 -1,0"/>
 <path class="fil0 str0" d="M517 71c1,-1 3,-1 3,-2 1,-1 1,-1 1,-2 0,-1 0,-1 0,-1"/>
 <path class="fil0 str0" d="M521 66c1,1 2,2 2,3 2,2 3,4 2,6 -1,1 -2,2 -3,3"/>
 <path class="fil0 str0" d="M502 200c-1,0 -2,-1 -3,-1 0,-1 -1,-1 -1,-2 0,-1 0,-2 0,-3 0,0 0,-1 -1,-2 0,0 0,0 0,0"/>
 <path class="fil0 str0" d="M497 192c1,0 2,0 3,0 1,0 2,1 3,1 0,1 0,1 1,2"/>
 <path class="fil0 str0" d="M504 195c-1,-1 -1,-2 -1,-4 0,0 0,-1 -1,-1 0,-1 0,-1 -1,-1 0,0 0,0 0,0"/>
 <path class="fil0 str0" d="M501 189c1,-1 3,-1 4,0 0,0 1,0 1,0 0,1 0,1 0,1"/>
 <path class="fil0 str0" d="M506 190c0,-1 0,-1 -1,-2 0,-1 0,-1 0,-2 0,-1 0,-1 0,-2 1,0 1,0 1,0"/>
 <path class="fil0 str0" d="M506 184c0,0 1,1 2,1 1,1 3,1 4,1 1,0 3,2 4,3 0,1 0,2 0,2"/>
 <path class="fil0 str0" d="M516 191c0,0 1,-1 1,-1 1,-1 2,-1 2,-1 0,0 0,0 0,-1"/>
 <path class="fil0 str0" d="M519 188c0,1 0,2 1,3 0,1 1,2 1,3 -1,0 -1,0 -1,0"/>
 <path class="fil0 str0" d="M520 194c1,0 2,0 2,-1 0,0 0,0 0,-1"/>
 <path class="fil0 str0" d="M522 192c1,1 1,2 2,3 0,1 0,2 0,2 0,0 0,0 0,0 -2,0 -1,2 0,4"/>
 <path class="fil0 str0" d="M460 143c0,5 0,9 1,14 1,8 4,15 8,22 2,4 5,8 8,11"/>
 <path class="fil0 str0" d="M477 190c3,0 6,0 10,0"/>
 <path class="fil0 str0" d="M487 190c1,-2 3,-5 6,-7 3,-2 8,-3 12,-2 2,0 4,1 6,3 0,1 1,1 1,2"/>
 <path class="fil0 str0" d="M463 143c0,4 0,8 1,12 0,5 2,10 4,14 2,7 4,13 9,17 1,1 1,1 2,1"/>
 <path class="fil0 str0" d="M479 187c2,0 4,0 6,0"/>
 <path class="fil0 str0" d="M485 187c2,-2 4,-4 6,-5 1,-2 4,-3 6,-3 3,-1 6,-1 8,0 3,0 5,1 7,3 1,1 1,2 2,3"/>
 <path class="fil0 str0" d="M511 172c0,1 1,3 1,4 2,3 4,6 6,9 0,1 1,1 1,2"/>
 <path class="fil0 str0" d="M519 187c1,1 1,2 2,3"/>
 <path class="fil0 str0" d="M521 190c-1,0 -1,0 -2,0"/>
 <path class="fil0 str0" d="M493 301c-2,0 -3,0 -4,0 -1,-1 -1,-4 0,-7 1,-2 2,-3 4,-4 2,0 5,2 6,5 3,5 2,10 -1,14 -2,2 -6,4 -9,3 -3,0 -6,-4 -8,-7 -3,-6 0,-13 0,-20 1,-8 0,-16 -2,-24 -1,-5 -3,-11 -5,-16 -2,-2 -3,-5 -6,-7 0,-1 -1,-2 -3,-3 0,0 -1,0 -2,-1"/>
 <path class="fil0 str0" d="M491 322c-1,4 -2,8 -1,9 2,1 8,-2 9,-5 2,-5 -1,-10 -4,-12 -5,-1 -10,3 -13,9 -5,9 -1,21 7,27 7,5 17,6 20,13 2,2 2,5 3,7"/>
 <path class="fil0 str0" d="M492 331c-1,2 -1,4 -1,6 1,3 6,5 10,7 4,2 8,4 11,8 2,3 5,6 6,10 1,3 1,6 1,9 0,2 0,3 -1,5"/>
 <path class="fil0 str0" d="M498 355c-2,2 -4,5 -6,7 -3,6 -4,13 -3,20 1,4 2,8 4,11 1,1 3,2 4,3"/>
 <path class="fil0 str0" d="M507 360c-2,2 -3,4 -4,6 -3,4 -5,9 -5,13 0,1 0,1 0,1"/>
 <path class="fil0 str0" d="M508 348c2,-2 4,-4 7,-6 1,-1 2,-2 3,-3"/>
 <path class="fil0 str0" d="M521 337c2,-1 3,-2 5,-4 1,-2 2,-3 3,-5 0,0 0,-1 0,-2"/>
 <path class="fil0 str0" d="M529 326c-1,2 -1,3 -2,3 0,1 -1,0 -2,0 -1,-1 -1,-3 -1,-5 1,-3 2,-6 4,-7 0,-1 1,-1 2,-1 2,0 3,0 4,1 4,3 3,10 1,14 -2,5 -5,8 -9,11 -3,3 -6,5 -9,8 -1,1 -3,2 -4,3"/>
 <path class="fil0 str0" d="M512 370c1,1 1,2 2,3 0,1 -1,3 -1,5 0,1 1,3 1,4 1,0 2,1 2,1"/>
 <path class="fil0 str0" d="M516 383c-1,2 -2,3 -4,3 0,0 -1,0 -2,0 0,-1 0,-1 -1,-1"/>
 <path class="fil0 str0" d="M509 385c2,1 3,3 3,5 -1,1 -2,3 -3,5 -1,1 -1,2 -1,2 0,1 1,1 1,1"/>
 <path class="fil0 str0" d="M509 398c-2,0 -4,0 -6,-2 -1,-1 -2,-2 -2,-3 -1,-2 0,-3 0,-5 1,-1 1,-2 1,-3"/>
 <path class="fil0 str0" d="M503 385c-1,0 -2,0 -2,0 0,1 0,1 -1,2 0,1 0,2 -1,3 -1,0 -1,0 -2,0"/>
 <path class="fil0 str0" d="M497 390c0,0 0,-1 0,-2 0,-1 -1,-2 -1,-3 0,-1 0,-2 0,-3 1,-1 2,-2 3,-3"/>
 <path class="fil0 str0" d="M505 397c1,2 1,3 1,4 1,3 0,6 -1,9 -1,2 -2,3 -1,5 0,1 0,1 0,2"/>
 <path class="fil0 str0" d="M504 417c-2,-1 -4,-2 -4,-3 -1,-2 -1,-3 0,-5 0,-1 1,-2 1,-3"/>
 <path class="fil0 str0" d="M501 394c-2,1 -5,2 -6,3 -2,2 -3,4 -3,6 0,2 0,5 0,7 -1,0 -2,1 -2,2 0,0 0,0 0,0"/>
 <path class="fil0 str0" d="M490 412c2,1 5,2 7,1 1,-1 1,-3 1,-4 1,-1 0,-2 0,-3"/>
 <path class="fil0 str0" d="M501 415c0,2 -1,4 -2,5 -1,1 -2,2 -3,3 -1,1 -1,2 -1,4 0,1 0,1 1,2"/>
 <path class="fil0 str0" d="M496 429c-2,-1 -4,-3 -4,-4 -1,-2 -1,-5 0,-8 0,-1 1,-2 1,-2 1,-1 1,-1 1,-2"/>
 <path class="fil0 str0" d="M518 376c0,1 0,2 -1,3 0,1 0,2 -1,2 0,1 -1,1 -1,1"/>
 <path class="fil0 str0" d="M531 301c1,-2 3,-4 2,-6 -1,-1 -2,-3 -3,-3 -2,-1 -4,3 -4,7 -1,1 -1,2 -1,4"/>
 <path class="fil0 str0" d="M475 234c1,2 3,3 4,5 3,5 6,10 7,16 3,9 4,17 3,26 0,4 -1,8 -1,12 -1,1 -1,1 -1,2 0,1 1,2 1,2"/>
 <path class="fil0 str0" d="M517 243c3,3 6,6 8,9 3,5 4,10 5,16 2,6 3,12 3,18 0,2 0,4 0,7 0,0 0,1 0,2"/>
 <path class="fil0 str0" d="M509 273c-1,1 -2,2 -3,3 -2,3 0,8 1,12 0,3 -1,5 -1,7 0,1 -1,3 -2,5 0,1 -1,2 -1,2 0,1 -1,1 -1,1"/>
 <path class="fil0 str0" d="M502 303c2,1 3,1 4,1 0,0 1,-1 1,-2"/>
 <path class="fil0 str0" d="M516 272c1,0 2,0 3,1 3,1 5,4 5,7 1,4 0,8 0,12 0,2 0,4 0,6 0,1 0,2 0,3 0,1 1,2 2,3"/>
 <path class="fil0 str0" d="M526 304c-1,1 -1,1 -2,1 -1,0 -1,-1 -2,-1 0,-1 -1,-1 -1,-2"/>
 <path class="fil0 str0" d="M507 302c0,2 0,4 1,4 1,1 2,1 2,2 0,0 0,1 0,2"/>
 <path class="fil0 str0" d="M510 310c1,0 3,-1 3,-2 1,0 1,0 1,-1 0,-1 0,-1 0,-2"/>
 <path class="fil0 str0" d="M514 305c-1,2 -1,4 0,5 0,1 1,1 1,2 1,0 1,1 1,2"/>
 <path class="fil0 str0" d="M516 314c2,-1 3,-2 3,-3 1,-1 1,-2 1,-3 0,-1 -1,-1 -1,-1"/>
 <path class="fil0 str0" d="M519 307c1,1 1,2 2,2 1,1 2,0 3,1 1,0 1,1 1,2"/>
 <path class="fil0 str0" d="M525 312c0,-2 0,-4 0,-6 -1,0 -1,-1 -2,-2 0,0 -1,-1 -1,-2"/>
 <path class="fil0 str0" d="M510 309c0,0 -1,0 -1,1 -2,2 -2,7 -2,11 0,2 0,4 0,7 0,1 -1,3 -2,4 0,0 -1,0 -1,0"/>
 <path class="fil0 str0" d="M504 332c2,1 4,2 5,1 1,0 2,-2 3,-3 1,-2 2,-4 2,-6 0,-1 0,-2 0,-2"/>
 <path class="fil0 str0" d="M514 322c0,0 1,1 1,1 1,0 1,0 1,0"/>
 <path class="fil0 str0" d="M516 323c0,-1 0,-1 0,-2 0,-1 0,-2 0,-2"/>
 <path class="fil0 str0" d="M520 309c1,0 2,1 2,1 1,2 0,5 0,8 0,1 0,3 0,5 0,2 0,4 0,6 1,1 2,2 2,3 1,0 1,0 1,1"/>
 <path class="fil0 str0" d="M525 333c-1,0 -2,0 -4,0"/>
 <path class="fil0 str0" d="M509 333c0,1 0,1 1,2 0,0 1,1 1,2 0,1 0,2 -1,2 0,1 0,1 0,1"/>
 <path class="fil0 str0" d="M510 340c2,0 4,0 5,-1 0,-1 1,-1 1,-2 0,-1 0,-2 0,-3"/>
 <path class="fil0 str0" d="M516 334c0,1 0,3 1,4 0,0 0,1 0,1 1,1 3,1 4,1 0,-1 0,-1 1,-1"/>
 <path class="fil0 str0" d="M522 339c-1,0 -1,-1 -1,-2 0,-1 0,-2 0,-2 0,-1 0,-1 0,-1 0,-1 0,-1 0,-1"/>
 <path class="fil0 str0" d="M509 333c0,2 0,3 0,5 0,2 0,3 -1,5 0,1 -1,3 -2,4"/>
 <path class="fil0 str0" d="M515 339c0,0 0,1 0,1 0,1 0,2 0,2"/>
 <path class="fil0 str0" d="M512 111c0,3 -1,6 -2,8 -2,4 -7,6 -10,9 -3,3 -4,7 -5,11 0,3 1,7 3,9 0,1 1,1 1,2"/>
 <path class="fil0 str0" d="M519 112c-1,1 -1,3 -2,4 -1,2 -2,4 -3,6 -2,3 -5,5 -6,8 -1,2 0,5 0,7 1,3 1,4 2,6"/>
 <path class="fil0 str0" d="M517 120c0,2 -1,3 -1,5 -1,3 -3,7 -3,11 0,2 0,5 0,8 0,2 0,4 1,6 0,1 0,2 1,3"/>
 <path class="fil0 str0" d="M511 167c-1,-2 -1,-3 -2,-3 0,-2 -2,-3 -3,-4 -2,-1 -3,-2 -4,-3 0,0 -1,-1 -2,-2 0,0 0,-1 0,-2"/>
 <path class="fil0 str0" d="M514 170c0,-1 1,-1 0,-1 0,-1 0,-1 0,-2"/>
 <path class="fil0 str0" d="M508 143c0,2 1,3 1,5 1,1 2,2 3,3 1,2 2,3 3,4 1,2 1,4 1,5 1,3 0,5 -1,7"/>
 <path class="fil0 str0" d="M514 185c-2,-2 -3,-4 -4,-7 -1,-2 -2,-4 -2,-6 0,-1 -1,-3 -1,-4"/>
 <path class="fil0 str0" d="M492 425c-2,5 -3,10 -4,15 -4,17 -7,34 -10,51 -3,18 -5,35 -6,53 -2,15 -3,31 -3,46 0,14 0,29 1,43 0,9 1,17 3,25 1,6 2,12 3,18 0,1 0,2 1,3"/>
 <path class="fil0 str0" d="M502 416c0,2 0,3 -1,5 -2,7 -4,14 -5,21 -2,7 -4,15 -5,22 -2,8 -3,17 -4,25 -3,16 -5,32 -7,47 -2,19 -4,39 -4,58 0,16 0,32 2,48 0,5 1,10 2,15 0,1 0,1 0,2"/>
 <path class="fil0 str0" d="M485 743c-1,-1 -1,-2 0,-3 0,-1 0,-2 1,-2 1,-1 2,-2 2,-2 0,-1 0,-1 -1,-1"/>
 <path class="fil0 str0" d="M487 735c2,1 4,3 5,6 0,1 0,3 0,4 0,3 -1,5 -1,11 1,1 1,2 1,2 0,0 0,0 0,-1"/>
 <path class="fil0 str0" d="M492 760c1,-1 1,-1 1,-1 1,-1 1,-3 1,-4 -1,-1 -1,-2 -1,-2 0,-1 0,-2 1,-3 0,-1 1,-3 1,-4 0,-1 0,-1 0,-2"/>
 <path class="fil0 str0" d="M495 744c2,3 4,5 5,8 2,3 2,7 2,10 0,2 0,4 -1,7 -1,1 -1,2 -1,2 1,0 1,0 2,0 0,0 0,0 0,0"/>
 <path class="fil0 str0" d="M502 771c1,-1 1,-1 1,-2 0,-1 0,-1 0,-2 0,0 1,0 1,0 0,0 0,-1 0,-1"/>
 <path class="fil0 str0" d="M511 766c0,3 1,5 1,7 0,2 0,3 0,5 1,4 0,8 -1,12"/>
 <path class="fil0 str0" d="M511 790c0,0 0,1 1,1 0,0 0,0 1,-1 0,0 0,-1 0,-1 0,-1 0,-1 0,-2 0,0 0,-1 0,-2 1,0 1,-1 1,-1 0,-1 1,-1 1,-2 0,-1 0,-1 0,-2"/>
 <path class="fil0 str0" d="M515 780c1,4 2,8 2,12 0,6 -1,13 -2,19 -2,8 -5,17 -9,25 -2,5 -5,10 -10,14 -2,1 -3,1 -5,2"/>
 <path class="fil0 str0" d="M490 850c3,-3 7,-7 10,-10 4,-6 7,-13 9,-20 1,-5 2,-11 3,-16 1,-2 1,-5 1,-7"/>
 <path class="fil0 str0" d="M512 781c0,-2 0,-5 -1,-7 0,-2 -1,-4 -1,-5 -1,-1 -1,-1 -1,-2 -1,-1 -1,-1 -1,-2 0,0 0,-1 0,-1"/>
 <path class="fil0 str0" d="M508 764c1,0 2,1 3,1 2,1 3,2 4,3 1,1 1,3 1,4 0,0 0,1 0,1"/>
 <path class="fil0 str0" d="M515 785c0,-1 0,-3 -1,-3 0,-1 0,-1 -1,-2 0,0 0,0 0,-1"/>
 <path class="fil0 str0" d="M519 779c0,2 -1,3 -1,4 0,4 1,7 1,11 1,6 0,12 -1,18 -2,7 -4,13 -6,19 -2,4 -3,7 -5,11 -2,3 -4,6 -6,9"/>
 <path class="fil0 str0" d="M508 850c3,-4 6,-8 8,-12 4,-6 6,-13 8,-21 1,-4 3,-8 4,-12"/>
 <path class="fil0 str0" d="M506 766c-1,-5 -1,-11 -2,-16 -2,-7 -4,-13 -5,-20 0,-4 -1,-9 -1,-13 0,-4 1,-9 1,-13 0,-3 1,-5 1,-8"/>
 <path class="fil0 str0" d="M498 737c-1,-5 -3,-10 -4,-15 -1,-4 -3,-9 -3,-13 -1,-3 -1,-6 -1,-9 0,-3 0,-5 0,-7"/>
 <path class="fil0 str0" d="M494 733c-2,-6 -4,-12 -6,-18 -2,-4 -4,-8 -6,-11"/>
 <path class="fil0 str0" d="M490 732c-2,-4 -4,-8 -7,-13 -1,-3 -3,-6 -6,-8 -1,0 -2,-1 -2,-1"/>
 <path class="fil0 str0" d="M490 102c-2,1 -4,2 -7,3 -3,1 -7,0 -11,1 -2,0 -3,1 -5,2 -1,0 -2,0 -3,1"/>
 <path class="fil0 str0" d="M489 94c-4,0 -8,0 -11,2 -2,2 -4,4 -7,5 -1,0 -2,0 -3,0 -1,0 -2,0 -3,0"/>
 <line class="fil0 str0" x1="463" y1="871" x2="463" y2= "998" />
 <line class="fil0 str0" x1="458" y1="856" x2="458" y2= "868" />
 <line class="fil0 str0" x1="456" y1="854" x2="458" y2= "856" />
 <line class="fil0 str0" x1="463" y1="871" x2="458" y2= "868" />
 <line class="fil0 str0" x1="534" y1="868" x2="422" y2= "868" />
 <line class="fil0 str0" x1="428" y1="333" x2="428" y2= "496" />
 <line class="fil0 str0" x1="428" y1="773" x2="428" y2= "685" />
 <line class="fil0 str0" x1="428" y1="854" x2="422" y2= "856" />
 <path class="fil0 str0" d="M525 743c0,0 0,1 0,1 0,1 1,1 1,1 1,0 1,1 1,1"/>
 <path class="fil0 str0" d="M539 809c0,5 -1,10 -1,15 -2,9 -4,18 -13,30"/>
 <path class="fil0 str0" d="M539 809c0,-1 1,-2 1,-4 0,-1 0,-2 0,-3 0,-1 0,-1 0,-2"/>
 <path class="fil0 str0" d="M540 800c-1,0 -1,0 -1,0"/>
 <path class="fil0 str0" d="M539 800c-1,1 -2,1 -2,1 -1,1 -1,2 -1,3"/>
 <path class="fil0 str0" d="M533 763c1,3 2,7 2,12 1,6 2,13 0,18 -1,1 -1,3 -1,6 0,1 0,2 0,2 0,0 0,-1 0,-1 0,0 0,0 1,-1"/>
 <path class="fil0 str0" d="M458 726c1,1 1,2 1,3"/>
 <path class="fil0 str0" d="M462 738c0,1 1,3 1,4"/>
 <path class="fil0 str0" d="M467 754c1,3 1,6 2,9"/>
 <path class="fil0 str0" d="M472 775c1,4 2,7 2,11 2,12 3,25 1,38 -2,10 -4,20 -11,26 -6,4 -15,6 -23,4 -3,-1 -6,-2 -8,-4 -6,-4 -8,-13 -8,-21 -1,-9 -1,-17 -1,-26 -1,-9 -2,-18 2,-26 2,-5 6,-9 11,-11 6,-2 12,-1 17,3 7,5 9,15 10,25 2,14 3,29 -7,38 -3,3 -8,5 -12,5 -5,-1 -10,-7 -12,-12 -2,-6 -1,-12 -1,-18 0,-5 -1,-11 2,-15 2,-3 5,-5 8,-5 3,-1 6,2 8,5 4,4 3,10 2,16 0,4 0,8 -2,12 -1,2 -3,4 -6,4 -1,0 -3,-1 -4,-2 0,-1 0,-2 0,-2"/>
 <path class="fil0 str0" d="M485 319c0,-3 0,-6 0,-9"/>
 <path class="fil0 str0" d="M480 334c-2,19 -5,37 -8,55 -5,24 -10,48 -15,72 -5,29 -9,58 -12,88 -4,34 -6,69 -2,104 3,22 8,44 14,66"/>
 <path class="fil0 str0" d="M525 305c0,2 1,4 2,5 2,2 3,3 5,3 5,1 7,-9 8,-17 0,-8 0,-14 -2,-24 -1,-8 -4,-21 -12,-32"/>
 <path class="fil0 str0" d="M482 306c0,7 -1,13 -1,20"/>
 <path class="fil0 str0" d="M456 234c1,0 2,1 3,1 4,1 9,4 12,8 2,4 4,8 5,12 3,9 5,19 5,28"/>
 <path class="fil0 str0" d="M518 262c0,0 1,0 1,0 2,1 5,-1 4,-3 0,-1 -1,-1 -2,-2 0,0 -1,0 -1,0"/>
 <path class="fil0 str0" d="M520 257c1,-1 2,-1 3,-1 1,0 1,1 2,1"/>
 <path class="fil0 str0" d="M525 257c-1,-2 -1,-4 -2,-6 0,0 -1,-1 -2,-1 0,0 0,0 -1,0 0,0 0,0 0,0"/>
 <line class="fil0 str0" x1="497" y1="200" x2="501" y2= "200" />
 <line class="fil0 str0" x1="524" y1="200" x2="531" y2= "200" />
 <path class="fil0 str0" d="M517 190c-1,0 -2,0 -1,0"/>
 <path class="fil0 str0" d="M450 92c0,-5 0,-10 0,-15"/>
 <line class="fil0 str0" x1="419" y1="998" x2="538" y2= "998" />
 <path class="fil0 str0" d="M419 2l28 0 -28 0 28 0 -28 0 28 0 -28 0 28 0 -28 0 28 0 -28 0zm28 0l102 0 -102 0zm102 0l-102 0 102 0zm-102 0l102 0 -102 0zm0 0l102 0 -102 0z"/>
 <line class="fil0 str0" x1="558" y1="6" x2="419" y2= "6" />
 <line class="fil0 str0" x1="561" y1="25" x2="419" y2= "25" />
 <line class="fil0 str0" x1="561" y1="29" x2="419" y2= "29" />
 <line class="fil0 str0" x1="548" y1="35" x2="419" y2= "35" />
 <line class="fil0 str0" x1="558" y1="5" x2="419" y2= "5" />
</symbol>
 <g id="_x0020_1">
  <metadata id="CorelCorpID_0Corel-Layer"/>
  <use x="3" y="1" width="504" height="996" xlink:href="#front"/>
  <use y="1" width="162" height="996" xlink:href="#leg"/>
 </g>
</svg>
